<?xml version="1.0"?>
<svg id="symbol" viewBox="0 0 25 25" xmlns="http://www.w3.org/2000/svg" xmlns:svg="http://www.w3.org/2000/svg">
 <!-- Created with SVG-edit - https://github.com/SVG-Edit/svgedit-->
 <!-- Created by Aleksy Slizewski -->
 <g class="layer">
  <title>bow</title>
  <g id="svg_13">
   <path d="m4.1,14.64l0.57,-0.41c0.35,0.51 0.75,0.83 1.33,1.24l-0.48,0.41c-0.59,-0.46 -1.08,-0.68 -1.42,-1.24z" fill="#bf0000" fill-opacity="null" id="svg_11" stroke="#000000" stroke-dasharray="null" stroke-linecap="null" stroke-linejoin="null" stroke-opacity="null" stroke-width="0.2"/>
   <path d="m3.3,15.28l0.55,-0.45c0.37,0.5 0.78,0.85 1.4,1.25l-0.5,0.4c-0.62,-0.45 -1.08,-0.7 -1.45,-1.2z" fill="#bf0000" fill-opacity="null" id="svg_12" stroke="#000000" stroke-dasharray="null" stroke-linecap="null" stroke-linejoin="null" stroke-opacity="null" stroke-width="0.2"/>
   <path d="m4,3.38c1.04,1.14 11.24,0.85 14,4c2.76,3.15 -0.21,13.68 2,15c2.21,1.32 2.78,1.36 1,-1c-1.78,-2.36 1.39,-10.62 -2,-15c-3.39,-4.38 -11.05,-2.02 -14,-4c-2.95,-1.98 -2.04,-0.14 -1,1z" fill="#8b4513" id="svg_1" stroke="#000000" stroke-dasharray="null" stroke-linecap="null" stroke-linejoin="null" stroke-opacity="null" stroke-width="0.2"/>
   <path d="m6,2.88l-2,14.5l16.65,3" fill="#000000" fill-opacity="0" id="svg_3" stroke="#000000" stroke-dasharray="null" stroke-linecap="null" stroke-linejoin="null" stroke-width="0.2"/>
   <path d="m19.6,5.48l-15.5,11.5l0.5,0.5l15.5,-11.5l-0.5,-0.5z" fill="#8b4513" fill-opacity="null" id="svg_5" stroke="#000000" stroke-dasharray="null" stroke-linecap="null" stroke-linejoin="null" stroke-opacity="null" stroke-width="0.2"/>
   <path d="m22.6,3.73l-3.75,1l1.26,0.25l-1.01,0.75l0.5,0.75l1,-0.75l0,1l2,-3z" fill="#7f7f7f" id="svg_6" stroke="#000000" stroke-dasharray="null" stroke-linecap="null" stroke-linejoin="null" stroke-opacity="null" stroke-width="0.2"/>
   <path d="m8.08,15.03c-0.2,0.78 -0.15,1.67 0,2.45l-0.5,0.3c-0.15,-0.83 -0.2,-1.62 0,-2.4l0.5,-0.35z" fill="#bf0000" id="svg_7" stroke="#000000" stroke-dasharray="null" stroke-linecap="null" stroke-linejoin="null" stroke-opacity="null" stroke-width="0.2"/>
   <path d="m7.23,15.63c-0.2,0.78 -0.15,1.57 0,2.35l-0.6,0.4c-0.15,-0.83 -0.1,-1.62 0.1,-2.4l0.5,-0.35z" fill="#bf0000" id="svg_8" stroke="#000000" stroke-dasharray="null" stroke-linecap="null" stroke-linejoin="null" stroke-opacity="null" stroke-width="0.2"/>
   <path d="m6.38,16.18c-0.2,0.78 -0.15,1.57 0,2.35l-0.65,0.45c-0.15,-0.83 -0.05,-1.67 0.15,-2.45l0.5,-0.35z" fill="#bf0000" id="svg_9" stroke="#000000" stroke-dasharray="null" stroke-linecap="null" stroke-linejoin="null" stroke-opacity="null" stroke-width="0.2"/>
   <path d="m5.48,16.93c-0.2,0.78 -0.2,1.47 -0.05,2.25l-0.6,0.4c-0.15,-0.83 -0.05,-1.52 0.15,-2.3l0.5,-0.35z" fill="#bf0000" id="svg_10" stroke="#000000" stroke-dasharray="null" stroke-linecap="null" stroke-linejoin="null" stroke-opacity="null" stroke-width="0.2"/>
   <path d="m5.85,13.38l0.6,-0.4c0.37,0.5 0.68,0.85 1.3,1.25l-0.5,0.4c-0.62,-0.45 -1.03,-0.7 -1.4,-1.25z" fill="#bf0000" fill-opacity="null" id="svg_2" stroke="#000000" stroke-dasharray="null" stroke-linecap="null" stroke-linejoin="null" stroke-opacity="null" stroke-width="0.2"/>
   <path d="m4.95,14.03l0.55,-0.4c0.37,0.5 0.73,0.75 1.35,1.15l-0.55,0.4c-0.62,-0.45 -0.98,-0.6 -1.35,-1.15z" fill="#bf0000" fill-opacity="null" id="svg_4" stroke="#000000" stroke-dasharray="null" stroke-linecap="null" stroke-linejoin="null" stroke-opacity="null" stroke-width="0.2"/>
  </g>
 </g>
</svg>