<?xml version="1.0"?>
<svg id="symbol" viewBox="0 0 25 25" xmlns="http://www.w3.org/2000/svg" xmlns:svg="http://www.w3.org/2000/svg">
 <!-- Created with SVG-edit - https://github.com/SVG-Edit/svgedit-->
 <!-- Created by Aleksy Slizewski -->
 <g class="layer">
  <title>camera</title>
  <rect fill="#999999" height="14" id="svg_1" stroke="#000000" stroke-dasharray="null" stroke-linecap="null" stroke-linejoin="null" stroke-width="0.2" width="21" x="2" y="6"/>
  <rect fill="#e5e5e5" height="3" id="svg_2" stroke="#000000" stroke-dasharray="null" stroke-linecap="null" stroke-linejoin="null" stroke-opacity="0" stroke-width="0.2" transform="matrix(1, 0, 0, 1, 0, 0)" width="20.8" x="2.1" y="6.1"/>
  <line fill="none" id="svg_3" stroke="#b2b2b2" stroke-dasharray="null" stroke-linecap="null" stroke-linejoin="null" stroke-width="0.2" transform="matrix(1, 0, 0, 1, 0, 0)" x1="2.1" x2="22.9" y1="9" y2="9"/>
  <circle cx="14" cy="14" fill="#191919" fill-opacity="null" id="svg_6" r="4" stroke="#0a0a0a" stroke-dasharray="null" stroke-linecap="null" stroke-linejoin="null" stroke-width="0.5" transform="matrix(1, 0, 0, 1, 0, 0)"/>
  <rect fill="#7f0000" height="1" id="svg_10" stroke="#000000" stroke-dasharray="null" stroke-linecap="null" stroke-linejoin="null" stroke-opacity="null" stroke-width="0.2" transform="matrix(1, 0, 0, 1, 0, 0)" width="2" x="3" y="5"/>
  <rect fill="#b2b2b2" height="1" id="svg_11" stroke="#000000" stroke-dasharray="null" stroke-linecap="null" stroke-linejoin="null" stroke-opacity="null" stroke-width="0.2" transform="matrix(1, 0, 0, 1, 0, 0)" width="2" x="6" y="8.5"/>
  <circle cx="14" cy="14" fill="#000000" fill-opacity="0" id="svg_12" r="4.45" stroke="#000000" stroke-dasharray="null" stroke-linecap="null" stroke-linejoin="null" stroke-opacity="null" stroke-width="0.5"/>
  <path d="m14.5,11c1.63,0.1 2.46,1.5 2.5,2.5" fill="#000000" fill-opacity="0" id="svg_9" stroke="#999999" stroke-dasharray="null" stroke-linecap="round" stroke-linejoin="null" stroke-width="0.5"/>
 </g>
</svg>