<?xml version="1.0"?>
<svg id="symbol" viewBox="0 0 25 25" xmlns="http://www.w3.org/2000/svg" xmlns:svg="http://www.w3.org/2000/svg">
 <!-- Created with SVG-edit - https://github.com/SVG-Edit/svgedit-->
 <!-- Created by Aleksy Slizewski -->
 <g class="layer">
  <title>carrot</title>
  <path d="m9.5,9c0,-1.66 1.34,-3 3,-3c1.66,0 3,1.34 3,3c0,1.66 -1.34,14 -3,14c-1.66,0 -3,-12.34 -3,-14z" fill="#ff4500" fill-opacity="null" id="svg_1" stroke="#000000" stroke-dasharray="null" stroke-linecap="null" stroke-linejoin="null" stroke-opacity="null" stroke-width="0.2"/>
  <path d="m11.74,6.03l-2.01,-1.76l0.2,-1.49l2.18,2.78l-0.84,-4.07l1.09,-1.09l0.25,5.21l1.24,-5.06l1.09,0.25l-1.74,4.77l2.28,-2.58l0.35,1.24l-2.33,1.89c-0.28,-0.14 -0.55,-0.19 -0.83,-0.19c-0.28,0 -0.65,0.11 -0.93,0.11l0,-0.01z" fill="#00bf00" id="svg_7" stroke="#000000" stroke-dasharray="null" stroke-linecap="null" stroke-linejoin="null" stroke-opacity="null" stroke-width="0.2"/>
  <line fill="none" fill-opacity="null" id="svg_8" stroke="#000000" stroke-dasharray="null" stroke-linecap="null" stroke-linejoin="null" stroke-opacity="null" stroke-width="0.2" transform="matrix(1, 0, 0, 1, 0, 0)" x1="9.9" x2="11.89" y1="12.5" y2="12.5"/>
  <line fill="none" fill-opacity="null" id="svg_9" stroke="#000000" stroke-dasharray="null" stroke-linecap="null" stroke-linejoin="null" stroke-opacity="null" stroke-width="0.2" x1="15.32" x2="13.58" y1="11" y2="11"/>
  <line fill="none" fill-opacity="null" id="svg_10" stroke="#000000" stroke-dasharray="null" stroke-linecap="null" stroke-linejoin="null" stroke-opacity="null" stroke-width="0.2" x1="13.38" x2="12.74" y1="21.77" y2="21.77"/>
  <line fill="none" fill-opacity="null" id="svg_12" opacity="0.5" stroke="#000000" stroke-dasharray="null" stroke-linecap="null" stroke-linejoin="null" stroke-opacity="null" stroke-width="0.2" x1="12.98" x2="12.98" y1="21.77" y2="21.77"/>
  <line fill="none" fill-opacity="null" id="svg_15" stroke="#000000" stroke-dasharray="null" stroke-linecap="null" stroke-linejoin="null" stroke-opacity="null" stroke-width="0.2" x1="10.4" x2="11.89" y1="16.26" y2="16.26"/>
  <line fill="none" fill-opacity="null" id="svg_16" stroke="#000000" stroke-dasharray="null" stroke-linecap="null" stroke-linejoin="null" stroke-opacity="null" stroke-width="0.2" x1="14.32" x2="12.44" y1="17.85" y2="17.85"/>
  <line fill="none" fill-opacity="null" id="svg_17" stroke="#000000" stroke-dasharray="null" stroke-linecap="null" stroke-linejoin="null" stroke-opacity="null" stroke-width="0.2" x1="11.4" x2="10.85" y1="19.29" y2="19.29"/>
  <line fill="none" fill-opacity="null" id="svg_18" stroke="#000000" stroke-dasharray="null" stroke-linecap="null" stroke-linejoin="null" stroke-opacity="null" stroke-width="0.2" x1="11.25" x2="12.39" y1="20.73" y2="20.73"/>
  <line fill="none" fill-opacity="null" id="svg_19" stroke="#000000" stroke-dasharray="null" stroke-linecap="null" stroke-linejoin="null" stroke-opacity="null" stroke-width="0.2" x1="15.02" x2="12.64" y1="13.48" y2="13.48"/>
  <line fill="none" fill-opacity="null" id="svg_20" stroke="#000000" stroke-dasharray="null" stroke-linecap="null" stroke-linejoin="null" stroke-opacity="null" stroke-width="0.2" transform="matrix(1, 0, 0, 1, 0, 0)" x1="9.55" x2="12.84" y1="9.56" y2="9.55"/>
  <line fill="none" fill-opacity="null" id="svg_21" opacity="0.5" stroke="#000000" stroke-dasharray="null" stroke-linecap="null" stroke-linejoin="null" stroke-opacity="null" stroke-width="0.2" x1="12.84" x2="12.84" y1="9.51" y2="9.51"/>
  <line fill="none" fill-opacity="null" id="svg_22" stroke="#000000" stroke-dasharray="null" stroke-linecap="null" stroke-linejoin="null" stroke-opacity="null" stroke-width="0.2" x1="14.72" x2="13.78" y1="15.6" y2="15.6"/>
  <line fill="none" fill-opacity="null" id="svg_25" opacity="0.5" stroke="#000000" stroke-dasharray="null" stroke-linecap="null" stroke-linejoin="null" stroke-opacity="null" stroke-width="0.2" x1="13.48" x2="13.43" y1="19.84" y2="19.84"/>
  <line fill="none" fill-opacity="null" id="svg_26" stroke="#000000" stroke-dasharray="null" stroke-linecap="null" stroke-linejoin="null" stroke-opacity="null" stroke-width="0.2" x1="12.93" x2="13.88" y1="19.94" y2="19.94"/>
  <line fill="none" fill-opacity="null" id="svg_27" stroke="#000000" stroke-dasharray="null" stroke-linecap="null" stroke-linejoin="null" stroke-opacity="null" stroke-width="0.2" x1="11" x2="10.15" y1="14.62" y2="14.62"/>
  <line fill="none" fill-opacity="null" id="svg_28" opacity="0.5" stroke="#000000" stroke-dasharray="null" stroke-linecap="null" stroke-linejoin="null" stroke-opacity="null" stroke-width="0.2" x1="10.95" x2="10.55" y1="14.62" y2="14.62"/>
  <line fill="none" fill-opacity="null" id="svg_2" stroke="#000000" stroke-dasharray="null" stroke-linecap="null" stroke-linejoin="null" stroke-opacity="null" stroke-width="0.2" x1="11.2" x2="14.52" y1="8.22" y2="8.22"/>
  <line fill="none" fill-opacity="null" id="svg_3" stroke="#000000" stroke-dasharray="null" stroke-linecap="null" stroke-linejoin="null" stroke-opacity="null" stroke-width="0.2" x1="12.29" x2="10.7" y1="11.25" y2="11.25"/>
  <line fill="none" fill-opacity="null" id="svg_4" stroke="#000000" stroke-dasharray="null" stroke-linecap="null" stroke-linejoin="null" stroke-opacity="null" stroke-width="0.2" x1="13.18" x2="12.09" y1="14.87" y2="14.87"/>
 </g>
</svg>