<?xml version="1.0"?>
<svg id="symbol" viewBox="0 0 25 25" xmlns="http://www.w3.org/2000/svg" xmlns:svg="http://www.w3.org/2000/svg">
 <!-- Created with SVG-edit - https://github.com/SVG-Edit/svgedit-->
 <!-- Created by Aleksy Slizewski -->
 <g class="layer">
  <title>anchor</title>
  <path d="m12.5,1c-1.13,-0.03 -2.47,0.44 -2.5,2c-0.03,1.56 0.83,1.83 1.5,2.5l0,2.5l-4.5,0l0,2l4.5,0l0,5c-0.41,2.53 -2.21,6.95 -4.5,7c-2.29,0.05 -2.89,-3.42 -3,-5l1,0l-2,-3l-2,3l1,0c0.23,2.5 0.9,7.03 5,7c4.1,-0.03 4.97,-4.48 5,-5c0.03,-0.52 0.97,-0.52 1,0c0.03,0.52 0.8,5.11 5,5c4.2,-0.11 4.92,-4.5 5,-7l1,0l-2,-3l-2,3l1,0c0.14,1.83 -0.91,5.01 -3,5c-2.09,-0.01 -3.84,-4.42 -4.5,-7l0,-5l4.5,0l0,-2l-4.5,0l0,-2.5c0.67,-0.67 1.51,-0.95 1.5,-2.5c-0.01,-1.55 -1.31,-2.02 -2.5,-2l0,1c0.7,-0.16 1.5,0.67 1.5,1.25c0,0.58 -0.75,1.21 -1.5,1.25c-0.75,0.04 -1.52,-0.68 -1.5,-1.25c0.02,-0.57 0.89,-1.43 1.5,-1.25l0,-1z" fill="#b2b2b2" fill-opacity="null" id="svg_14" stroke="#000000" stroke-dasharray="null" stroke-linecap="round" stroke-linejoin="bevel" stroke-opacity="0" stroke-width="0.2"/>
  <path d="m12.5,2c0.7,-0.06 1.5,0.67 1.5,1.25c0,0.58 -0.75,1.21 -1.5,1.25c-0.75,0.04 -1.52,-0.68 -1.5,-1.25c0.02,-0.57 0.84,-1.28 1.5,-1.25l0,0z" fill="#000000" fill-opacity="0" id="svg_16" stroke="#000000" stroke-dasharray="null" stroke-linecap="round" stroke-linejoin="bevel" stroke-opacity="null" stroke-width="0.2"/>
  <path d="m12.5,1c-1.13,-0.03 -2.47,0.44 -2.5,2c-0.03,1.56 0.83,1.83 1.5,2.5l0,2.5l-4.5,0l0,2l4.5,0l0,5c-0.41,2.53 -2.21,6.95 -4.5,7c-2.29,0.05 -2.89,-3.42 -3,-5l1,0l-2,-3l-2,3l1,0c0.23,2.5 0.9,7.03 5,7c4.1,-0.03 4.97,-4.48 5,-5c0.03,-0.52 0.97,-0.52 1,0c0.03,0.52 0.8,5.11 5,5c4.2,-0.11 4.92,-4.5 5,-7l1,0l-2,-3l-2,3l1,0c0.14,1.83 -0.91,5.01 -3,5c-2.09,-0.01 -3.84,-4.42 -4.5,-7l0,-5l4.5,0l0,-2l-4.5,0l0,-2.5c0.67,-0.67 1.51,-0.95 1.5,-2.5c-0.01,-1.55 -1.31,-2.02 -2.5,-2l0,0z" fill="#000000" fill-opacity="0" id="svg_17" stroke="#000000" stroke-dasharray="null" stroke-linecap="round" stroke-linejoin="bevel" stroke-width="0.2"/>
 </g>
</svg>