<?xml version="1.0"?>
<svg id="symbol" viewBox="0 0 25 25" xmlns="http://www.w3.org/2000/svg" xmlns:svg="http://www.w3.org/2000/svg">
 <!-- Created with SVG-edit - https://github.com/SVG-Edit/svgedit-->
 <!-- Created by Aleksy Slizewski -->
 <g class="layer">
  <title>coal</title>
  <path d="m1.5,12.5c0.25,-2.49 3.27,-5.58 5.36,-5.22c2.09,0.36 5.04,-2.24 6.14,-2.73c1.1,-0.5 5.29,-0.04 7.28,1.59c1.99,1.63 2.23,5.72 2.72,6.51c0.5,0.8 0.21,7.37 -2.08,8.7c-2.29,1.33 -5.53,-0.39 -8.57,-0.39c-3.04,0 -7.28,1.18 -9.27,0.15c-1.99,-1.03 -1.83,-6.11 -1.58,-8.6z" fill="#191919" id="svg_4" stroke="#000000" stroke-dasharray="null" stroke-linecap="null" stroke-linejoin="null" stroke-width="0.2"/>
  <path d="m3.8,14.4c0.16,0.96 1.85,1.82 3,1.78c1.15,-0.03 2.11,-0.9 3.5,-1.42c1.39,-0.51 1.78,-1.51 1.89,-2.28" fill="#191919" fill-opacity="null" id="svg_5" stroke="#000000" stroke-dasharray="null" stroke-linecap="null" stroke-linejoin="null" stroke-opacity="null" stroke-width="0.2"/>
  <path d="m14.97,15.1c0.41,1.16 1.14,2.79 2.22,2.84c1.08,0.05 2.33,0.45 3.34,-0.43" fill="none" fill-opacity="null" id="svg_6" stroke="#000000" stroke-dasharray="null" stroke-linecap="null" stroke-linejoin="null" stroke-opacity="null" stroke-width="0.2"/>
  <path d="m12.54,8.96c0.47,0.66 2.83,1.13 4.05,0.74c1.22,-0.38 2.2,-2.04 2.71,-2.28" fill="none" fill-opacity="null" id="svg_7" stroke="#000000" stroke-dasharray="null" stroke-linecap="null" stroke-linejoin="null" stroke-opacity="null" stroke-width="0.2"/>
  <path d="m12.54,9.12c0.17,0.61 2.77,1.23 3.96,0.89c1.19,-0.35 2.3,-1.66 2.6,-2.25" fill="none" fill-opacity="null" id="svg_8" stroke="#000000" stroke-dasharray="null" stroke-linecap="null" stroke-linejoin="null" stroke-opacity="null" stroke-width="0.2" transform="matrix(1, 0, 0, 1, 0, 0)"/>
  <path d="m3.8,14.56c0.16,1.04 1.85,1.96 3,1.93c1.15,-0.03 2.11,-0.98 3.5,-1.53c1.39,-0.55 1.78,-1.63 1.89,-2.46" fill="#191919" fill-opacity="null" id="svg_9" stroke="#000000" stroke-dasharray="null" stroke-linecap="null" stroke-linejoin="null" stroke-opacity="null" stroke-width="0.2"/>
  <path d="m3.8,14.4c0.16,0.96 1.85,1.82 3,1.78c1.15,-0.03 2.11,-0.9 3.5,-1.42c1.39,-0.51 1.78,-1.51 1.89,-2.28" fill="#191919" fill-opacity="null" id="svg_10" stroke="#000000" stroke-dasharray="null" stroke-linecap="null" stroke-linejoin="null" stroke-opacity="null" stroke-width="0.2" transform="matrix(1, 0, 0, 1, 0, 0)"/>
  <path d="m15.22,15.1c0.39,1.08 1.09,2.61 2.13,2.65c1.04,0.04 2.23,0.42 3.19,-0.4" fill="none" fill-opacity="null" id="svg_11" stroke="#000000" stroke-dasharray="null" stroke-linecap="null" stroke-linejoin="null" stroke-opacity="null" stroke-width="0.2" transform="matrix(1, 0, 0, 1, 0, 0)"/>
 </g>
</svg>