<?xml version="1.0"?>
<svg id="symbol" viewBox="0 0 25 25" xmlns="http://www.w3.org/2000/svg" xmlns:svg="http://www.w3.org/2000/svg">
 <!-- Created with SVG-edit - https://github.com/SVG-Edit/svgedit-->
 <!-- Created by Aleksy Slizewski -->
 <g class="layer">
  <title>crown</title>
  <path d="m5,18c-1.89,-1.73 -2.65,-5.18 -2,-8l0,0c0.67,4.25 3.43,3.33 3.9,2.95c0.47,-0.38 2.28,-2.69 2.1,-6.95l0,0c0.08,4.06 1.77,6 3.5,6c1.73,0 3.61,-1.93 3.5,-6l0,0c0.19,3.68 2.56,6.69 3,7c0.44,0.31 2.86,0.77 3,-3l0,0c0.79,2.85 -0.06,5.85 -2,8l-15,0z" fill="#ffd700" id="svg_1" stroke="#000000" stroke-width="0.2"/>
  <path d="m5,18c-0.48,0.37 -1.15,1.45 -1,2c0.15,0.55 16.85,0.35 17,0c0.15,-0.35 -0.38,-1.48 -1,-2l-15,0z" fill="#ffffff" id="svg_2" stroke="#000000" stroke-dasharray="null" stroke-linecap="null" stroke-linejoin="null" stroke-opacity="null" stroke-width="0.2" transform="matrix(1, 0, 0, 1, 0, 0)"/>
  <circle cx="3" cy="9.5" fill="#ff0000" id="svg_3" r="0.5" stroke="#000000" stroke-dasharray="null" stroke-linecap="null" stroke-linejoin="null" stroke-opacity="null" stroke-width="0.2"/>
  <circle cx="22" cy="9.5" fill="#ff0000" id="svg_4" r="0.5" stroke="#000000" stroke-dasharray="null" stroke-linecap="null" stroke-linejoin="null" stroke-opacity="null" stroke-width="0.2"/>
  <circle cx="9" cy="5.5" fill="#ff0000" id="svg_5" r="0.5" stroke="#000000" stroke-dasharray="null" stroke-linecap="null" stroke-linejoin="null" stroke-opacity="null" stroke-width="0.2"/>
  <circle cx="16" cy="5.5" fill="#ff0000" id="svg_6" r="0.5" stroke="#000000" stroke-dasharray="null" stroke-linecap="null" stroke-linejoin="null" stroke-opacity="null" stroke-width="0.2"/>
  <ellipse cx="9.5" cy="14" fill="#4169e1" id="svg_7" rx="0.75" ry="1.5" stroke="#000000" stroke-dasharray="null" stroke-linecap="null" stroke-linejoin="null" stroke-opacity="null" stroke-width="0.2"/>
  <ellipse cx="16" cy="14" fill="#4169e1" id="svg_8" rx="0.75" ry="1.5" stroke="#000000" stroke-dasharray="null" stroke-linecap="null" stroke-linejoin="null" stroke-opacity="null" stroke-width="0.2"/>
  <ellipse cx="4" cy="14.5" fill="#4169e1" id="svg_9" rx="0.5" ry="1.25" stroke="#000000" stroke-dasharray="null" stroke-linecap="null" stroke-linejoin="null" stroke-opacity="null" stroke-width="0.2" transform="matrix(1, 0, 0, 1, 0, 0) rotate(-17.9652, 4, 14.5)"/>
  <ellipse cx="21" cy="14.5" fill="#4169e1" id="svg_10" rx="0.5" ry="1.25" stroke="#000000" stroke-dasharray="null" stroke-linecap="null" stroke-linejoin="null" stroke-opacity="null" stroke-width="0.2" transform="rotate(19.209, 21, 14.5)"/>
 </g>
</svg>