<?xml version="1.0"?>
<svg id="symbol" viewBox="0 0 25 25" xmlns="http://www.w3.org/2000/svg" xmlns:svg="http://www.w3.org/2000/svg">
 <!-- Created with SVG-edit - https://github.com/SVG-Edit/svgedit-->
 <!-- Created by Aleksy Slizewski -->
 <g class="layer">
  <title>fire extinguisher</title>
  <path d="m10.57,6.08c-1.15,-0.37 -2,-0.4 -3.75,-0.47c-1.75,-0.07 -2.15,0.35 -2.53,1.14c-0.38,0.79 -0.22,1.22 0.15,1.59c0.36,0.36 1.64,0.71 2.43,1.24c0.79,0.53 2.09,1.41 1.69,2.63c-0.4,1.22 -1.39,2.1 -1.49,2.43c-0.1,0.33 0.07,0.35 0.35,0.5c0.28,0.15 0.45,0.05 0.79,-0.25c0.35,-0.3 1.19,-2.04 1.34,-2.93c0.1,-0.89 -0.83,-2.18 -1.59,-2.78c-0.76,-0.6 -1.95,-0.84 -2.43,-1.14c-0.48,-0.3 -0.35,-0.68 -0.15,-1.09c0.2,-0.41 0.73,-0.63 1.69,-0.6c0.96,0.03 2.47,0.07 3.48,0.35l0.02,-0.62z" fill="#000000" fill-opacity="null" id="svg_3" stroke="#000000" stroke-dasharray="null" stroke-linecap="null" stroke-linejoin="null" stroke-opacity="null" stroke-width="0.2" transform="matrix(1, 0, 0, 1, 0, 0)"/>
  <path d="m10.56,6.74l-0.02,-0.73l0.79,-0.05c0.06,-0.15 0.28,-0.48 0.39,-0.59c0.23,-0.23 0.54,-0.37 0.88,-0.37c0.69,0 1.25,0.56 1.25,1.25c0,0.69 -0.56,1.25 -1.25,1.25c-0.35,0 -0.66,-0.14 -0.88,-0.37c-0.11,-0.11 -0.2,-0.25 -0.27,-0.4l-0.88,0z" fill="#daa520" id="svg_2" stroke="#d89e15" stroke-width="0.2"/>
  <path d="m10,11.1l0,11c-0.01,1.03 1.42,1.24 2.5,1.2c1.08,-0.04 2.51,-0.12 2.5,-1.2l0,-11c0.02,-0.79 0.03,-1.54 -0.28,-2.1c-0.15,-0.28 -0.26,-0.51 -0.47,-0.66c-0.21,-0.16 -1.18,-0.33 -1.25,-0.44c-0.07,-0.11 0.14,-0.95 -0.5,-0.9c-0.64,0.05 -0.38,0.71 -0.5,0.9c-0.12,0.19 -0.99,0.28 -1.25,0.47c-0.26,0.19 -0.32,0.41 -0.48,0.69c-0.31,0.57 -0.3,1.31 -0.27,2.04z" fill="#FF0000" fill-opacity="null" id="svg_1" stroke="#000000" stroke-dasharray="null" stroke-linecap="null" stroke-linejoin="null" stroke-opacity="null" stroke-width="0.2"/>
  <path d="m10,22.85l0,-0.75c-0.06,0.7 1.47,0.95 2.5,0.95c1.03,0 2.46,-0.3 2.5,-0.95l0,0.75c0,0.66 -1.48,0.91 -2.5,0.95c-1.02,0.03 -2.47,-0.38 -2.5,-0.95z" fill="#000000" id="svg_4" stroke="#000000" stroke-dasharray="null" stroke-linecap="null" stroke-linejoin="null" stroke-opacity="null" stroke-width="0.2" transform="matrix(1, 0, 0, 1, 0, 0)"/>
  <path d="m2.16,21.33l3.85,-5.98c0.35,-0.36 0.61,-0.66 1.24,-0.4c0.63,0.26 0.71,0.48 0.7,0.89l-2.68,6.7c-0.26,0.65 -0.88,0.35 -1.64,0.1c-0.76,-0.25 -1.67,-0.94 -1.46,-1.32l-0.01,0.01z" fill="#000000" fill-opacity="null" id="svg_7" stroke="#000000" stroke-dasharray="null" stroke-linecap="null" stroke-linejoin="null" stroke-opacity="null" stroke-width="0.2" transform="matrix(1, 0, 0, 1, 0, 0)"/>
  <path d="m16.31,6.33c1.14,-0.03 2.27,-0.75 3.35,-0.67c1.08,0.07 1.52,0.73 2.28,1.09l0.89,-0.05c-0.71,-0.56 -1.72,-1.47 -3.03,-1.69c-1.31,-0.22 -2.25,0.17 -3.38,0.25c-1.13,0.08 -1.63,-0.03 -1.98,-0.35c-0.35,-0.32 -0.06,-0.35 1,-0.9c1.06,-0.55 2.78,-1.29 3.83,-1.24c1.04,0.05 1.94,0.1 2.63,0.3l0.94,-0.25c-0.81,-0.41 -2.12,-0.83 -3.62,-0.7c-1.51,0.13 -2.9,0.7 -3.67,1.09c-0.78,0.4 -3.36,0.89 -3.94,1.34l0,0.79c0.6,0.52 3.8,1.04 4.9,0.97" fill="#000000" id="svg_6" stroke="#000000" stroke-dasharray="null" stroke-linecap="null" stroke-linejoin="null" stroke-opacity="null" stroke-width="0.2"/>
  <circle cx="12.5" cy="6.3" fill="#d89e15" id="svg_8" r="0.33" stroke="#d6990a" stroke-dasharray="null" stroke-linecap="null" stroke-linejoin="null" stroke-width="0.1"/>
 </g>
</svg>