<?xml version="1.0"?>
<svg id="symbol" viewBox="0 0 25 25" xmlns="http://www.w3.org/2000/svg" xmlns:svg="http://www.w3.org/2000/svg">
 <!-- Created with SVG-edit - https://github.com/SVG-Edit/svgedit-->
 <!-- Created by Aleksy Slizewski -->
 <g class="layer">
  <title>apple</title>
  <path d="m12.5,7c-1.24,-0.03 -2.28,-3.36 -6.5,-1c-4.22,2.36 -0.1,13.89 3,15c3.1,1.11 3.02,-1.02 3.5,-1c0.48,0.02 0.39,2.17 3.5,1c3.11,-1.17 6.8,-12.52 3,-15c-3.8,-2.48 -5.26,1.03 -6.5,1z" fill="#ff0000" fill-opacity="null" id="svg_2" stroke="#000000" stroke-dasharray="null" stroke-linecap="round" stroke-linejoin="bevel" stroke-width="0.2"/>
  <path d="m14,3l1,0c-1.3,0.99 -2.1,2.56 -2.5,4l-0.25,0c0.05,-1.53 0.61,-3.07 1.75,-4z" fill="#8b4513" id="svg_3" stroke="#000000" stroke-dasharray="null" stroke-linecap="round" stroke-linejoin="bevel" stroke-opacity="null" stroke-width="0.2"/>
  <path d="m17,7c1.49,0.67 1.87,2.23 2,3" fill="#000000" fill-opacity="0" id="svg_1" stroke="#ffffff" stroke-dasharray="null" stroke-linecap="round" stroke-linejoin="bevel" stroke-width="0.5"/>
 </g>
</svg>