<?xml version="1.0"?>
<svg id="symbol" viewBox="0 0 25 25" xmlns="http://www.w3.org/2000/svg" xmlns:svg="http://www.w3.org/2000/svg">
 <!-- Created with SVG-edit - https://github.com/SVG-Edit/svgedit-->
 <!-- Created by Aleksy Slizewski -->
 <g class="layer">
  <title>football</title>
  <circle cx="12.5" cy="12.5" fill="#0a0a0a" id="svg_1" r="10" stroke="#000000" stroke-dasharray="null" stroke-linecap="round" stroke-linejoin="bevel" stroke-opacity="null" stroke-width="0.2" transform="matrix(1, 0, 0, 1, 0, 0)"/>
  <path d="m14.85,15.35l2.65,3.5l-2.6,3.35c-1.68,0.38 -3.02,0.36 -4.75,0l-2.5,-3.25l2.65,-3.6l4.55,0z" fill="#ffffff" fill-opacity="null" id="svg_2" stroke="#000000" stroke-dasharray="null" stroke-linecap="round" stroke-linejoin="bevel" stroke-opacity="null" stroke-width="0.2"/>
  <path d="m12.5,4.19l0,4.48l-3.35,2.39l-4.3,-1.62l0.24,-3.58c1.06,-1.22 2.47,-2.33 4.18,-2.81l3.23,1.14z" fill="#ffffff" fill-opacity="null" id="svg_4" stroke="#000000" stroke-dasharray="null" stroke-linecap="round" stroke-linejoin="bevel" stroke-opacity="null" stroke-width="0.2"/>
  <path d="m21.24,17.39l-3.72,1.48l-2.69,-3.6l1.27,-4.32l4.12,-1.53l2.3,3.11c-0.07,1.74 -0.55,3.67 -1.27,4.86z" fill="#ffffff" fill-opacity="null" id="svg_5" stroke="#000000" stroke-dasharray="null" stroke-linecap="round" stroke-linejoin="bevel" stroke-opacity="null" stroke-width="0.2"/>
  <path d="m20.25,9.45l-4.2,1.62l-3.55,-2.39l0,-4.48l2.8,-1.3c2.24,0.56 3.38,1.31 4.68,2.96l0.28,3.59z" fill="#ffffff" fill-opacity="null" id="svg_6" stroke="#000000" stroke-dasharray="null" stroke-linecap="round" stroke-linejoin="bevel" stroke-opacity="null" stroke-width="0.2"/>
  <path d="m10.28,15.35l-2.69,3.61l-3.67,-1.33c-0.94,-1.77 -1.33,-2.84 -1.43,-5.1l2.31,-3.07l4.22,1.58l1.27,4.32z" fill="#ffffff" fill-opacity="null" id="svg_7" stroke="#000000" stroke-dasharray="null" stroke-linecap="round" stroke-linejoin="bevel" stroke-opacity="null" stroke-width="0.2"/>
 </g>
</svg>