<?xml version="1.0"?>
<svg id="symbol" viewBox="0 0 25 25" xmlns="http://www.w3.org/2000/svg" xmlns:svg="http://www.w3.org/2000/svg">
 <!-- Created with SVG-edit - https://github.com/SVG-Edit/svgedit-->
 <!-- Created by Aleksy Slizewski -->
 <g class="layer">
  <title>baby bottle</title>
  <path d="m16,7l-7,0l-1,15l9,0l-1,-15z" fill="#ffffff" id="svg_1" stroke="#000000" stroke-dasharray="null" stroke-linecap="round" stroke-linejoin="round" stroke-opacity="null" stroke-width="0.2"/>
  <path d="m9,5.75l7,0l0.05,2.25c-2.25,0.65 -5.1,0.74 -7.15,0l0.1,-2.25z" fill="#db7093" fill-opacity="null" id="svg_6" stroke="#000000" stroke-dasharray="null" stroke-linecap="round" stroke-linejoin="round" stroke-opacity="null" stroke-width="0.2"/>
  <ellipse cx="12.5" cy="5.75" fill="#db7093" fill-opacity="null" id="svg_3" rx="3.5" ry="1" stroke="#000000" stroke-dasharray="null" stroke-linecap="round" stroke-linejoin="round" stroke-opacity="null" stroke-width="0.2"/>
  <path d="m11.75,4c0.15,-0.48 -0.76,-1.18 -0.75,-1.75c0.01,-0.57 0.75,-1.47 1.5,-1.5c0.75,-0.03 1.49,0.88 1.5,1.5c0.01,0.62 -0.9,1.27 -0.75,1.75c0.15,0.48 1.55,1.02 2,1.5c0.45,0.48 -1.78,0.93 -2.75,0.95c-0.97,0.02 -3.2,-0.37 -2.75,-0.95c0.45,-0.58 1.85,-1.02 2,-1.5z" fill="#ffdab9" id="svg_5" stroke="#000000" stroke-dasharray="null" stroke-linecap="round" stroke-linejoin="round" stroke-opacity="null" stroke-width="0.2"/>
  <g id="svg_30">
   <line fill="none" fill-opacity="null" id="svg_7" stroke="#cccccc" stroke-dasharray="null" stroke-linecap="round" stroke-linejoin="round" stroke-width="0.5" x1="12.5" x2="12.5" y1="11" y2="19.75"/>
   <line fill="none" fill-opacity="null" id="svg_10" stroke="#cccccc" stroke-dasharray="null" stroke-linecap="round" stroke-linejoin="round" stroke-width="0.5" x1="11.5" x2="13.5" y1="19.75" y2="19.75"/>
   <line fill="none" fill-opacity="null" id="svg_11" stroke="#cccccc" stroke-dasharray="null" stroke-linecap="round" stroke-linejoin="round" stroke-width="0.5" x1="11.5" x2="13.5" y1="10.75" y2="10.75"/>
   <line fill="none" fill-opacity="null" id="svg_12" stroke="#cccccc" stroke-dasharray="null" stroke-linecap="round" stroke-linejoin="round" stroke-width="0.5" x1="11.5" x2="13.5" y1="13.75" y2="13.75"/>
   <line fill="none" fill-opacity="null" id="svg_13" stroke="#cccccc" stroke-dasharray="null" stroke-linecap="round" stroke-linejoin="round" stroke-width="0.5" x1="11.5" x2="13.5" y1="16.75" y2="16.75"/>
   <line fill="none" fill-opacity="null" id="svg_19" stroke="#cccccc" stroke-dasharray="null" stroke-linecap="round" stroke-linejoin="round" stroke-width="0.5" x1="12" x2="13" y1="11.75" y2="11.75"/>
   <line fill="none" fill-opacity="null" id="svg_20" stroke="#cccccc" stroke-dasharray="null" stroke-linecap="round" stroke-linejoin="round" stroke-width="0.5" x1="12" x2="13" y1="12.75" y2="12.75"/>
   <line fill="none" fill-opacity="null" id="svg_23" stroke="#cccccc" stroke-dasharray="null" stroke-linecap="round" stroke-linejoin="round" stroke-opacity="null" stroke-width="0.5" x1="12" x2="13" y1="14.75" y2="14.75"/>
   <line fill="none" fill-opacity="null" id="svg_25" stroke="#cccccc" stroke-dasharray="null" stroke-linecap="round" stroke-linejoin="round" stroke-opacity="null" stroke-width="0.5" x1="12" x2="13" y1="15.75" y2="15.75"/>
   <line fill="none" fill-opacity="null" id="svg_27" stroke="#cccccc" stroke-dasharray="null" stroke-linecap="round" stroke-linejoin="round" stroke-opacity="null" stroke-width="0.5" x1="12" x2="13" y1="17.75" y2="17.75"/>
   <line fill="none" fill-opacity="null" id="svg_29" stroke="#cccccc" stroke-dasharray="null" stroke-linecap="round" stroke-linejoin="round" stroke-opacity="null" stroke-width="0.5" x1="12" x2="13" y1="18.75" y2="18.75"/>
  </g>
 </g>
</svg>