<?xml version="1.0"?>
<svg id="symbol" viewBox="0 0 25 25" xmlns="http://www.w3.org/2000/svg" xmlns:svg="http://www.w3.org/2000/svg">
 <!-- Created with SVG-edit - https://github.com/SVG-Edit/svgedit-->
 <!-- Created by Aleksy Slizewski -->
 <g class="layer">
  <title>needle and thread</title>
  <path d="m2.21,23.26c1.58,0.33 3.79,0.52 5.29,-0.91c1.5,-1.43 0.51,-4.15 0.02,-5.18c-0.49,-1.03 -2.83,-3.85 -2.16,-5.77c0.67,-1.92 1.84,-1.03 3.6,-0.86c1.76,0.18 3.62,-0.59 4.25,-1.45c0.62,-0.86 -0.5,-3.79 -0.2,-4.39c0.31,-0.6 2.12,-0.41 2.36,-1.01" fill="none" fill-opacity="null" id="svg_7" stroke="#ff00ff" stroke-dasharray="null" stroke-linecap="null" stroke-linejoin="null" stroke-opacity="null" stroke-width="0.2"/>
  <g id="svg_4">
   <ellipse cx="15.52" cy="4.49" fill="#000000" fill-opacity="0" id="svg_2" rx="1.5" ry="2.5" stroke="#000000" stroke-dasharray="null" stroke-linecap="null" stroke-linejoin="null" stroke-width="0.2" transform="rotate(-6.666, 15.52, 4.49)"/>
   <path d="m17.28,5.94c0.57,5.79 1.49,16.42 1.23,16.45c-0.26,0.03 -1.66,-10.18 -2.19,-15.99l0.96,-0.46z" fill="#b2b2b2" id="svg_3" stroke="#000000" stroke-dasharray="null" stroke-linecap="null" stroke-linejoin="null" stroke-width="0.2" transform="rotate(-6.666, 17.4373, 14.1673)"/>
   <ellipse cx="15.52" cy="4.49" fill="#000000" fill-opacity="0" id="svg_1" rx="1" ry="2" stroke="#b2b2b2" stroke-dasharray="null" stroke-linecap="null" stroke-linejoin="null" stroke-width="0.8" transform="rotate(-6.29646, 15.52, 4.49)"/>
   <ellipse cx="15.52" cy="4.49" fill="#000000" fill-opacity="0" id="svg_5" rx="0.5" ry="1.5" stroke="#000000" stroke-dasharray="null" stroke-linecap="null" stroke-linejoin="null" stroke-opacity="null" stroke-width="0.2" transform="rotate(-6.29646, 15.52, 4.49)"/>
  </g>
  <path d="m13.98,3.38c-0.06,-0.7 1.72,-0.32 1.38,0.37" fill="none" fill-opacity="null" id="svg_8" stroke="#ff00ff" stroke-dasharray="null" stroke-linecap="null" stroke-linejoin="null" stroke-opacity="null" stroke-width="0.2"/>
 </g>
</svg>