<?xml version="1.0"?>
<svg id="symbol" viewBox="0 0 25 25" xmlns="http://www.w3.org/2000/svg" xmlns:svg="http://www.w3.org/2000/svg">
 <!-- Created with SVG-edit - https://github.com/SVG-Edit/svgedit-->
 <!-- Created by Aleksy Slizewski -->
 <g class="layer">
  <title>penguin</title>
  <path d="m7.5,14c0.25,-4.42 2.24,-8 5,-8c2.76,0 4.55,3.58 5,8c0.45,4.42 0.99,7.95 -5,8c-5.99,0.05 -5.25,-3.58 -5,-8z" fill="#191919" id="svg_1" stroke="#000000" stroke-dasharray="null" stroke-linecap="round" stroke-linejoin="round" stroke-opacity="null" stroke-width="0.2"/>
  <circle cx="12.5" cy="5" fill="#191919" fill-opacity="null" id="svg_2" r="3.5" stroke="#000000" stroke-dasharray="null" stroke-linecap="round" stroke-linejoin="round" stroke-opacity="null" stroke-width="0.2"/>
  <path d="m9,8.5c-2.41,1.75 -6.7,7.95 -6,8.5c0.7,0.55 3.5,-2.07 5,-4" fill="#191919" fill-opacity="null" id="svg_3" stroke="#000000" stroke-dasharray="null" stroke-linecap="round" stroke-linejoin="round" stroke-opacity="null" stroke-width="0.2"/>
  <path d="m15.9,8.5c2.61,1.65 6.65,8.05 6.1,8.5c-0.55,0.45 -3.64,-2.12 -5,-4" fill="#191919" fill-opacity="null" id="svg_4" stroke="#000000" stroke-dasharray="null" stroke-linecap="round" stroke-linejoin="round" stroke-opacity="null" stroke-width="0.2"/>
  <path d="m9,15.6c0,-3.04 1.84,-6.6 3.5,-6.6c1.66,0 3.5,3.56 3.5,6.6c0,3.04 -0.05,5.5 -3.5,5.5c-3.45,0 -3.5,-2.46 -3.5,-5.5z" fill="#ffffff" id="svg_5" stroke="#000000" stroke-dasharray="null" stroke-linecap="round" stroke-linejoin="round" stroke-opacity="0" stroke-width="0.2"/>
  <path d="m9.25,6c0,-0.55 1.59,-1 3.25,-1c1.66,0 3.25,0.45 3.25,1c0,0.55 -0.95,2.3 -3.25,2.35c-2.3,0.05 -3.25,-1.8 -3.25,-2.35z" fill="#ffffff" fill-opacity="null" id="svg_6" stroke="#000000" stroke-dasharray="null" stroke-linecap="round" stroke-linejoin="round" stroke-opacity="0" stroke-width="0.2"/>
  <ellipse cx="11" cy="5" fill="#ffffff" fill-opacity="null" id="svg_8" rx="0.85" ry="1" stroke="#000000" stroke-dasharray="null" stroke-linecap="round" stroke-linejoin="round" stroke-opacity="0" stroke-width="0.2" transform="matrix(1, 0, 0, 1, 0, 0)"/>
  <ellipse cx="10.75" cy="5.29" fill="#ffffff" fill-opacity="null" id="svg_9" rx="0" ry="0.1" stroke="#000000" stroke-dasharray="null" stroke-linecap="round" stroke-linejoin="round" stroke-opacity="0" stroke-width="0.2" transform="matrix(1, 0, 0, 1, 0, 0)"/>
  <ellipse cx="10.7" cy="5.04" fill="#ffffff" fill-opacity="null" id="svg_10" rx="0" ry="0.05" stroke="#000000" stroke-dasharray="null" stroke-linecap="round" stroke-linejoin="round" stroke-opacity="0" stroke-width="0.2" transform="matrix(1, 0, 0, 1, 0, 0)"/>
  <ellipse cx="10.7" cy="4.99" fill="#ffffff" fill-opacity="null" id="svg_11" opacity="0.5" rx="0" ry="0" stroke="#000000" stroke-dasharray="null" stroke-linecap="round" stroke-linejoin="round" stroke-opacity="0" stroke-width="0.2"/>
  <ellipse cx="14" cy="5" fill="#ffffff" fill-opacity="null" id="svg_12" rx="0.85" ry="1" stroke="#000000" stroke-dasharray="null" stroke-linecap="round" stroke-linejoin="round" stroke-opacity="0" stroke-width="0.2"/>
  <path d="m8.5,22.5l3,0c0.04,-2.01 -2.64,-1.42 -3,0z" fill="#ff8c00" id="svg_13" stroke="#000000" stroke-dasharray="null" stroke-linecap="round" stroke-linejoin="round" stroke-opacity="null" stroke-width="0.2"/>
  <path d="m13.5,22.5l3,0c-0.21,-1.51 -3,-1.96 -3,0z" fill="#ff8c00" id="svg_14" stroke="#000000" stroke-dasharray="null" stroke-linecap="round" stroke-linejoin="round" stroke-opacity="null" stroke-width="0.2"/>
  <ellipse cx="11" cy="5" fill="#000000" id="svg_15" rx="0.15" ry="0.5" stroke="#000000" stroke-dasharray="null" stroke-linecap="round" stroke-linejoin="round" stroke-opacity="null" stroke-width="0.2"/>
  <ellipse cx="14" cy="5" fill="#000000" id="svg_17" rx="0.15" ry="0.5" stroke="#000000" stroke-dasharray="null" stroke-linecap="round" stroke-linejoin="round" stroke-opacity="null" stroke-width="0.2"/>
  <path d="m11.5,6.25l0,0c0.81,0.41 1.29,0.28 2,0l0,0c-0.52,-0.74 -1.38,-0.79 -2,0z" fill="#ff8c00" fill-opacity="null" id="svg_19" stroke="#000000" stroke-dasharray="null" stroke-linecap="round" stroke-linejoin="round" stroke-opacity="null" stroke-width="0.2"/>
  <path d="m11.5,6.25l0,0c0.96,0.46 1.34,0.33 2,0l0,0c-0.42,0.89 -1.43,0.94 -2,0z" fill="#ff8c00" fill-opacity="null" id="svg_20" stroke="#000000" stroke-dasharray="null" stroke-linecap="round" stroke-linejoin="round" stroke-opacity="null" stroke-width="0.2"/>
 </g>
</svg>