<?xml version="1.0"?>
<svg id="symbol" viewBox="0 0 25 25" xmlns="http://www.w3.org/2000/svg" xmlns:svg="http://www.w3.org/2000/svg">
 <!-- Created with SVG-edit - https://github.com/SVG-Edit/svgedit-->
 <!-- Created by Aleksy Slizewski -->
 <g class="layer">
  <title>spool</title>
  <path d="m6,4l13,0l0,1c0.03,0.73 -1.33,0.67 -2,1l0,13c0.67,0.33 2.03,0.37 2,1l0,1l-13,0l0,-1c-0.03,-0.63 1.33,-0.67 2,-1l0,-13c-0.67,-0.33 -2.03,-0.32 -2,-1l0,-1z" fill="#cd853f" fill-opacity="null" id="svg_1" stroke="#000000" stroke-dasharray="null" stroke-linecap="round" stroke-linejoin="null" stroke-opacity="null" stroke-width="0.2"/>
  <rect fill="#ba55d3" height="13" id="svg_2" stroke="#000000" stroke-dasharray="null" stroke-linecap="round" stroke-linejoin="null" stroke-opacity="0" stroke-width="0.2" transform="matrix(1, 0, 0, 1, 0, 0)" width="8.8" x="8.1" y="6"/>
  <line fill="none" fill-opacity="null" id="svg_3" stroke="#9932cc" stroke-dasharray="null" stroke-linecap="square" stroke-linejoin="null" stroke-width="0.2" x1="8.15" x2="16.85" y1="6" y2="6"/>
  <line fill="none" fill-opacity="null" id="svg_4" stroke="#9932cc" stroke-dasharray="null" stroke-linecap="square" stroke-linejoin="null" stroke-width="0.2" x1="8.15" x2="16.85" y1="19" y2="19"/>
  <line fill="none" fill-opacity="null" id="svg_5" stroke="#9932cc" stroke-dasharray="null" stroke-linecap="square" stroke-linejoin="null" stroke-width="0.2" x1="8.15" x2="16.85" y1="8" y2="8"/>
  <line fill="none" fill-opacity="null" id="svg_6" stroke="#9932cc" stroke-dasharray="null" stroke-linecap="square" stroke-linejoin="null" stroke-width="0.2" x1="8.15" x2="16.85" y1="7" y2="7"/>
  <line fill="none" fill-opacity="null" id="svg_7" stroke="#9932cc" stroke-dasharray="null" stroke-linecap="square" stroke-linejoin="null" stroke-width="0.2" x1="8.15" x2="16.85" y1="9" y2="9"/>
  <line fill="none" fill-opacity="null" id="svg_8" stroke="#9932cc" stroke-dasharray="null" stroke-linecap="square" stroke-linejoin="null" stroke-width="0.2" x1="8.15" x2="16.85" y1="10" y2="10"/>
  <line fill="none" fill-opacity="null" id="svg_9" stroke="#9932cc" stroke-dasharray="null" stroke-linecap="square" stroke-linejoin="null" stroke-width="0.2" x1="8.15" x2="16.85" y1="11" y2="11"/>
  <line fill="none" fill-opacity="null" id="svg_10" stroke="#9932cc" stroke-dasharray="null" stroke-linecap="square" stroke-linejoin="null" stroke-width="0.2" x1="8.15" x2="16.85" y1="12" y2="12"/>
  <line fill="none" fill-opacity="null" id="svg_11" stroke="#9932cc" stroke-dasharray="null" stroke-linecap="square" stroke-linejoin="null" stroke-width="0.2" x1="8.15" x2="16.85" y1="13" y2="13"/>
  <line fill="none" fill-opacity="null" id="svg_12" stroke="#9932cc" stroke-dasharray="null" stroke-linecap="square" stroke-linejoin="null" stroke-width="0.2" x1="8.15" x2="16.85" y1="14" y2="14"/>
  <line fill="none" fill-opacity="null" id="svg_13" stroke="#9932cc" stroke-dasharray="null" stroke-linecap="square" stroke-linejoin="null" stroke-width="0.2" x1="8.15" x2="16.85" y1="15" y2="15"/>
  <line fill="none" fill-opacity="null" id="svg_14" stroke="#9932cc" stroke-dasharray="null" stroke-linecap="square" stroke-linejoin="null" stroke-width="0.2" x1="8.15" x2="16.85" y1="16" y2="16"/>
  <line fill="none" fill-opacity="null" id="svg_15" stroke="#9932cc" stroke-dasharray="null" stroke-linecap="square" stroke-linejoin="null" stroke-width="0.2" x1="8.15" x2="16.85" y1="17" y2="17"/>
  <line fill="none" fill-opacity="null" id="svg_16" stroke="#9932cc" stroke-dasharray="null" stroke-linecap="square" stroke-linejoin="null" stroke-width="0.2" x1="8.15" x2="16.85" y1="18" y2="18"/>
  <line fill="none" fill-opacity="null" id="svg_17" stroke="#9932cc" stroke-dasharray="null" stroke-linecap="square" stroke-linejoin="null" stroke-width="0.2" x1="8.15" x2="16.85" y1="6" y2="7"/>
  <line fill="none" fill-opacity="null" id="svg_21" stroke="#9932cc" stroke-dasharray="null" stroke-linecap="square" stroke-linejoin="null" stroke-width="0.2" transform="matrix(1, 0, 0, 1, 0, 0)" x1="8.15" x2="16.85" y1="7" y2="8"/>
  <line fill="none" fill-opacity="null" id="svg_23" stroke="#9932cc" stroke-dasharray="null" stroke-linecap="square" stroke-linejoin="null" stroke-width="0.2" x1="8.15" x2="16.85" y1="8" y2="9"/>
  <line fill="none" fill-opacity="null" id="svg_26" stroke="#9932cc" stroke-dasharray="null" stroke-linecap="square" stroke-linejoin="null" stroke-width="0.2" transform="matrix(1, 0, 0, 1, 0, 0)" x1="8.15" x2="16.85" y1="9" y2="10"/>
  <line fill="none" fill-opacity="null" id="svg_30" stroke="#9932cc" stroke-dasharray="null" stroke-linecap="square" stroke-linejoin="null" stroke-width="0.2" x1="8.15" x2="16.85" y1="10" y2="11"/>
  <line fill="none" fill-opacity="null" id="svg_32" stroke="#9932cc" stroke-dasharray="null" stroke-linecap="square" stroke-linejoin="null" stroke-width="0.2" transform="matrix(1, 0, 0, 1, 0, 0)" x1="8.15" x2="16.85" y1="11" y2="12"/>
  <line fill="none" fill-opacity="null" id="svg_34" stroke="#9932cc" stroke-dasharray="null" stroke-linecap="square" stroke-linejoin="null" stroke-width="0.2" x1="8.15" x2="16.85" y1="12" y2="13"/>
  <line fill="none" fill-opacity="null" id="svg_36" stroke="#9932cc" stroke-dasharray="null" stroke-linecap="square" stroke-linejoin="null" stroke-width="0.2" transform="matrix(1, 0, 0, 1, 0, 0)" x1="8.15" x2="16.85" y1="13" y2="14"/>
  <line fill="none" fill-opacity="null" id="svg_38" stroke="#9932cc" stroke-dasharray="null" stroke-linecap="square" stroke-linejoin="null" stroke-width="0.2" transform="matrix(1, 0, 0, 1, 0, 0)" x1="8.15" x2="16.85" y1="14" y2="15"/>
  <line fill="none" fill-opacity="null" id="svg_40" stroke="#9932cc" stroke-dasharray="null" stroke-linecap="square" stroke-linejoin="null" stroke-width="0.2" transform="matrix(1, 0, 0, 1, 0, 0)" x1="8.15" x2="16.85" y1="15" y2="16"/>
  <line fill="none" fill-opacity="null" id="svg_42" stroke="#9932cc" stroke-dasharray="null" stroke-linecap="square" stroke-linejoin="null" stroke-width="0.2" transform="matrix(1, 0, 0, 1, 0, 0)" x1="8.15" x2="16.85" y1="16" y2="17"/>
  <line fill="none" fill-opacity="null" id="svg_44" stroke="#9932cc" stroke-dasharray="null" stroke-linecap="square" stroke-linejoin="null" stroke-width="0.2" x1="8.15" x2="16.85" y1="17" y2="18"/>
  <line fill="none" fill-opacity="null" id="svg_45" stroke="#9932cc" stroke-dasharray="null" stroke-linecap="square" stroke-linejoin="null" stroke-width="0.2" x1="8.15" x2="16.85" y1="17" y2="19"/>
  <line fill="none" fill-opacity="null" id="svg_46" stroke="#9932cc" stroke-dasharray="null" stroke-linecap="square" stroke-linejoin="null" stroke-width="0.2" x1="8.15" x2="16.85" y1="18" y2="19"/>
  <line fill="none" fill-opacity="null" id="svg_47" stroke="#9932cc" stroke-dasharray="null" stroke-linecap="square" stroke-linejoin="null" stroke-width="0.2" x1="8.15" x2="16.85" y1="7" y2="6"/>
  <line fill="none" fill-opacity="null" id="svg_49" stroke="#9932cc" stroke-dasharray="null" stroke-linecap="square" stroke-linejoin="null" stroke-width="0.2" x1="8.15" x2="16.85" y1="8" y2="7"/>
  <line fill="none" fill-opacity="null" id="svg_51" stroke="#9932cc" stroke-dasharray="null" stroke-linecap="square" stroke-linejoin="null" stroke-width="0.2" x1="8.15" x2="16.85" y1="9" y2="8"/>
  <line fill="none" fill-opacity="null" id="svg_53" stroke="#9932cc" stroke-dasharray="null" stroke-linecap="square" stroke-linejoin="null" stroke-width="0.2" transform="matrix(1, 0, 0, 1, 0, 0)" x1="8.15" x2="16.85" y1="10" y2="9"/>
  <line fill="none" fill-opacity="null" id="svg_55" stroke="#9932cc" stroke-dasharray="null" stroke-linecap="square" stroke-linejoin="null" stroke-width="0.2" transform="matrix(1, 0, 0, 1, 0, 0)" x1="8.15" x2="16.85" y1="11" y2="10"/>
  <line fill="none" fill-opacity="null" id="svg_57" stroke="#9932cc" stroke-dasharray="null" stroke-linecap="square" stroke-linejoin="null" stroke-width="0.2" x1="8.15" x2="16.85" y1="12" y2="11"/>
  <line fill="none" fill-opacity="null" id="svg_59" stroke="#9932cc" stroke-dasharray="null" stroke-linecap="square" stroke-linejoin="null" stroke-width="0.2" x1="8.15" x2="16.85" y1="13" y2="12"/>
  <line fill="none" fill-opacity="null" id="svg_61" stroke="#9932cc" stroke-dasharray="null" stroke-linecap="square" stroke-linejoin="null" stroke-width="0.2" x1="8.15" x2="16.85" y1="14" y2="13"/>
  <line fill="none" fill-opacity="null" id="svg_63" stroke="#9932cc" stroke-dasharray="null" stroke-linecap="square" stroke-linejoin="null" stroke-width="0.2" x1="8.15" x2="16.85" y1="15" y2="14"/>
  <line fill="none" fill-opacity="null" id="svg_65" stroke="#9932cc" stroke-dasharray="null" stroke-linecap="square" stroke-linejoin="null" stroke-width="0.2" transform="matrix(1, 0, 0, 1, 0, 0)" x1="8.15" x2="16.85" y1="16" y2="15"/>
  <line fill="none" fill-opacity="null" id="svg_67" stroke="#9932cc" stroke-dasharray="null" stroke-linecap="square" stroke-linejoin="null" stroke-width="0.2" x1="8.15" x2="16.85" y1="17" y2="16"/>
  <line fill="none" fill-opacity="null" id="svg_69" stroke="#9932cc" stroke-dasharray="null" stroke-linecap="square" stroke-linejoin="null" stroke-width="0.2" transform="matrix(1, 0, 0, 1, 0, 0)" x1="8.15" x2="16.85" y1="18" y2="17"/>
  <line fill="none" fill-opacity="null" id="svg_70" stroke="#9932cc" stroke-dasharray="null" stroke-linecap="square" stroke-linejoin="null" stroke-width="0.2" x1="8.15" x2="16.85" y1="19" y2="17"/>
  <line fill="none" fill-opacity="null" id="svg_71" stroke="#9932cc" stroke-dasharray="null" stroke-linecap="square" stroke-linejoin="null" stroke-width="0.2" x1="8.15" x2="16.85" y1="19" y2="18"/>
  <line fill="none" fill-opacity="null" id="svg_72" stroke="#9932cc" stroke-dasharray="null" stroke-linecap="square" stroke-linejoin="null" stroke-width="0.2" x1="8.15" x2="16.85" y1="6.5" y2="6.5"/>
  <line fill="none" fill-opacity="null" id="svg_73" stroke="#9932cc" stroke-dasharray="null" stroke-linecap="square" stroke-linejoin="null" stroke-width="0.2" x1="8.15" x2="16.85" y1="7.5" y2="7.5"/>
  <line fill="none" fill-opacity="null" id="svg_74" stroke="#9932cc" stroke-dasharray="null" stroke-linecap="square" stroke-linejoin="null" stroke-width="0.2" x1="8.15" x2="16.85" y1="8.5" y2="8.5"/>
  <line fill="none" fill-opacity="null" id="svg_75" stroke="#9932cc" stroke-dasharray="null" stroke-linecap="square" stroke-linejoin="null" stroke-width="0.2" x1="8.15" x2="16.85" y1="6.5" y2="6.5"/>
  <line fill="none" fill-opacity="null" id="svg_76" stroke="#9932cc" stroke-dasharray="null" stroke-linecap="square" stroke-linejoin="null" stroke-width="0.2" x1="8.15" x2="16.85" y1="9.5" y2="9.5"/>
  <line fill="none" fill-opacity="null" id="svg_77" stroke="#9932cc" stroke-dasharray="null" stroke-linecap="square" stroke-linejoin="null" stroke-width="0.2" x1="8.15" x2="16.85" y1="10.5" y2="10.5"/>
  <line fill="none" fill-opacity="null" id="svg_78" stroke="#9932cc" stroke-dasharray="null" stroke-linecap="square" stroke-linejoin="null" stroke-width="0.2" x1="8.15" x2="16.85" y1="11.5" y2="11.5"/>
  <line fill="none" fill-opacity="null" id="svg_79" stroke="#9932cc" stroke-dasharray="null" stroke-linecap="square" stroke-linejoin="null" stroke-width="0.2" x1="8.15" x2="16.85" y1="12.5" y2="12.5"/>
  <line fill="none" fill-opacity="null" id="svg_80" stroke="#9932cc" stroke-dasharray="null" stroke-linecap="square" stroke-linejoin="null" stroke-width="0.2" x1="8.15" x2="16.85" y1="13.5" y2="13.5"/>
  <line fill="none" fill-opacity="null" id="svg_81" stroke="#9932cc" stroke-dasharray="null" stroke-linecap="square" stroke-linejoin="null" stroke-width="0.2" x1="8.15" x2="16.85" y1="14.5" y2="14.5"/>
  <line fill="none" fill-opacity="null" id="svg_82" stroke="#9932cc" stroke-dasharray="null" stroke-linecap="square" stroke-linejoin="null" stroke-width="0.2" x1="8.15" x2="16.85" y1="15.5" y2="15.5"/>
  <line fill="none" fill-opacity="null" id="svg_83" stroke="#9932cc" stroke-dasharray="null" stroke-linecap="square" stroke-linejoin="null" stroke-width="0.2" x1="8.15" x2="16.85" y1="16.5" y2="16.5"/>
  <line fill="none" fill-opacity="null" id="svg_84" stroke="#9932cc" stroke-dasharray="null" stroke-linecap="square" stroke-linejoin="null" stroke-width="0.2" x1="8.15" x2="16.85" y1="17.5" y2="17.5"/>
  <line fill="none" fill-opacity="null" id="svg_85" stroke="#9932cc" stroke-dasharray="null" stroke-linecap="square" stroke-linejoin="null" stroke-width="0.2" x1="8.15" x2="16.85" y1="18.5" y2="18.5"/>
  <path d="m17,19c0.72,-0.06 0.79,0.08 1,0.5c0.21,0.42 -0.82,1.97 -1,1c-0.18,-0.97 1.5,-0.53 2,0c0.5,0.53 0.95,0.56 1.5,0" fill="none" fill-opacity="null" id="svg_86" stroke="#9932cc" stroke-dasharray="null" stroke-linecap="square" stroke-linejoin="null" stroke-opacity="null" stroke-width="0.2"/>
 </g>
</svg>