<?xml version="1.0"?>
<svg id="symbol" viewBox="0 0 25 25" xmlns="http://www.w3.org/2000/svg" xmlns:svg="http://www.w3.org/2000/svg">
 <!-- Created with SVG-edit - https://github.com/SVG-Edit/svgedit-->
 <!-- Created by Aleksy Slizewski -->
 <g class="layer">
  <title>telephone</title>
  <path d="m8,6.1l0,3c-4.73,0.13 -4.64,5.69 -5,9c-0.33,1 -1.16,1.9 -1,3l21,0c0.01,-1.15 -0.67,-2 -1,-3c-0.46,-3.36 -0.22,-8.96 -5,-9l0,-3l-2,0l0,3l-5,0l0,-3l-2,0z" fill="#0a0a0a" id="svg_1" stroke="#000000" stroke-dasharray="null" stroke-linecap="round" stroke-linejoin="round" stroke-width="0.2"/>
  <path d="m0.5,7.5c0,-0.83 0.23,-1.45 3.5,-1.5c3.27,-0.05 3.5,0.67 3.5,1.5c0,0.83 -1.57,1.5 -3.5,1.5c-1.93,0 -3.5,-0.67 -3.5,-1.5z" fill="#0a0a0a" fill-opacity="null" id="svg_3" stroke="#000000" stroke-dasharray="null" stroke-linecap="round" stroke-linejoin="round" stroke-opacity="null" stroke-width="0.2"/>
  <path d="m17.5,7.5c0,-0.83 0.28,-1.4 3.5,-1.5c3.22,-0.1 3.5,0.67 3.5,1.5c0,0.83 -1.57,1.5 -3.5,1.5c-1.93,0 -3.5,-0.67 -3.5,-1.5z" fill="#0a0a0a" fill-opacity="null" id="svg_4" stroke="#000000" stroke-dasharray="null" stroke-linecap="round" stroke-linejoin="round" stroke-opacity="null" stroke-width="0.2"/>
  <path d="m20,4.1c-0.82,-0.47 -14.18,-0.37 -15,0c-0.82,0.37 -1.98,1.68 -2,2.4l1.5,0.5c0.67,-0.5 0.49,-1 1.5,-1.4c1.01,-0.4 12.28,-0.35 13,0c0.72,0.35 0.83,0.9 1.5,1.4l1.5,-0.5c-0.02,-0.91 -1.18,-1.93 -2,-2.4z" fill="#0a0a0a" fill-opacity="null" id="svg_2" stroke="#000000" stroke-dasharray="null" stroke-linecap="round" stroke-linejoin="round" stroke-opacity="null" stroke-width="0.2" transform="matrix(1, 0, 0, 1, 0, 0)"/>
  <line fill="none" fill-opacity="null" id="svg_5" stroke="#070707" stroke-dasharray="null" stroke-linecap="round" stroke-linejoin="round" stroke-width="0.2" x1="4.6" x2="2.95" y1="7" y2="6.5"/>
  <line fill="none" fill-opacity="null" id="svg_6" stroke="#070707" stroke-dasharray="null" stroke-linecap="round" stroke-linejoin="round" stroke-width="0.2" x1="21.87" x2="20.63" y1="6.48" y2="6.98"/>
  <path d="m1.71,8.37c-0.48,0.45 -0.76,1.1 -0.84,1.55c-0.08,0.45 1.92,-0.84 0.79,0.56c-1.03,1.44 1.71,-0.42 0.94,0.46c-0.77,0.88 -1.18,1.86 -0.06,1.1c1.12,-0.76 0.94,0.04 0.53,0.4c-0.4,0.37 -0.65,1.03 -0.51,1.19c0.14,0.17 0.84,-0.41 1.43,-0.74" fill="#000000" fill-opacity="0" id="svg_7" stroke="#070707" stroke-dasharray="null" stroke-linecap="round" stroke-linejoin="round" stroke-width="0.5"/>
  <circle cx="12.5" cy="15" fill="#666666" id="svg_8" r="5" stroke="#000000" stroke-dasharray="null" stroke-linecap="round" stroke-linejoin="round" stroke-width="0.5"/>
  <circle cx="13.45" cy="11.25" fill="#ffffff" id="svg_9" r="0.5" stroke="#000000" stroke-dasharray="null" stroke-linecap="round" stroke-linejoin="round" stroke-width="0.2"/>
  <circle cx="8.65" cy="15" fill="#ffffff" id="svg_10" r="0.5" stroke="#000000" stroke-dasharray="null" stroke-linecap="round" stroke-linejoin="round" stroke-width="0.2"/>
  <circle cx="11.75" cy="11.25" fill="#ffffff" id="svg_11" r="0.5" stroke="#000000" stroke-dasharray="null" stroke-linecap="round" stroke-linejoin="round" stroke-width="0.2"/>
  <circle cx="14.75" cy="12" fill="#ffffff" id="svg_12" r="0.5" stroke="#000000" stroke-dasharray="null" stroke-linecap="round" stroke-linejoin="round" stroke-width="0.2"/>
  <circle cx="10.25" cy="12" fill="#ffffff" id="svg_13" r="0.5" stroke="#000000" stroke-dasharray="null" stroke-linecap="round" stroke-linejoin="round" stroke-width="0.2" transform="matrix(1, 0, 0, 1, 0, 0)"/>
  <circle cx="9.15" cy="13.25" fill="#ffffff" id="svg_14" r="0.5" stroke="#000000" stroke-dasharray="null" stroke-linecap="round" stroke-linejoin="round" stroke-width="0.2"/>
  <circle cx="9.15" cy="16.75" fill="#ffffff" id="svg_15" r="0.5" stroke="#000000" stroke-dasharray="null" stroke-linecap="round" stroke-linejoin="round" stroke-width="0.2" transform="matrix(1, 0, 0, 1, 0, 0)"/>
  <circle cx="10.25" cy="17.95" fill="#ffffff" id="svg_16" r="0.5" stroke="#000000" stroke-dasharray="null" stroke-linecap="round" stroke-linejoin="round" stroke-width="0.2"/>
  <circle cx="11.75" cy="18.75" fill="#ffffff" id="svg_17" r="0.5" stroke="#000000" stroke-dasharray="null" stroke-linecap="round" stroke-linejoin="round" stroke-width="0.2" transform="matrix(1, 0, 0, 1, 0, 0)"/>
  <circle cx="13.5" cy="18.75" fill="#ffffff" id="svg_18" r="0.5" stroke="#000000" stroke-dasharray="null" stroke-linecap="round" stroke-linejoin="round" stroke-width="0.2" transform="matrix(1, 0, 0, 1, 0, 0)"/>
  <circle cx="12.5" cy="15" fill="#7f7f7f" id="svg_19" r="2.5" stroke="#000000" stroke-dasharray="null" stroke-linecap="round" stroke-linejoin="round" stroke-opacity="0" stroke-width="0.2"/>
  <path d="m17.39,18.27c-1.41,0.16 -3,-1.77 -2.75,-1c0.25,0.77 1.1,1.53 2.05,1.85l0.7,-0.85z" fill="#daa520" id="svg_20" stroke="#000000" stroke-dasharray="null" stroke-linecap="round" stroke-linejoin="bevel" stroke-width="0.2"/>
 </g>
</svg>