<?xml version="1.0"?>
<svg id="symbol" viewBox="0 0 25 25" xmlns="http://www.w3.org/2000/svg" xmlns:svg="http://www.w3.org/2000/svg">
 <!-- Created with SVG-edit - https://github.com/SVG-Edit/svgedit-->
 <!-- Created by Aleksy Slizewski -->
 <g class="layer">
  <title>trophy</title>
  <path d="m8,8l0,4c-1.38,-0.06 -4.55,-3.25 -4,-4.5c0.55,-1.25 3.28,-0.37 4,0.5l0,-2c-1.5,-0.92 -4.82,-2.31 -6,1c-1.18,3.31 5.1,6.1 6,7c0.9,0.9 1.8,2.99 3,3l0,2c-0.67,1 -1.98,1.8 -2,3l7,0c-0.07,-1.25 -1.33,-2 -2,-3l0,-2c1.45,-0.21 2.3,-2 3,-3c0.7,-1 7.56,-4.25 6,-7c-1.56,-2.75 -4.54,-1.97 -6,-1l0,2c0.79,-0.94 3.2,-1.95 4,-0.5c0.8,1.45 -2.87,4.34 -4,4.5l0,-4l0,-2l0,-1c0.38,-0.67 1.01,-1.33 1,-2l-11,0c0.04,0.67 0.83,1.67 1,2l0,1l0,2z" fill="#ffd700" id="svg_1" stroke="#000000" stroke-dasharray="null" stroke-linecap="null" stroke-linejoin="null" stroke-opacity="0" stroke-width="0.2"/>
  <path d="m8,6c-1.5,-0.92 -4.82,-2.31 -6,1c-1.18,3.31 5.1,6.1 6,7c0.9,0.9 1.8,2.99 3,3l0,2c-0.67,1 -1.98,1.8 -2,3l7,0c-0.07,-1.25 -1.33,-2 -2,-3l0,-2c1.45,-0.21 2.3,-2 3,-3c0.7,-1 7.56,-4.25 6,-7c-1.56,-2.75 -4.54,-1.97 -6,-1l0,0l0,-1c0.38,-0.67 1.01,-1.33 1,-2l-11,0c0.04,0.67 0.83,1.67 1,2l0,1l0,0z" fill="#000000" fill-opacity="0" id="svg_3" stroke="#000000" stroke-dasharray="null" stroke-linecap="null" stroke-linejoin="null" stroke-width="0.2" transform="matrix(1, 0, 0, 1, 0, 0)"/>
  <path d="m8,8l0,4c-1.38,-0.06 -4.55,-3.25 -4,-4.5c0.55,-1.25 3.28,-0.37 4,0.5l0,0z" fill="#000000" fill-opacity="0" id="svg_4" stroke="#000000" stroke-dasharray="null" stroke-linecap="null" stroke-linejoin="null" stroke-width="0.2"/>
  <path d="m17,8c0.79,-0.94 3.2,-1.95 4,-0.5c0.8,1.45 -2.87,4.34 -4,4.5l0,-4l0,0z" fill="#000000" fill-opacity="0" id="svg_5" stroke="#000000" stroke-dasharray="null" stroke-linecap="null" stroke-linejoin="null" stroke-width="0.2"/>
 </g>
</svg>