<?xml version="1.0"?>
<svg id="symbol" viewBox="0 0 25 25" xmlns="http://www.w3.org/2000/svg" xmlns:svg="http://www.w3.org/2000/svg">
 <!-- Created with SVG-edit - https://github.com/SVG-Edit/svgedit-->
 <!-- Created by Aleksy Slizewski -->
 <g class="layer">
  <title>wrench</title>
  <path d="m14,6c0,-2.76 2.24,-5 5,-5c2.76,0 -3.97,1.95 -0.49,5.29c3.49,3.34 5.49,-3.05 5.49,-0.29c0,2.76 -2.24,5 -5,5c-2.76,0 -5,-2.24 -5,-5z" fill="#b2b2b2" id="svg_1" stroke="#000000" stroke-dasharray="null" stroke-linecap="round" stroke-linejoin="round" stroke-opacity="null" stroke-width="0.2"/>
  <g id="svg_2" transform="matrix(0.707107, 0.707107, -0.707107, 0.707107, 15.3569, 2.86509)">
   <ellipse cx="4.87" cy="21.03" fill="#000000" fill-opacity="0" id="svg_4" rx="1.15" ry="1.75" stroke="#b2b2b2" stroke-dasharray="null" stroke-linecap="round" stroke-linejoin="round" stroke-width="1.5"/>
   <ellipse cx="4.87" cy="21.03" fill="#000000" fill-opacity="0" id="svg_8" rx="2" ry="2.5" stroke="#000000" stroke-dasharray="null" stroke-linecap="round" stroke-linejoin="round" stroke-width="0.2"/>
   <ellipse cx="4.87" cy="21.03" fill="#000000" fill-opacity="0" id="svg_9" rx="0.5" ry="1" stroke="#000000" stroke-dasharray="null" stroke-linecap="round" stroke-linejoin="round" stroke-width="0.2"/>
  </g>
  <rect fill="#b2b2b2" height="18" id="svg_3" stroke="#000000" stroke-dasharray="null" stroke-linecap="round" stroke-linejoin="round" stroke-opacity="0" stroke-width="0.2" transform="matrix(1, 0, 0, 1, 0, 0) matrix(0.707107, 0.707107, -0.707107, 0.707107, 12.4874, -4.14734)" width="2.25" x="10.75" y="4.5"/>
  <line fill="none" fill-opacity="null" id="svg_5" stroke="#000000" stroke-dasharray="null" stroke-linecap="round" stroke-linejoin="bevel" stroke-opacity="null" stroke-width="0.2" transform="matrix(1, 0, 0, 1, 0, 0)" x1="14.82" x2="4.55" y1="8.74" y2="18.92"/>
  <line fill="none" fill-opacity="null" id="svg_6" stroke="#000000" stroke-dasharray="null" stroke-linecap="round" stroke-linejoin="round" stroke-opacity="null" stroke-width="0.2" x1="16.48" x2="6.22" y1="10.36" y2="20.65"/>
 </g>
</svg>