<?xml version="1.0"?>
<svg id="symbol" viewBox="0 0 25 25" xmlns="http://www.w3.org/2000/svg" xmlns:svg="http://www.w3.org/2000/svg">
 <!-- Created with SVG-edit - https://github.com/SVG-Edit/svgedit-->
 <!-- Created by Aleksy Slizewski -->
 <g class="layer">
  <title>airplane</title>
  <path d="m12.5,1c-1.48,0.04 -2.51,1.8 -2.5,3l0,5l-6,1l-3,3l9,-0.5l1,8.5l-4,3l5.5,-1l5.5,1l-4,-3l1,-8.5l9,0.5l-3,-3l-6,-1l0,-5c0.01,-1.3 -1.02,-3.04 -2.5,-3z" fill="#ffffff" id="svg_1" stroke="#000000" stroke-dasharray="null" stroke-linecap="round" stroke-linejoin="null" stroke-opacity="null" stroke-width="0.2"/>
  <path d="m10,18.75l-2,1.25l9,0l-2,-1.25l-5,0z" fill="#ffffff" fill-opacity="null" id="svg_2" stroke="#000000" stroke-dasharray="null" stroke-linecap="round" stroke-linejoin="null" stroke-opacity="null" stroke-width="0.2"/>
  <line fill="none" fill-opacity="null" id="svg_3" stroke="#000000" stroke-dasharray="null" stroke-linecap="round" stroke-linejoin="null" stroke-opacity="null" stroke-width="0.2" x1="12.5" x2="12.5" y1="17" y2="19"/>
  <path d="m10.75,3.5l1,-0.25c0.35,-0.4 1.2,-0.4 1.5,0l1,0.25c-0.01,-2.23 -3.54,-2.09 -3.5,0z" fill="#aaffff" fill-opacity="null" id="svg_5" stroke="#000000" stroke-dasharray="null" stroke-linecap="round" stroke-linejoin="null" stroke-opacity="null" stroke-width="0.2"/>
  <path d="m2.5,11.5l-0.5,0.5l8,-0.5l-0.05,-0.5l-7.45,0.5z" fill="#0000ff" id="svg_6" stroke="#000000" stroke-dasharray="null" stroke-linecap="round" stroke-linejoin="null" stroke-opacity="null" stroke-width="0.2" transform="matrix(1, 0, 0, 1, 0, 0)"/>
  <path d="m22.5,11.5l0.5,0.5l-8,-0.5l0.05,-0.5l7.45,0.5z" fill="#0000ff" id="svg_7" stroke="#000000" stroke-dasharray="null" stroke-linecap="round" stroke-linejoin="null" stroke-opacity="null" stroke-width="0.2"/>
  <path d="m9,19.5l-1,0.5l9,0l-1,-0.5l-7,0z" fill="#0000ff" id="svg_8" stroke="#000000" stroke-dasharray="null" stroke-linecap="round" stroke-linejoin="null" stroke-opacity="null" stroke-width="0.2" transform="matrix(1, 0, 0, 1, 0, 0)"/>
 </g>
</svg>