<?xml version="1.0"?>
<svg id="symbol" viewBox="0 0 25 25" xmlns="http://www.w3.org/2000/svg" xmlns:svg="http://www.w3.org/2000/svg">
 <!-- Created with SVG-edit - https://github.com/SVG-Edit/svgedit-->
 <!-- Created by Aleksy Slizewski -->
 <g class="layer">
  <title>chain</title>
  <g id="svg_66">
   <ellipse cx="5.51" cy="20.02" fill="#000000" fill-opacity="0" id="svg_4" rx="1.5" ry="2.75" stroke="#b0c4de" stroke-dasharray="null" stroke-linecap="square" stroke-linejoin="null" transform="matrix(1, 0, 0, 1, 0, 0) rotate(38.5866, 5.51, 20.02)"/>
   <ellipse cx="9.01" cy="18.02" fill="#000000" fill-opacity="0" id="svg_5" rx="1.5" ry="2.75" stroke="#b0c4de" stroke-dasharray="null" stroke-linecap="square" stroke-linejoin="null" transform="rotate(60.2854, 9.01, 18.02)"/>
   <ellipse cx="11.42" cy="19.37" fill="#000000" fill-opacity="0" id="svg_6" rx="1.5" ry="2.75" stroke="#b0c4de" stroke-dasharray="null" stroke-linecap="square" stroke-linejoin="null" transform="matrix(0.886189, -0.463325, 0.463325, 0.886189, -7.08792, 7.14518)"/>
   <ellipse cx="14.93" cy="19.17" fill="#000000" fill-opacity="0" id="svg_7" rx="1.5" ry="2.75" stroke="#b0c4de" stroke-dasharray="null" stroke-linecap="square" stroke-linejoin="null" transform="matrix(0.781666, 0.623697, -0.623697, 0.781666, 14.7977, -4.27157)"/>
   <ellipse cx="18.31" cy="16.41" fill="#000000" fill-opacity="0" id="svg_8" rx="1.5" ry="2.75" stroke="#b0c4de" stroke-dasharray="null" stroke-linecap="square" stroke-linejoin="null" transform="matrix(0.347948, 0.937514, -0.937514, 0.347948, 27.0226, -4.85285)"/>
   <ellipse cx="19.91" cy="15.11" fill="#000000" fill-opacity="0" id="svg_9" rx="1.5" ry="2.75" stroke="#b0c4de" stroke-dasharray="null" stroke-linecap="square" stroke-linejoin="null" transform="matrix(1, 0, 0, 1, 0, 0) matrix(0.995409, -0.0957171, 0.0957171, 0.995409, -1.2528, 1.8829)"/>
   <ellipse cx="18.01" cy="12.02" fill="#000000" fill-opacity="0" id="svg_10" rx="1.5" ry="2.75" stroke="#b0c4de" stroke-dasharray="null" stroke-linecap="square" stroke-linejoin="null" transform="matrix(1, 0, 0, 1, 0, 0) matrix(0.746253, -0.665662, 0.665662, 0.746253, -3.43128, 15.0386)"/>
   <ellipse cx="13.32" cy="11.26" fill="#000000" fill-opacity="0" id="svg_11" rx="1.5" ry="2.75" stroke="#b0c4de" stroke-dasharray="null" stroke-linecap="square" stroke-linejoin="null" transform="matrix(0.289821, -0.957081, 0.957081, 0.289821, 0.371695, 20.5009)"/>
   <ellipse cx="11.28" cy="10.41" fill="#000000" fill-opacity="0" id="svg_12" rx="1.5" ry="2.75" stroke="#b0c4de" stroke-dasharray="null" stroke-linecap="square" stroke-linejoin="null" transform="matrix(0.835321, -0.549762, 0.549762, 0.835321, -3.13639, 7.52949)"/>
   <ellipse cx="11.43" cy="6.17" fill="#000000" fill-opacity="0" id="svg_13" rx="1.5" ry="2.75" stroke="#b0c4de" stroke-dasharray="null" stroke-linecap="square" stroke-linejoin="null" transform="matrix(1, 0, 0, 1, 0, 0) matrix(0.781666, 0.623697, -0.623697, 0.781666, 5.92552, -4.92697)"/>
   <ellipse cx="14.01" cy="5.02" fill="#000000" fill-opacity="0" id="svg_14" rx="1.5" ry="2.75" stroke="#b0c4de" stroke-dasharray="null" stroke-linecap="square" stroke-linejoin="null" transform="rotate(102.294, 14.01, 5.02)"/>
   <ellipse cx="17.56" cy="4.52" fill="#000000" fill-opacity="0" id="svg_15" rx="1.5" ry="2.75" stroke="#b0c4de" stroke-dasharray="null" stroke-linecap="square" stroke-linejoin="null" transform="rotate(49.4126, 17.56, 4.52)"/>
   <path d="m15.63,7c1.22,0.22 1.99,-0.06 3.28,-1.13c1.29,-1.08 1.79,-2.92 1,-3.6c-0.79,-0.68 -2.48,-0.44 -3.9,0.85c-1.42,1.29 -1.36,2.39 -1.2,2.87" fill="#000000" fill-opacity="0" id="svg_16" stroke="#000000" stroke-dasharray="null" stroke-linecap="square" stroke-linejoin="null" stroke-width="0.2"/>
   <path d="m15.83,5.71c-0.17,-0.55 0.21,-1.1 0.82,-1.71c0.61,-0.61 2.09,-1.32 2.48,-0.94c0.4,0.38 0,1.26 -0.5,1.79c-0.5,0.53 -0.99,0.96 -1.49,1.04" fill="#000000" fill-opacity="0" id="svg_17" stroke="#000000" stroke-dasharray="null" stroke-linecap="square" stroke-linejoin="null" stroke-opacity="null" stroke-width="0.2"/>
   <path d="m14.99,4.32c-0.26,-0.09 -0.39,-0.26 -0.97,-0.37c-0.58,-0.12 -1.85,-0.03 -2.14,0.35c-0.28,0.38 0.26,0.96 0.6,1.14" fill="#000000" fill-opacity="0" id="svg_18" stroke="#000000" stroke-dasharray="null" stroke-linecap="square" stroke-linejoin="null" stroke-opacity="null" stroke-width="0.2"/>
   <path d="m13.6,5.96c0.75,0.26 2.05,0.02 2.41,-0.27c0.36,-0.29 0.25,-0.5 0,-0.6" fill="#000000" fill-opacity="0" id="svg_19" stroke="#000000" stroke-dasharray="null" stroke-linecap="square" stroke-linejoin="null" stroke-opacity="null" stroke-width="0.2"/>
   <path d="m15.53,3.43c-0.47,-0.17 -0.55,-0.31 -1.56,-0.42c-1.01,-0.12 -2.81,0.17 -3.08,1.04c-0.26,0.88 0.56,2.17 1.44,2.48" fill="#000000" fill-opacity="0" id="svg_20" stroke="#000000" stroke-dasharray="null" stroke-linecap="square" stroke-linejoin="null" stroke-opacity="null" stroke-width="0.2"/>
   <path d="m13.4,6.9c1.78,0.59 3.36,-0.26 3.7,-1.12c0.34,-0.85 -0.15,-1.32 -0.45,-1.54" fill="#000000" fill-opacity="0" id="svg_21" stroke="#000000" stroke-dasharray="null" stroke-linecap="square" stroke-linejoin="null" stroke-opacity="null" stroke-width="0.2"/>
   <path d="m12.11,4.17c0.32,-0.01 0.75,-0.09 1.22,0.52c0.46,0.61 0.13,2.07 -0.35,2.78c-0.48,0.71 -1.19,1.84 -2.23,2.09" fill="#000000" fill-opacity="0" id="svg_22" stroke="#000000" stroke-dasharray="null" stroke-linecap="square" stroke-linejoin="null" stroke-opacity="null" stroke-width="0.2"/>
   <path d="m10.72,4.52c-0.44,0.32 -0.65,0.41 -1.51,1.51c-0.86,1.11 -0.93,2.47 -0.65,3.08c0.28,0.61 0.66,0.68 1.09,0.7" fill="#000000" fill-opacity="0" id="svg_23" stroke="#000000" stroke-dasharray="null" stroke-linecap="square" stroke-linejoin="null" stroke-opacity="null" stroke-width="0.2"/>
   <path d="m11.16,5.56c-0.32,0.21 -0.65,0.47 -1.12,1.07c-0.46,0.6 -0.73,1.64 -0.5,1.89" fill="#000000" fill-opacity="0" id="svg_24" stroke="#000000" stroke-dasharray="null" stroke-linecap="square" stroke-linejoin="null" stroke-opacity="null" stroke-width="0.2"/>
   <path d="m10.62,8.59c0.57,-0.37 1.05,-0.82 1.42,-1.42c0.36,-0.6 0.88,-2.04 0.3,-1.94" fill="#000000" fill-opacity="0" id="svg_25" stroke="#000000" stroke-dasharray="null" stroke-linecap="square" stroke-linejoin="null" stroke-opacity="null" stroke-width="0.2"/>
   <path d="m11.26,8.05c-1.25,-0.26 -0.55,1.86 -0.27,2.36c0.28,0.5 1.01,1.44 1.64,1.44" fill="#000000" fill-opacity="0" id="svg_26" stroke="#000000" stroke-dasharray="null" stroke-linecap="square" stroke-linejoin="null" stroke-opacity="null" stroke-width="0.2"/>
   <path d="m11.81,7.2c-0.57,-0.22 -1.34,-0.2 -1.86,0.37c-0.52,0.57 -0.53,2.48 0.55,3.82c1.08,1.34 2.55,1.94 3.23,1.24" fill="#000000" fill-opacity="0" id="svg_27" stroke="#000000" stroke-dasharray="null" stroke-linecap="square" stroke-linejoin="null" stroke-opacity="null" stroke-width="0.2"/>
   <path d="m13.5,11.32c0.22,-0.89 -0.61,-1.99 -1.39,-2.63" fill="#000000" fill-opacity="0" id="svg_31" stroke="#000000" stroke-dasharray="null" stroke-linecap="square" stroke-linejoin="null" stroke-opacity="null" stroke-width="0.2"/>
   <path d="m14.34,11.77c0.26,-1.27 -0.31,-2.8 -1.59,-3.82" fill="#000000" fill-opacity="0" id="svg_32" stroke="#000000" stroke-dasharray="null" stroke-linecap="square" stroke-linejoin="null" stroke-opacity="null" stroke-width="0.2"/>
   <path d="m12.55,9.34c-0.93,0.52 -0.78,1.28 -0.51,1.78c0.27,0.51 1.03,1.05 1.77,1.47c0.74,0.41 1.66,0.63 2.43,0.5" fill="#000000" fill-opacity="0" id="svg_33" stroke="#000000" stroke-dasharray="null" stroke-linecap="square" stroke-linejoin="null" stroke-opacity="null" stroke-width="0.2"/>
   <path d="m13.1,10.03c-0.19,0.12 -0.32,0.46 -0.17,0.77c0.15,0.31 0.84,0.86 1.24,0.99c0.4,0.13 1.14,0.46 1.54,0.35" fill="#000000" fill-opacity="0" id="svg_34" stroke="#000000" stroke-dasharray="null" stroke-linecap="square" stroke-linejoin="null" stroke-opacity="null" stroke-width="0.2"/>
   <path d="m14.29,9.88c1,-0.02 2.36,0.64 2.71,1.12c0.35,0.48 0.15,0.76 -0.2,0.89" fill="#000000" fill-opacity="0" id="svg_35" stroke="#000000" stroke-dasharray="null" stroke-linecap="square" stroke-linejoin="null" stroke-opacity="null" stroke-width="0.2"/>
   <path d="m13.8,8.89c0.74,-0.04 1.4,0.09 2.46,0.57c1.06,0.48 1.8,1.26 1.89,1.89c0.08,0.63 -0.43,1.26 -0.79,1.34" fill="#000000" fill-opacity="0" id="svg_36" stroke="#000000" stroke-dasharray="null" stroke-linecap="square" stroke-linejoin="null" stroke-opacity="null" stroke-width="0.2"/>
   <path d="m15.48,10.18c-0.22,1.03 0.37,2.23 0.77,2.81c0.4,0.58 1.19,1.31 1.74,1.49" fill="#000000" fill-opacity="0" id="svg_37" stroke="#000000" stroke-dasharray="null" stroke-linecap="square" stroke-linejoin="null" stroke-opacity="null" stroke-width="0.2"/>
   <path d="m16.43,10.63c-0.02,0.57 0.31,1.32 0.57,1.66c0.26,0.35 0.68,0.89 1.04,1.09" fill="#000000" fill-opacity="0" id="svg_38" stroke="#000000" stroke-dasharray="null" stroke-linecap="square" stroke-linejoin="null" stroke-opacity="null" stroke-width="0.2" transform="matrix(1, 0, 0, 1, 0, 0)"/>
   <path d="m19.16,13.86c0.46,0.02 0.57,-0.41 0.52,-0.82c-0.05,-0.41 -0.5,-1.18 -0.84,-1.59c-0.35,-0.41 -0.81,-0.84 -1.19,-1.04" fill="#000000" fill-opacity="0" id="svg_39" stroke="#000000" stroke-dasharray="null" stroke-linecap="square" stroke-linejoin="null" stroke-opacity="null" stroke-width="0.2"/>
   <path d="m16.23,9.39c1,-0.59 2.26,0.17 3.15,1.22c0.89,1.04 1.49,2.78 1.04,3.43c-0.45,0.65 -0.89,0.68 -1.44,0.65" fill="#000000" fill-opacity="0" id="svg_40" stroke="#000000" stroke-dasharray="null" stroke-linecap="square" stroke-linejoin="null" stroke-opacity="null" stroke-width="0.2"/>
   <path d="m19.51,12.81c-0.32,0.67 -0.67,1.38 -0.52,2.46c0.15,1.08 0.6,1.56 1.04,1.94" fill="#000000" fill-opacity="0" id="svg_41" stroke="#000000" stroke-dasharray="null" stroke-linecap="square" stroke-linejoin="null" stroke-opacity="null" stroke-width="0.2" transform="matrix(1, 0, 0, 1, 0, 0)"/>
   <path d="m19.06,12.02c-0.8,0.42 -1.1,1.99 -1.02,3.05c0.08,1.06 0.76,2.81 1.59,3.03" fill="#000000" fill-opacity="0" id="svg_42" stroke="#000000" stroke-dasharray="null" stroke-linecap="square" stroke-linejoin="null" stroke-opacity="null" stroke-width="0.2"/>
   <path d="m20.6,13.36c0.56,0.76 0.63,2.42 0.2,3.08" fill="#000000" fill-opacity="0" id="svg_44" stroke="#000000" stroke-dasharray="null" stroke-linecap="square" stroke-linejoin="null" stroke-opacity="null" stroke-width="0.2"/>
   <path d="m20.3,11.92c1.02,0.26 1.58,1.76 1.71,2.81c0.13,1.04 -0.18,2.58 -0.99,3.13" fill="#000000" fill-opacity="0" id="svg_45" stroke="#000000" stroke-dasharray="null" stroke-linecap="square" stroke-linejoin="null" stroke-opacity="null" stroke-width="0.2"/>
   <path d="m17.07,19.17c0.95,0.07 1.85,-0.25 2.51,-0.92c0.65,-0.67 0.86,-1.42 0.05,-1.49" fill="#000000" fill-opacity="0" id="svg_46" stroke="#000000" stroke-dasharray="null" stroke-linecap="square" stroke-linejoin="null" stroke-opacity="null" stroke-width="0.2"/>
   <path d="m19.16,15.84c0.79,-0.11 1.23,0.06 1.76,0.92c0.53,0.86 -0.43,1.92 -1.09,2.53c-0.66,0.61 -1.97,1.06 -3.13,0.84" fill="#000000" fill-opacity="0" id="svg_47" stroke="#000000" stroke-dasharray="null" stroke-linecap="square" stroke-linejoin="null" stroke-opacity="null" stroke-width="0.2"/>
   <path d="m16.08,18.87c-0.37,-0.14 -0.52,-0.46 0.27,-1.02c0.79,-0.56 1.19,-0.73 2.14,-0.99" fill="#000000" fill-opacity="0" id="svg_48" stroke="#000000" stroke-dasharray="null" stroke-linecap="square" stroke-linejoin="null" stroke-opacity="null" stroke-width="0.2"/>
   <path d="m18.07,15.94c-0.8,0.16 -1.7,0.61 -2.26,1.07c-0.55,0.46 -1.08,1.24 -0.99,1.84c0.08,0.6 0.45,0.86 0.79,1.04" fill="#000000" fill-opacity="0" id="svg_49" stroke="#000000" stroke-dasharray="null" stroke-linecap="square" stroke-linejoin="null" stroke-opacity="null" stroke-width="0.2"/>
   <path d="m15.98,18.47c0.36,0.22 0.02,1.18 -0.52,1.96c-0.55,0.78 -1.49,1.61 -2.14,1.29c-0.65,-0.31 -0.41,-1.27 -0.05,-1.84" fill="#000000" fill-opacity="0" id="svg_50" stroke="#000000" stroke-dasharray="null" stroke-linecap="square" stroke-linejoin="null" stroke-opacity="null" stroke-width="0.2"/>
   <path d="m14.14,18.97c0.31,-0.31 0.23,-0.28 0.6,-0.45" fill="none" fill-opacity="0" id="svg_51" stroke="#000000" stroke-dasharray="null" stroke-linecap="square" stroke-linejoin="null" stroke-opacity="null" stroke-width="0.2"/>
   <path d="m13.75,18.03c0.48,-0.41 1.06,-0.88 1.79,-0.84" fill="none" fill-opacity="0" id="svg_52" stroke="#000000" stroke-dasharray="null" stroke-linecap="square" stroke-linejoin="null" stroke-opacity="null" stroke-width="0.2"/>
   <path d="m12.95,18.87c-0.74,0.75 -1.51,3 -0.42,3.65c1.09,0.65 2.43,0.05 3.38,-1.14c0.94,-1.19 1.59,-3.23 0.84,-3.72" fill="none" fill-opacity="0" id="svg_53" stroke="#000000" stroke-dasharray="null" stroke-linecap="square" stroke-linejoin="null" stroke-opacity="null" stroke-width="0.2"/>
   <path d="m13,21.01c0.52,-0.55 0.4,-1.7 -0.27,-2.66c-0.67,-0.95 -1.29,-1.41 -1.69,-1.34c-0.4,0.07 -0.55,0.6 -0.45,0.94" fill="none" fill-opacity="0" id="svg_54" stroke="#000000" stroke-dasharray="null" stroke-linecap="square" stroke-linejoin="null" stroke-opacity="null" stroke-width="0.2"/>
   <path d="m13.85,21.7c0.75,-1.07 0.41,-3.03 -0.52,-4.29c-0.94,-1.27 -2.18,-1.62 -2.93,-1.19c-0.74,0.43 -0.86,1.64 -0.6,2.48" fill="none" fill-opacity="0" id="svg_55" stroke="#000000" stroke-dasharray="null" stroke-linecap="square" stroke-linejoin="null" stroke-opacity="null" stroke-width="0.2"/>
   <path d="m10.92,19.17c0.28,0.66 0.61,1.13 1.04,1.54" fill="none" fill-opacity="0" id="svg_56" stroke="#000000" stroke-dasharray="null" stroke-linecap="square" stroke-linejoin="null" stroke-opacity="null" stroke-width="0.2"/>
   <path d="m10.17,19.76c0.35,0.94 0.94,1.79 1.84,2.14" fill="none" fill-opacity="0" id="svg_57" stroke="#000000" stroke-dasharray="null" stroke-linecap="square" stroke-linejoin="null" stroke-opacity="null" stroke-width="0.2"/>
   <path d="m10.92,17.13c0.17,0.49 -0.74,1.62 -1.61,1.96c-0.87,0.34 -2.85,0.56 -2.38,-0.45" fill="none" fill-opacity="0" id="svg_59" stroke="#000000" stroke-dasharray="null" stroke-linecap="square" stroke-linejoin="null" stroke-opacity="null" stroke-width="0.2" transform="matrix(1, 0, 0, 1, 0, 0)"/>
   <path d="m6.1,18.37c-0.39,0.69 -0.12,1.55 0.87,1.86c0.99,0.31 2.14,0.08 3.08,-0.5c0.94,-0.58 1.64,-1.16 1.84,-2.23" fill="none" fill-opacity="0" id="svg_60" stroke="#000000" stroke-dasharray="null" stroke-linecap="square" stroke-linejoin="null" stroke-opacity="null" stroke-width="0.2"/>
   <path d="m9.87,16.73c-0.81,0.02 -1.62,0.53 -2.04,0.99" fill="none" fill-opacity="0" id="svg_62" stroke="#000000" stroke-dasharray="null" stroke-linecap="square" stroke-linejoin="null" stroke-opacity="null" stroke-width="0.2"/>
   <path d="m11.46,16.04c-0.61,-0.88 -3.86,-0.12 -4.62,1.19" fill="none" fill-opacity="0" id="svg_63" stroke="#000000" stroke-dasharray="null" stroke-linecap="square" stroke-linejoin="null" stroke-opacity="null" stroke-width="0.2"/>
   <path d="m7.09,19.12c0.08,-1.52 -1.69,-0.74 -2.29,0.11c-0.6,0.85 -1.26,2.05 -0.62,2.55c0.65,0.5 1.79,-0.55 2.48,-1.54" fill="none" fill-opacity="0" id="svg_64" stroke="#000000" stroke-dasharray="null" stroke-linecap="square" stroke-linejoin="null" stroke-opacity="null" stroke-width="0.2"/>
   <path d="m7.99,19.27c0.46,-2.65 -2.33,-2.33 -3.5,-1.02c-1.18,1.31 -2.05,3.66 -1.04,4.37c1.01,0.71 3.18,-0.1 4.02,-2.14" fill="none" fill-opacity="0" id="svg_65" stroke="#000000" stroke-dasharray="null" stroke-linecap="square" stroke-linejoin="null" stroke-opacity="null" stroke-width="0.2"/>
  </g>
 </g>
</svg>