<?xml version="1.0"?>
<svg viewBox="0 0 25 25" xmlns="http://www.w3.org/2000/svg" xmlns:svg="http://www.w3.org/2000/svg">
 <!-- Created with SVG-edit - https://github.com/SVG-Edit/svgedit-->
 <!-- Created by Aleksy Slizewski --> <g class="layer">
  <title>clover</title>
  <path d="m12,17c0.13,2.14 -1.59,6.01 -3,7l3,0c1.28,-2.28 1.33,-4.76 1,-7l-1,0z" fill="#008000" id="svg_14" stroke="#000000" stroke-dasharray="null" stroke-linecap="round" stroke-linejoin="round" stroke-width="0.2"/>
  <path d="m3,7c0,-2.76 2.24,-5 5,-5c2.76,0 6,4.24 6,7c0,2.76 -1.24,4 -4,4c-2.76,0 -7,-3.24 -7,-6z" fill="#ffff56" fill-opacity="0" id="svg_1" stroke="#000000" stroke-dasharray="null" stroke-linecap="round" stroke-linejoin="round" stroke-opacity="null" stroke-width="0.2"/>
  <path d="m11,9c0,-2.76 3.24,-7 6,-7c2.76,0 5,2.24 5,5c0,2.76 -4.24,6 -7,6c-2.76,0 -4,-1.24 -4,-4z" fill="#ffff56" fill-opacity="0" id="svg_2" stroke="#000000" stroke-dasharray="null" stroke-linecap="round" stroke-linejoin="round" stroke-opacity="null" stroke-width="0.2"/>
  <path d="m3,16c0,-2.76 4.24,-6 7,-6c2.76,0 4,1.24 4,4c0,2.76 -3.24,7 -6,7c-2.76,0 -5,-2.24 -5,-5z" fill="#ffff56" fill-opacity="0" id="svg_3" stroke="#000000" stroke-dasharray="null" stroke-linecap="round" stroke-linejoin="round" stroke-opacity="null" stroke-width="0.2"/>
  <path d="m11,14c0,-2.76 1.24,-4 4,-4c2.76,0 7,3.24 7,6c0,2.76 -2.24,5 -5,5c-2.76,0 -6,-4.24 -6,-7z" fill="#ffff56" fill-opacity="0" id="svg_4" stroke="#000000" stroke-dasharray="null" stroke-linecap="round" stroke-linejoin="round" stroke-opacity="null" stroke-width="0.2"/>
  <path d="m3,7c0,-2.76 2.24,-5 5,-5c2.76,0 6,4.24 6,7c0,2.76 -1.24,4 -4,4c-2.76,0 -7,-3.24 -7,-6z" fill="#008000" id="svg_5" stroke-dasharray="null" stroke-linecap="round" stroke-linejoin="round" stroke-opacity="null" stroke-width="0.2" transform="matrix(1, 0, 0, 1, 0, 0)"/>
  <path d="m11,9c0,-2.76 3.24,-7 6,-7c2.76,0 5,2.24 5,5c0,2.76 -4.24,6 -7,6c-2.76,0 -4,-1.24 -4,-4z" fill="#008000" id="svg_6" stroke-dasharray="null" stroke-linecap="round" stroke-linejoin="round" stroke-opacity="null" stroke-width="0.2" transform="matrix(1, 0, 0, 1, 0, 0)"/>
  <path d="m3,16c0,-2.76 4.24,-6 7,-6c2.76,0 4,1.24 4,4c0,2.76 -3.24,7 -6,7c-2.76,0 -5,-2.24 -5,-5z" fill="#008000" id="svg_7" stroke-dasharray="null" stroke-linecap="round" stroke-linejoin="round" stroke-opacity="null" stroke-width="0.2" transform="matrix(1, 0, 0, 1, 0, 0)"/>
  <path d="m18.25,18.45l-4.49,-5.54l4.49,5.54z" fill="#32cd32" id="svg_9" stroke-dasharray="null" stroke-linecap="round" stroke-linejoin="round" stroke-opacity="null" stroke-width="0.2"/>
  <path d="m11,14c0,-2.76 1.24,-4 4,-4c2.76,0 7,3.24 7,6c0,2.76 -2.24,5 -5,5c-2.76,0 -6,-4.24 -6,-7z" fill="#008000" id="svg_8" stroke-dasharray="null" stroke-linecap="round" stroke-linejoin="round" stroke-opacity="null" stroke-width="0.2" transform="matrix(1, 0, 0, 1, 0, 0)"/>
  <line fill="none" id="svg_10" stroke="#32cd32" stroke-dasharray="null" stroke-linecap="round" stroke-linejoin="round" stroke-width="0.5" transform="matrix(1, 0, 0, 1, 0, 0)" x1="15" x2="20" y1="13" y2="19"/>
  <line fill="none" id="svg_11" stroke="#32cd32" stroke-dasharray="null" stroke-linecap="round" stroke-linejoin="round" stroke-width="0.5" x1="5" x2="10" y1="19" y2="13"/>
  <line fill="none" id="svg_12" stroke="#32cd32" stroke-dasharray="null" stroke-linecap="round" stroke-linejoin="round" stroke-width="0.5" transform="matrix(1, 0, 0, 1, 0, 0)" x1="15" x2="20" y1="9" y2="4"/>
  <line fill="none" id="svg_13" stroke="#32cd32" stroke-dasharray="null" stroke-linecap="round" stroke-linejoin="round" stroke-width="0.5" x1="5" x2="10" y1="4" y2="9"/>
  <path d="m12,17c0.13,2.14 -1.59,6.01 -3,7l3,0c1.28,-2.28 1.33,-4.76 1,-7l-1,0z" fill="#008000" id="svg_15" stroke="#000000" stroke-dasharray="null" stroke-linecap="round" stroke-linejoin="round" stroke-opacity="0" stroke-width="0.1"/>
 </g>
</svg>