<?xml version="1.0"?>
<svg viewBox="0 0 25 25" xmlns="http://www.w3.org/2000/svg" xmlns:svg="http://www.w3.org/2000/svg">
 <!-- Created with SVG-edit - https://github.com/SVG-Edit/svgedit-->
 <!-- Created by Aleksy Slizewski --> <g class="layer">
  <title>cobweb</title>
  <path d="m5.95,5.95c-0.5,1.08 0.1,1.13 -1,3.5c-1.1,2.37 -1.5,1.92 -2,3c0.5,1.08 1.05,0.87 2,3c0.95,2.13 0.5,2.42 1,3.5c1.08,0.5 1.37,0 3.5,1c2.13,1 1.92,1.5 3,2c1.08,-0.5 0.77,-1 3,-2c2.23,-1 2.42,-0.5 3.5,-1c0.5,-1.08 -0.05,-1.37 1,-3.5c1.05,-2.13 1.5,-1.92 2,-3c-0.5,-1.08 -1,-0.73 -2,-3c-1,-2.27 -0.5,-2.42 -1,-3.5c-1.08,-0.5 -1.87,-0.35 -3.5,-1.25c-1.63,-0.9 -1.92,-1.25 -3,-1.75c-1.08,0.5 -0.87,0.8 -3,1.75c-2.13,0.95 -2.42,0.75 -3.5,1.25z" fill="#000000" fill-opacity="0" id="svg_1" stroke="#b2b2b2" stroke-dasharray="null" stroke-linecap="null" stroke-linejoin="null" stroke-width="0.2"/>
  <path d="m9.35,9.35c-0.25,0.54 0.05,0.56 -0.5,1.75c-0.55,1.19 -0.75,0.96 -1,1.5c0.25,0.54 0.53,0.43 1,1.5c0.47,1.06 0.25,1.21 0.5,1.75c0.54,0.25 0.69,0 1.75,0.5c1.07,0.5 0.96,0.75 1.5,1c0.54,-0.25 0.38,-0.5 1.5,-1c1.12,-0.5 1.21,-0.25 1.75,-0.5c0.25,-0.54 -0.02,-0.69 0.5,-1.75c0.52,-1.07 0.75,-0.96 1,-1.5c-0.25,-0.54 -0.5,-0.37 -1,-1.5c-0.5,-1.13 -0.25,-1.21 -0.5,-1.75c-0.54,-0.25 -0.94,-0.18 -1.75,-0.63c-0.81,-0.45 -0.96,-0.63 -1.5,-0.88c-0.54,0.25 -0.43,0.4 -1.5,0.88c-1.06,0.47 -1.21,0.38 -1.75,0.63z" fill="#000000" fill-opacity="0" id="svg_5" stroke="#b2b2b2" stroke-dasharray="null" stroke-linecap="null" stroke-linejoin="null" stroke-width="0.2" transform="matrix(1, 0, 0, 1, 0, 0)"/>
  <path d="m7.95,7.95c-0.35,0.76 0.07,0.79 -0.7,2.45c-0.77,1.66 -1.05,1.34 -1.4,2.1c0.35,0.76 0.73,0.61 1.4,2.1c0.66,1.49 0.35,1.69 0.7,2.45c0.76,0.35 0.96,0 2.45,0.7c1.49,0.7 1.34,1.05 2.1,1.4c0.76,-0.35 0.54,-0.7 2.1,-1.4c1.56,-0.7 1.69,-0.35 2.45,-0.7c0.35,-0.76 -0.03,-0.96 0.7,-2.45c0.73,-1.49 1.05,-1.34 1.4,-2.1c-0.35,-0.76 -0.7,-0.51 -1.4,-2.1c-0.7,-1.59 -0.35,-1.69 -0.7,-2.45c-0.76,-0.35 -1.31,-0.24 -2.45,-0.87c-1.14,-0.63 -1.34,-0.87 -2.1,-1.22c-0.76,0.35 -0.61,0.56 -2.1,1.22c-1.49,0.66 -1.69,0.52 -2.45,0.87z" fill="#000000" fill-opacity="0" id="svg_3" stroke="#b2b2b2" stroke-dasharray="null" stroke-linecap="null" stroke-linejoin="null" stroke-width="0.2"/>
  <path d="m6.9,6.9c-0.43,0.92 0.09,0.96 -0.85,2.98c-0.94,2.01 -1.28,1.63 -1.7,2.55c0.43,0.92 0.89,0.74 1.7,2.55c0.81,1.81 0.43,2.06 0.85,2.98c0.92,0.43 1.16,0 2.98,0.85c1.81,0.85 1.63,1.28 2.55,1.7c0.92,-0.43 0.65,-0.85 2.55,-1.7c1.9,-0.85 2.06,-0.43 2.98,-0.85c0.43,-0.92 -0.04,-1.16 0.85,-2.98c0.89,-1.81 1.28,-1.63 1.7,-2.55c-0.43,-0.92 -0.85,-0.62 -1.7,-2.55c-0.85,-1.93 -0.43,-2.06 -0.85,-2.98c-0.92,-0.43 -1.59,-0.3 -2.98,-1.06c-1.39,-0.77 -1.63,-1.06 -2.55,-1.49c-0.92,0.43 -0.74,0.68 -2.55,1.49c-1.81,0.81 -2.06,0.64 -2.98,1.06z" fill="#000000" fill-opacity="0" id="svg_2" stroke="#b2b2b2" stroke-dasharray="null" stroke-linecap="null" stroke-linejoin="null" stroke-width="0.2" transform="matrix(1, 0, 0, 1, 0, 0)"/>
  <path d="m8.65,8.65c-0.3,0.65 0.06,0.68 -0.6,2.1c-0.66,1.42 -0.9,1.15 -1.2,1.8c0.3,0.65 0.63,0.52 1.2,1.8c0.57,1.28 0.3,1.45 0.6,2.1c0.65,0.3 0.82,0 2.1,0.6c1.28,0.6 1.15,0.9 1.8,1.2c0.65,-0.3 0.46,-0.6 1.8,-1.2c1.34,-0.6 1.45,-0.3 2.1,-0.6c0.3,-0.65 -0.03,-0.82 0.6,-2.1c0.63,-1.28 0.9,-1.15 1.2,-1.8c-0.3,-0.65 -0.6,-0.44 -1.2,-1.8c-0.6,-1.36 -0.3,-1.45 -0.6,-2.1c-0.65,-0.3 -1.12,-0.21 -2.1,-0.75c-0.98,-0.54 -1.15,-0.75 -1.8,-1.05c-0.65,0.3 -0.52,0.48 -1.8,1.05c-1.28,0.57 -1.45,0.45 -2.1,0.75z" fill="#000000" fill-opacity="0" id="svg_4" stroke="#b2b2b2" stroke-dasharray="null" stroke-linecap="null" stroke-linejoin="null" stroke-width="0.2" transform="matrix(1, 0, 0, 1, 0, 0)"/>
  <line fill="none" fill-opacity="0" id="svg_6" stroke="#b2b2b2" stroke-dasharray="null" stroke-linecap="null" stroke-linejoin="null" stroke-opacity="null" stroke-width="0.2" x1="1" x2="24" y1="12.5" y2="12.5"/>
  <line fill="none" fill-opacity="0" id="svg_7" stroke="#b2b2b2" stroke-dasharray="null" stroke-linecap="null" stroke-linejoin="null" stroke-opacity="null" stroke-width="0.2" x1="12.5" x2="12.5" y1="1" y2="24"/>
  <line fill="none" fill-opacity="0" id="svg_8" stroke="#b2b2b2" stroke-dasharray="null" stroke-linecap="null" stroke-linejoin="null" stroke-opacity="null" stroke-width="0.2" x1="22" x2="3" y1="3" y2="22"/>
  <line fill="none" fill-opacity="0" id="svg_9" stroke="#b2b2b2" stroke-dasharray="null" stroke-linecap="null" stroke-linejoin="null" stroke-opacity="null" stroke-width="0.2" transform="matrix(1, 0, 0, 1, 0, 0)" x1="22" x2="3" y1="22" y2="3"/>
 </g>
</svg>