<?xml version="1.0"?>
<svg id="symbol" viewBox="0 0 25 25" xmlns="http://www.w3.org/2000/svg" xmlns:svg="http://www.w3.org/2000/svg">
 <!-- Created with SVG-edit - https://github.com/SVG-Edit/svgedit-->
 <!-- Created by Aleksy Slizewski -->
 <g class="layer">
  <title>compass</title>
  <rect fill="#ffd700" fill-opacity="null" height="1" id="svg_6" stroke="#000000" stroke-dasharray="null" stroke-linecap="round" stroke-linejoin="round" stroke-opacity="null" stroke-width="0.2" transform="matrix(1, 0, 0, 1, 0, 0)" width="3" x="11" y="4.25"/>
  <circle cx="12.5" cy="14" fill="#ffd700" id="svg_1" r="9" stroke="#000000" stroke-dasharray="null" stroke-linecap="round" stroke-linejoin="round" stroke-opacity="null" stroke-width="0.2" transform="matrix(1, 0, 0, 1, 0, 0)"/>
  <circle cx="12.5" cy="14" fill="#ffffff" id="svg_2" r="8" stroke="#000000" stroke-dasharray="null" stroke-linecap="round" stroke-linejoin="round" stroke-width="0.2" transform="matrix(1, 0, 0, 1, 0, 0)"/>
  <circle cx="12.5" cy="3" fill="#000000" fill-opacity="0" id="svg_3" r="1" stroke="#ffd700" stroke-dasharray="null" stroke-linecap="round" stroke-linejoin="round" stroke-width="0.5" transform="matrix(1, 0, 0, 1, 0, 0)"/>
  <circle cx="12.5" cy="3" fill="#000000" fill-opacity="0" id="svg_4" r="1.35" stroke="#000000" stroke-dasharray="null" stroke-linecap="round" stroke-linejoin="round" stroke-width="0.2" transform="matrix(1, 0, 0, 1, 0, 0)"/>
  <circle cx="12.5" cy="3" fill="#000000" fill-opacity="0" id="svg_5" r="0.75" stroke="#000000" stroke-dasharray="null" stroke-linecap="round" stroke-linejoin="round" stroke-width="0.2" transform="matrix(1, 0, 0, 1, 0, 0)"/>
  <path d="m12.5,8l-1,4l2,4l-1,4l0,-12z" fill="#ffffff" id="svg_7" stroke="#000000" stroke-dasharray="null" stroke-linecap="round" stroke-linejoin="round" stroke-opacity="null" stroke-width="0.2" transform="matrix(1, 0, 0, 1, 0, 0)"/>
  <path d="m6,14l4,1l5,-2l4,1l-13,0z" fill="#ffffff" fill-opacity="null" id="svg_8" stroke="#000000" stroke-dasharray="null" stroke-linecap="round" stroke-linejoin="round" stroke-opacity="null" stroke-width="0.2"/>
  <path d="m6,14l4,-1l5,2l4,-1l-13,0z" fill="#191919" id="svg_9" stroke="#000000" stroke-dasharray="null" stroke-linecap="round" stroke-linejoin="round" stroke-opacity="null" stroke-width="0.2" transform="matrix(1, 0, 0, 1, 0, 0)"/>
  <path d="m12.5,8l1,4l-2,4l1,4l0,-12z" fill="#191919" id="svg_10" stroke="#000000" stroke-dasharray="null" stroke-linecap="round" stroke-linejoin="round" stroke-opacity="null" stroke-width="0.2" transform="matrix(1, 0, 0, 1, 0, 0)"/>
  <path d="m9,17l1,-2l5,-2l1,-2l-7,6z" fill="#191919" id="svg_11" stroke="#000000" stroke-dasharray="null" stroke-linecap="round" stroke-linejoin="round" stroke-width="0.2" transform="matrix(1, 0, 0, 1, 0, 0)"/>
  <path d="m9,17l2.5,-1l2,-4l2.5,-1l-7,6z" fill="#ffffff" id="svg_12" stroke="#000000" stroke-dasharray="null" stroke-linecap="round" stroke-linejoin="round" stroke-width="0.2" transform="matrix(1, 0, 0, 1, 0, 0)"/>
  <path d="m9,11l1,2l5,2l1,2l-7,-6z" fill="#ffffff" fill-opacity="null" id="svg_13" stroke="#000000" stroke-dasharray="null" stroke-linecap="round" stroke-linejoin="round" stroke-opacity="null" stroke-width="0.2" transform="matrix(1, 0, 0, 1, 0, 0)"/>
  <path d="m9,11l2.5,1l2,4l2.5,1l-7,-6z" fill="#191919" id="svg_14" stroke="#000000" stroke-dasharray="null" stroke-linecap="round" stroke-linejoin="round" stroke-opacity="null" stroke-width="0.2" transform="matrix(1, 0, 0, 1, 0, 0)"/>
  <path d="m15,7l-3.05,6.9c0.18,-0.79 1.11,-0.55 1.15,0.15l1.9,-7.05z" fill="#ff0000" id="svg_15" stroke="#000000" stroke-dasharray="null" stroke-linecap="round" stroke-linejoin="round" stroke-opacity="null" stroke-width="0.2" transform="matrix(1, 0, 0, 1, 0, 0)"/>
  <path d="m10,21l1.9,-7.05c0.23,0.6 0.57,0.89 1.25,0.15l-3.15,6.9z" fill="#0000ff" id="svg_16" stroke="#000000" stroke-dasharray="null" stroke-linecap="round" stroke-linejoin="round" stroke-opacity="null" stroke-width="0.2" transform="matrix(1, 0, 0, 1, 0, 0)"/>
 </g>
</svg>