<?xml version="1.0"?>
<svg id="symbol" viewBox="0 0 25 25" xmlns="http://www.w3.org/2000/svg" xmlns:svg="http://www.w3.org/2000/svg">
 <!-- Created with SVG-edit - https://github.com/SVG-Edit/svgedit-->
 <!-- Created by Aleksy Slizewski -->
 <g class="layer">
  <title>dice</title>
  <g id="svg_47">
   <rect fill="#e2e2e2" height="5.95" id="svg_8" stroke="#000000" stroke-dasharray="null" stroke-linecap="null" stroke-linejoin="round" stroke-width="0.2" width="5.95" x="13.6" y="12.09"/>
   <rect fill="#e2e2e2" fill-opacity="null" height="5.95" id="svg_49" stroke="#000000" stroke-dasharray="null" stroke-linecap="null" stroke-linejoin="round" stroke-width="0.2" width="5.5" x="7.85" y="7.2"/>
   <path d="m11.3,9.66l0,5.94l2.3,2.45l0,-6l-2.3,-2.39z" fill="#e2e2e2" fill-opacity="null" id="svg_52" stroke="#000000" stroke-dasharray="null" stroke-linecap="null" stroke-linejoin="round" stroke-width="0.2" transform="matrix(1, 0, 0, 1, 0, 0)"/>
   <path d="m11.35,9.62l2.25,2.43l5.93,-0.05l-2.36,-2.36l-5.81,-0.02l-0.01,0z" fill="#e2e2e2" fill-opacity="null" id="svg_54" stroke="#000000" stroke-dasharray="null" stroke-linecap="null" stroke-linejoin="round" stroke-opacity="null" stroke-width="0.2" transform="matrix(1, 0, 0, 1, 0, 0)"/>
   <path d="m5.5,5l2.3,2.2l5.55,0l-2.5,-2.2l-5.35,0z" fill="#e2e2e2" fill-opacity="null" id="svg_51" stroke="#000000" stroke-dasharray="null" stroke-linecap="null" stroke-linejoin="round" stroke-opacity="null" stroke-width="0.2"/>
   <path d="m5.5,10.75l2.35,2.4l-0.05,-5.95l-2.3,-2.2l0,5.75z" fill="#e2e2e2" fill-opacity="null" id="svg_48" stroke="#000000" stroke-dasharray="null" stroke-linecap="null" stroke-linejoin="round" stroke-width="0.2" transform="matrix(1, 0, 0, 1, 0, 0)"/>
   <circle cx="16.57" cy="15.01" fill="#ff0000" id="svg_24" r="0.59" stroke="#000000" stroke-dasharray="null" stroke-linecap="null" stroke-linejoin="null" stroke-opacity="0.1" stroke-width="0.2"/>
   <circle cx="9.29" cy="8.37" fill="#0000ff" fill-opacity="null" id="svg_27" r="0.58" stroke="#000000" stroke-dasharray="null" stroke-linecap="null" stroke-linejoin="null" stroke-opacity="0.1" stroke-width="0.2"/>
   <circle cx="9.29" cy="10.18" fill="#0000ff" fill-opacity="null" id="svg_28" r="0.58" stroke="#000000" stroke-dasharray="null" stroke-linecap="null" stroke-linejoin="null" stroke-opacity="0.1" stroke-width="0.2"/>
   <circle cx="9.29" cy="11.99" fill="#0000ff" fill-opacity="null" id="svg_29" r="0.58" stroke="#000000" stroke-dasharray="null" stroke-linecap="null" stroke-linejoin="null" stroke-opacity="0.1" stroke-width="0.2"/>
   <circle cx="12.2" cy="8.37" fill="#0000ff" fill-opacity="null" id="svg_30" r="0.58" stroke="#000000" stroke-dasharray="null" stroke-linecap="null" stroke-linejoin="null" stroke-opacity="0.1" stroke-width="0.2"/>
   <ellipse cx="6.14" cy="6.8" fill="#0000ff" fill-opacity="null" id="svg_31" rx="0.35" ry="0.65" stroke="#000000" stroke-dasharray="null" stroke-linecap="null" stroke-linejoin="null" stroke-opacity="0.1" stroke-width="0.2"/>
   <ellipse cx="7.19" cy="11.09" fill="#0000ff" fill-opacity="null" id="svg_32" rx="0.35" ry="0.65" stroke="#000000" stroke-dasharray="null" stroke-linecap="null" stroke-linejoin="null" stroke-opacity="0.1" stroke-width="0.2"/>
   <ellipse cx="11.97" cy="11.69" fill="#0000ff" fill-opacity="null" id="svg_33" rx="0.35" ry="0.65" stroke="#000000" stroke-dasharray="null" stroke-linecap="null" stroke-linejoin="null" stroke-opacity="0.1" stroke-width="0.2"/>
   <ellipse cx="11.97" cy="15.07" fill="#0000ff" fill-opacity="null" id="svg_34" rx="0.35" ry="0.65" stroke="#000000" stroke-dasharray="null" stroke-linecap="null" stroke-linejoin="null" stroke-opacity="0.1" stroke-width="0.2"/>
   <ellipse cx="13.02" cy="12.9" fill="#0000ff" fill-opacity="null" id="svg_35" rx="0.35" ry="0.65" stroke="#000000" stroke-dasharray="null" stroke-linecap="null" stroke-linejoin="null" stroke-opacity="0.1" stroke-width="0.2"/>
   <ellipse cx="11.97" cy="11.69" fill="#0000ff" fill-opacity="null" id="svg_36" rx="0.35" ry="0.65" stroke="#000000" stroke-dasharray="null" stroke-linecap="null" stroke-linejoin="null" stroke-opacity="0.1" stroke-width="0.2"/>
   <ellipse cx="13.02" cy="16.22" fill="#0000ff" fill-opacity="null" id="svg_37" rx="0.35" ry="0.65" stroke="#000000" stroke-dasharray="null" stroke-linecap="null" stroke-linejoin="null" stroke-opacity="0.1" stroke-width="0.2"/>
   <ellipse cx="12.49" cy="13.98" fill="#ff0000" id="svg_38" rx="0.29" ry="0.54" stroke="#000000" stroke-dasharray="null" stroke-linecap="null" stroke-linejoin="null" stroke-opacity="0.1" stroke-width="0.2"/>
   <ellipse cx="10" cy="5.55" fill="#0000ff" id="svg_40" rx="0.52" ry="0.36" stroke="#000000" stroke-dasharray="null" stroke-linecap="null" stroke-linejoin="null" stroke-opacity="0.1" stroke-width="0.2" transform="matrix(1, 0, 0, 1, 0, 0)"/>
   <ellipse cx="8.75" cy="6.45" fill="#0000ff" id="svg_41" rx="0.52" ry="0.36" stroke="#000000" stroke-dasharray="null" stroke-linecap="null" stroke-linejoin="null" stroke-opacity="0.1" stroke-width="0.2"/>
   <ellipse cx="7.65" cy="5.55" fill="#0000ff" id="svg_42" rx="0.52" ry="0.36" stroke="#000000" stroke-dasharray="null" stroke-linecap="null" stroke-linejoin="null" stroke-opacity="0.1" stroke-width="0.2"/>
   <ellipse cx="11.25" cy="6.45" fill="#0000ff" id="svg_43" rx="0.52" ry="0.36" stroke="#000000" stroke-dasharray="null" stroke-linecap="null" stroke-linejoin="null" stroke-opacity="0.1" stroke-width="0.2" transform="matrix(1, 0, 0, 1, 0, 0)"/>
   <ellipse cx="16.63" cy="10.18" fill="#0000ff" id="svg_44" rx="0.52" ry="0.36" stroke="#000000" stroke-dasharray="null" stroke-linecap="null" stroke-linejoin="null" stroke-opacity="0.1" stroke-width="0.2"/>
   <ellipse cx="14.24" cy="11.33" fill="#0000ff" id="svg_45" rx="0.52" ry="0.36" stroke="#000000" stroke-dasharray="null" stroke-linecap="null" stroke-linejoin="null" stroke-opacity="0.1" stroke-width="0.2"/>
   <ellipse cx="15.47" cy="10.78" fill="#ff0000" id="svg_46" rx="0.52" ry="0.36" stroke="#000000" stroke-dasharray="null" stroke-linecap="null" stroke-linejoin="null" stroke-opacity="0.1" stroke-width="0.2"/>
  </g>
 </g>
</svg>