<?xml version="1.0"?>
<svg viewBox="0 0 25 25" xmlns="http://www.w3.org/2000/svg" xmlns:svg="http://www.w3.org/2000/svg">
 <!-- Created with SVG-edit - https://github.com/SVG-Edit/svgedit-->
 <!-- Created by Aleksy Slizewski --> <g class="layer">
  <title>fire</title>
  <path d="m5,6c-1.84,1.2 -2.33,5.37 -2,8c0.33,2.63 1.54,9.07 9.5,9c7.96,-0.07 9.49,-5.95 9.5,-9c0.01,-3.05 -1.45,-7.76 -2,-9l0,0c0.02,3.33 -2.3,7.46 -2,5c0.3,-2.46 -3.52,-7.38 -6,-9l0,0c0.23,2.63 2.58,5.86 2,7c-0.58,1.14 -1.77,2.25 -2,2c-0.23,-0.25 -1.22,-2.06 -2,-3c-0.78,-0.94 0.19,-5.43 -1,-4c-1.19,1.43 -2.43,3.74 -2,5c0.43,1.26 -0.44,3.18 -1,3c-0.56,-0.18 -1.03,-2.43 -1,-5l0,0z" fill="#ff4500" id="svg_1" stroke="#ff0000" stroke-dasharray="null" stroke-linecap="round" stroke-linejoin="round" stroke-width="0.2"/>
  <path d="m5,17l0,0c0.93,2.22 3.16,4.12 7.5,4c4.34,-0.12 6.84,-2.39 7.5,-4c0.66,-1.61 0.76,-6.71 0,-5c-0.76,1.71 -3.17,4.61 -3,4c0.17,-0.61 -2.03,-6.63 -2,-5c0.03,1.63 -2.09,4.33 -3,4c-0.91,-0.33 -3.18,-5.74 -3,-4c0.18,1.74 -0.17,3.72 -1,4c-0.83,0.28 -2.29,-1.21 -3,-2c-0.71,-0.79 -0.37,2.93 0,4z" fill="#ff8c00" id="svg_3" stroke="#ff6a00" stroke-dasharray="null" stroke-linecap="round" stroke-linejoin="round" stroke-width="0.2"/>
 </g>
</svg>