<?xml version="1.0"?>
<svg viewBox="0 0 25 25" xmlns="http://www.w3.org/2000/svg" xmlns:svg="http://www.w3.org/2000/svg">
 <!-- Created with SVG-edit - https://github.com/SVG-Edit/svgedit-->
 <!-- Created by Aleksy Slizewski --> <g class="layer">
  <title>flower</title>
  <ellipse cx="12.5" cy="12.5" fill="#ffd700" id="svg_1" rx="2" ry="2" stroke="#000000" stroke-dasharray="null" stroke-linecap="null" stroke-linejoin="null" stroke-opacity="null" stroke-width="0.15" transform="matrix(1, 0, 0, 1, 0, 0)"/>
  <path d="m0.5,12.5c0,-0.61 2.24,-2 5,-2c2.76,0 5,0.9 5,2c0,1.1 -2.24,2 -5,2c-2.76,0 -5,-1.39 -5,-2z" fill="#ff69b4" fill-opacity="null" id="svg_2" stroke="#000000" stroke-dasharray="null" stroke-linecap="null" stroke-linejoin="null" stroke-opacity="null" stroke-width="0.15" transform="matrix(1, 0, 0, 1, 0, 0)"/>
  <path d="m14.5,12.5c0,-1.1 2.24,-2 5,-2c2.76,0 5,1.34 5,2c0,0.66 -2.24,2 -5,2c-2.76,0 -5,-0.9 -5,-2z" fill="#ff69b4" fill-opacity="null" id="svg_3" stroke="#000000" stroke-dasharray="null" stroke-linecap="null" stroke-linejoin="null" stroke-opacity="null" stroke-width="0.15"/>
  <g id="svg_5">
   <path d="m7.6,5.46c-0.05,-0.66 2.24,-2 5,-2c2.76,0 5,0.9 5,2c0,1.1 -2.24,2 -5,2c-2.76,0 -4.95,-1.34 -5,-2z" fill="#ff69b4" fill-opacity="null" id="svg_4" stroke="#000000" stroke-dasharray="null" stroke-linecap="null" stroke-linejoin="null" stroke-opacity="null" stroke-width="0.15" transform="rotate(90, 12.6, 5.46)"/>
  </g>
  <g id="svg_6">
   <path d="m7.6,19.55c0,-1.1 2.24,-2 5,-2c2.76,0 5,1.39 5,2c0,0.61 -2.24,2 -5,2c-2.76,0 -5,-0.9 -5,-2z" fill="#ff69b4" fill-opacity="null" id="svg_7" stroke="#000000" stroke-dasharray="null" stroke-linecap="null" stroke-linejoin="null" stroke-opacity="null" stroke-width="0.15" transform="rotate(90, 12.6, 19.55)"/>
  </g>
  <g id="svg_12">
   <path d="m2.56,7.51c0,-0.61 2.24,-2 5,-2c2.76,0 5,0.9 5,2c0,1.1 -2.24,2 -5,2c-2.76,0 -5,-1.39 -5,-2z" fill="#ff69b4" fill-opacity="null" id="svg_9" stroke="#000000" stroke-dasharray="null" stroke-linecap="null" stroke-linejoin="null" stroke-opacity="null" stroke-width="0.15" transform="rotate(45, 7.56, 7.51)"/>
  </g>
  <g id="svg_8">
   <path d="m12.56,17.51c0,-1.1 2.24,-2 5,-2c2.76,0 5.04,1.35 5,2c-0.04,0.65 -2.24,2 -5,2c-2.76,0 -5,-0.9 -5,-2z" fill="#ff69b4" fill-opacity="null" id="svg_11" stroke="#000000" stroke-dasharray="null" stroke-linecap="null" stroke-linejoin="null" stroke-opacity="null" stroke-width="0.15" transform="rotate(45, 17.56, 17.51)"/>
  </g>
  <g id="svg_13">
   <path d="m12.56,7.51c-0.11,-0.65 2.24,-2 5,-2c2.76,0 5,0.9 5,2c0,1.1 -2.24,2 -5,2c-2.76,0 -4.89,-1.35 -5,-2z" fill="#ff69b4" fill-opacity="null" id="svg_14" stroke="#000000" stroke-dasharray="null" stroke-linecap="null" stroke-linejoin="null" stroke-opacity="null" stroke-width="0.15" transform="rotate(135, 17.56, 7.51)"/>
  </g>
  <g id="svg_10">
   <path d="m2.56,17.51c0,-1.1 2.24,-2 5,-2c2.76,0 5,1.46 5,2c0,0.54 -2.24,2 -5,2c-2.76,0 -5,-0.9 -5,-2z" fill="#ff69b4" fill-opacity="null" id="svg_15" stroke="#000000" stroke-dasharray="null" stroke-linecap="null" stroke-linejoin="null" stroke-opacity="null" stroke-width="0.15" transform="rotate(135, 7.56, 17.51)"/>
  </g>
  <line fill="none" fill-opacity="null" id="svg_16" stroke="#ff3f9f" stroke-dasharray="null" stroke-linecap="round" stroke-linejoin="round" stroke-width="0.5" x1="1.25" x2="9.75" y1="12.5" y2="12.5"/>
  <line fill="none" fill-opacity="null" id="svg_17" stroke="#ff3f9f" stroke-dasharray="null" stroke-linecap="round" stroke-linejoin="round" stroke-width="0.5" x1="15.25" x2="23.75" y1="12.5" y2="12.5"/>
  <line fill="none" fill-opacity="null" id="svg_19" stroke="#ff3f9f" stroke-dasharray="null" stroke-linecap="round" stroke-linejoin="round" stroke-width="0.5" transform="matrix(1, 0, 0, 1, 0, 0) rotate(135, 12.56, 19.61)" x1="-3.75" x2="4.75" y1="24.6" y2="24.6"/>
  <line fill="none" fill-opacity="null" id="svg_21" stroke="#ff3f9f" stroke-dasharray="null" stroke-linecap="round" stroke-linejoin="round" stroke-width="0.5" transform="rotate(135, 12.46, 5.57)" x1="20.15" x2="28.65" y1="0.56" y2="0.56"/>
  <line fill="none" fill-opacity="null" id="svg_23" stroke="#ff3f9f" stroke-dasharray="null" stroke-linecap="round" stroke-linejoin="round" stroke-width="0.5" transform="matrix(1, 0, 0, 1, 0, 0) rotate(45, 19.61, 12.55)" x1="3.3" x2="11.8" y1="17.54" y2="17.54"/>
  <line fill="none" fill-opacity="null" id="svg_25" stroke="#ff3f9f" stroke-dasharray="null" stroke-linecap="round" stroke-linejoin="round" stroke-width="0.5" transform="matrix(1, 0, 0, 1, 0, 0) rotate(45, 5.57, 12.65)" x1="13.26" x2="21.76" y1="7.64" y2="7.64"/>
  <line fill="none" fill-opacity="null" id="svg_26" stroke="#ff3f9f" stroke-dasharray="null" stroke-linecap="round" stroke-linejoin="round" stroke-width="0.5" transform="rotate(90, 17.54, 17.51)" x1="1.23" x2="9.73" y1="22.5" y2="22.5"/>
  <line fill="none" fill-opacity="null" id="svg_28" stroke="#ff3f9f" stroke-dasharray="null" stroke-linecap="round" stroke-linejoin="round" stroke-width="0.5" transform="matrix(1, 0, 0, 1, 0, 0) rotate(90, 7.54, 7.51)" x1="15.23" x2="23.73" y1="2.5" y2="2.5"/>
 </g>
</svg>