<?xml version="1.0"?>
<svg viewBox="0 0 25 25" xmlns="http://www.w3.org/2000/svg" xmlns:svg="http://www.w3.org/2000/svg">
 <!-- Created with SVG-edit - https://github.com/SVG-Edit/svgedit-->
 <!-- Created by Aleksy Slizewski --> <g class="layer">
  <title>ghost</title>
  <path d="m12.5,2c-4.69,-0.06 -8.48,2.23 -8.5,6l0,0l0,9c-0.02,1.87 -2.22,3.89 -1,6c1.22,2.11 1.63,-4.1 4,-3c2.37,1.1 0.12,3.51 2,4c1.88,0.49 1.67,-4.04 3.5,-4c1.83,0.04 1.57,4.48 3.5,4c1.93,-0.48 0.36,-3.07 2,-4c1.64,-0.93 2.78,4.95 4,3c1.22,-1.95 -0.92,-4.18 -1,-6l0,-9c-0.11,-3.86 -3.81,-5.94 -8.5,-6z" fill="#ffffff" id="svg_1" stroke="#000000" stroke-dasharray="null" stroke-linecap="null" stroke-linejoin="null" stroke-opacity="null" stroke-width="0.2"/>
  <path d="m4.5,10c-0.84,-0.17 -2.96,-1.07 -3.5,0c-0.54,1.07 2.41,3.49 4,4" fill="#ffffff" id="svg_2" stroke="#000000" stroke-dasharray="null" stroke-linecap="null" stroke-linejoin="null" stroke-opacity="null" stroke-width="0.2"/>
  <path d="m20.5,10c1.13,-0.16 3.17,-0.88 3.5,0c0.33,0.88 -2,3.22 -4,4" fill="#ffffff" fill-opacity="null" id="svg_3" stroke="#000000" stroke-dasharray="null" stroke-linecap="null" stroke-linejoin="null" stroke-opacity="null" stroke-width="0.2"/>
  <path d="m9.5,14.5l0,0c0.76,0.55 5.14,0.55 6,0l0,0c-0.04,0.96 -1.87,2.03 -3,2c-1.13,-0.03 -2.96,-1.13 -3,-2z" fill="#000000" id="svg_4" stroke="#000000" stroke-dasharray="null" stroke-linecap="null" stroke-linejoin="null" stroke-opacity="null" stroke-width="0.2"/>
  <path d="m11,15.5c0,1.17 -1.14,3.52 1.5,3.5c2.64,-0.02 1.55,-2.28 1.5,-3.5l-3,0z" fill="#ff0000" id="svg_5" stroke="#000000" stroke-dasharray="null" stroke-linecap="null" stroke-linejoin="null" stroke-opacity="null" stroke-width="0.2"/>
  <line fill="none" id="svg_6" stroke="#000000" stroke-dasharray="null" stroke-linecap="null" stroke-linejoin="null" stroke-opacity="null" stroke-width="0.2" x1="12.5" x2="12.5" y1="15" y2="18"/>
  <circle cx="9" cy="8" fill="#000000" id="svg_10" r="1" stroke="#000000" stroke-dasharray="null" stroke-linecap="null" stroke-linejoin="null" stroke-opacity="null" stroke-width="0.2"/>
  <circle cx="16" cy="8" fill="#000000" id="svg_11" r="1" stroke="#000000" stroke-dasharray="null" stroke-linecap="null" stroke-linejoin="null" stroke-opacity="null" stroke-width="0.2" transform="matrix(1, 0, 0, 1, 0, 0)"/>
 </g>
</svg>