<?xml version="1.0"?>
<svg viewBox="0 0 25 25" xmlns="http://www.w3.org/2000/svg" xmlns:svg="http://www.w3.org/2000/svg">
 <!-- Created with SVG-edit - https://github.com/SVG-Edit/svgedit-->
 <!-- Created by Aleksy Slizewski --> <g class="layer">
  <title>hard cap</title>
  <path d="m20,13l1,2l-1,1c-0.55,-1.09 -0.98,-0.91 -1.93,-0.46l-1.07,-1.54" fill="#333333" id="svg_5" stroke="#000000" stroke-dasharray="null" stroke-linecap="square" stroke-linejoin="round" stroke-opacity="null" stroke-width="0.2"/>
  <ellipse cx="12.5" cy="14" fill="#e50000" id="svg_1" rx="9" ry="3" stroke="#000000" stroke-dasharray="null" stroke-linecap="square" stroke-linejoin="round" stroke-opacity="null" stroke-width="0.2" transform="matrix(1, 0, 0, 1, 0, 0) matrix(0.970951, -0.239279, 0.239279, 0.970951, -2.98679, 3.39767)"/>
  <path d="m6,15c4.22,1.63 9.63,-0.66 14,-3" fill="#000000" fill-opacity="0" id="svg_6" stroke="#cc0000" stroke-dasharray="null" stroke-linecap="square" stroke-linejoin="round" stroke-width="0.2" transform="matrix(1, 0, 0, 1, 0, 0)"/>
  <path d="m6,15c-1.78,-4.87 2.25,-9.38 5.97,-10.28c3.72,-0.9 8.14,3.27 8.03,7.28" fill="#e50000" id="svg_2" stroke="#000000" stroke-dasharray="null" stroke-linecap="square" stroke-linejoin="round" stroke-opacity="null" stroke-width="0.2" transform="matrix(1, 0, 0, 1, 0, 0)"/>
  <path d="m6.05,14.5c5.35,0.84 9.74,-1.31 13.7,-3.25" fill="#000000" fill-opacity="0" id="svg_4" stroke="#cc0000" stroke-dasharray="null" stroke-linecap="square" stroke-linejoin="round" stroke-width="0.2"/>
  <path d="m9.85,14.6c0.67,0.03 1.38,-0.04 2.05,-0.26l0.1,0.8c-0.68,0.27 -1.37,0.39 -2.05,0.35l-0.1,-0.9z" fill="#ff0000" fill-opacity="null" id="svg_8" stroke="#cc0000" stroke-dasharray="null" stroke-linecap="square" stroke-linejoin="round" stroke-opacity="null" stroke-width="0.2"/>
  <path d="m13.85,13.76c0.67,-0.07 1.13,-0.29 1.8,-0.55l0.25,0.75c-0.63,0.27 -1.17,0.48 -1.85,0.65l-0.2,-0.85z" fill="#ff0000" fill-opacity="null" id="svg_9" stroke="#cc0000" stroke-dasharray="null" stroke-linecap="square" stroke-linejoin="round" stroke-opacity="null" stroke-width="0.2"/>
  <path d="m17.2,12.52c0.62,-0.32 0.99,-0.43 1.6,-0.75l0.3,0.7c-0.68,0.27 -0.97,0.53 -1.65,0.75l-0.25,-0.7z" fill="#ff0000" fill-opacity="null" id="svg_10" stroke="#cc0000" stroke-dasharray="null" stroke-linecap="square" stroke-linejoin="round" stroke-opacity="null" stroke-width="0.2"/>
  <path d="m14.4,4.96c0.49,0.12 -1.93,-0.17 -5.4,2.54c-3.47,2.71 -1.75,6.51 -2.5,7.25c-0.75,0.74 -1.46,-4.83 2,-7.75c3.46,-2.92 5.41,-2.17 5.9,-2.04z" fill="#ff0000" id="svg_3" stroke="#cc0000" stroke-dasharray="null" stroke-linecap="square" stroke-linejoin="round" stroke-width="0.2"/>
 </g>
</svg>