<?xml version="1.0"?>
<svg id="symbol" viewBox="0 0 25 25" xmlns="http://www.w3.org/2000/svg" xmlns:svg="http://www.w3.org/2000/svg">
 <!-- Created with SVG-edit - https://github.com/SVG-Edit/svgedit-->
 <!-- Created by Aleksy Slizewski -->
 <g class="layer">
  <title>hazelnut</title>
  <g id="svg_5">
   <path d="m4,14c-0.3,-3.68 4.58,-8 9,-8c4.42,0 6.45,3.74 7,6c0.55,2.26 0.51,9.55 0,10c-0.51,0.45 -8.3,-1.15 -10,-2c-1.7,-0.85 -5.7,-2.32 -6,-6z" fill="#8b4513" fill-opacity="null" id="svg_2" stroke="#000000" stroke-dasharray="null" stroke-linecap="round" stroke-linejoin="bevel" stroke-opacity="null" stroke-width="0.2" transform="rotate(-138.322, 12.2601, 13.2249)"/>
   <path d="m8.85,21.31c-0.05,-1.1 1.82,-3.11 3.5,-4.25c1.68,-1.14 3.35,-1.86 4,-1.25c0.65,0.61 -1.17,3.21 -3,4.5c-1.83,1.29 -4.45,2.1 -4.5,1z" fill="#ffdab9" id="svg_3" stroke="#000000" stroke-dasharray="null" stroke-linecap="round" stroke-linejoin="bevel" stroke-opacity="0" stroke-width="0.2" transform="rotate(-138.322, 12.6615, 18.7055)"/>
   <ellipse cx="6.18" cy="19.52" fill="#000000" fill-opacity="0" id="svg_4" rx="4.15" ry="1.25" stroke="#cd853f" stroke-dasharray="null" stroke-linecap="round" stroke-linejoin="bevel" stroke-width="0.2" transform="rotate(-138.322, 12.7783, 18.6736) matrix(0.788324, -0.615261, 0.615261, 0.788324, -4.09865, 7.08683)"/>
  </g>
 </g>
</svg>