<?xml version="1.0"?>
<svg viewBox="0 0 25 25" xmlns="http://www.w3.org/2000/svg" xmlns:svg="http://www.w3.org/2000/svg">
 <!-- Created with SVG-edit - https://github.com/SVG-Edit/svgedit-->
 <!-- Created by Aleksy Slizewski --> <g class="layer">
  <title>horseshoe</title>
  <path d="m5,20l-3,0l0,2.5l6,0l0,-2.5c-0.52,0.02 -4.33,-15.88 4.5,-16c8.83,-0.12 4.95,15.99 4.5,16l0,2.5l6,0l0,-2.5l-3,0c1.81,-4.1 4.69,-19.02 -7.5,-19c-12.19,0.02 -8.95,15.3 -7.5,19z" fill="#808080" id="svg_1" stroke="#000000" stroke-dasharray="null" stroke-linecap="round" stroke-linejoin="round" stroke-width="0.2" transform="matrix(1, 0, 0, 1, 0, 0)"/>
  <path d="m6,18.5c-1.91,0.01 -6.04,-17.06 6.5,-17.15c12.54,-0.09 8.3,17.15 6.5,17.15c-1.8,0 2.75,-14.9 -6.5,-14.75c-9.25,0.15 -4.59,14.74 -6.5,14.75z" fill="#696969" id="svg_9" stroke="#000000" stroke-dasharray="null" stroke-linecap="round" stroke-linejoin="round" stroke-opacity="null" stroke-width="0.2"/>
  <circle cx="19.75" cy="14" fill="#808080" id="svg_2" r="0.5" stroke="#000000" stroke-dasharray="null" stroke-linecap="round" stroke-linejoin="round" stroke-opacity="null" stroke-width="0.2" transform="matrix(1, 0, 0, 1, 0, 0)"/>
  <circle cx="19.5" cy="8" fill="#808080" id="svg_3" r="0.5" stroke="#000000" stroke-dasharray="null" stroke-linecap="round" stroke-linejoin="round" stroke-opacity="null" stroke-width="0.2" transform="matrix(1, 0, 0, 1, 0, 0)"/>
  <circle cx="16" cy="3" fill="#808080" id="svg_4" r="0.5" stroke="#000000" stroke-dasharray="null" stroke-linecap="round" stroke-linejoin="round" stroke-opacity="null" stroke-width="0.2" transform="matrix(1, 0, 0, 1, 0, 0)"/>
  <circle cx="9" cy="3" fill="#808080" id="svg_5" r="0.5" stroke="#000000" stroke-dasharray="null" stroke-linecap="round" stroke-linejoin="round" stroke-opacity="null" stroke-width="0.2" transform="matrix(1, 0, 0, 1, 0, 0)"/>
  <circle cx="5.5" cy="8" fill="#808080" id="svg_6" r="0.5" stroke="#000000" stroke-dasharray="null" stroke-linecap="round" stroke-linejoin="round" stroke-opacity="null" stroke-width="0.2" transform="matrix(1, 0, 0, 1, 0, 0)"/>
  <circle cx="5.25" cy="14" fill="#808080" id="svg_8" r="0.5" stroke="#000000" stroke-dasharray="null" stroke-linecap="round" stroke-linejoin="round" stroke-opacity="null" stroke-width="0.2" transform="matrix(1, 0, 0, 1, 0, 0)"/>
 </g>
</svg>