<?xml version="1.0"?>
<svg id="symbol" viewBox="0 0 25 25" xmlns="http://www.w3.org/2000/svg" xmlns:svg="http://www.w3.org/2000/svg">
 <!-- Created with SVG-edit - https://github.com/SVG-Edit/svgedit-->
 <!-- Created by Aleksy Slizewski -->
 <g class="layer">
  <title>igloo</title>
  <path d="m23,16c-0.11,-4.94 -3.49,-13.96 -10.5,-14c-7.01,-0.04 -10.77,9.58 -10.5,14c0.27,4.42 3.55,4.87 6,5l-1,1l4,0l1,-1c3.42,-0.09 11.11,-0.06 11,-5z" fill="#ffffff" id="svg_1" stroke="#000000" stroke-dasharray="null" stroke-linecap="null" stroke-linejoin="null" stroke-opacity="null" stroke-width="0.2" transform="matrix(1, 0, 0, 1, 0, 0)"/>
  <path d="m2.57,17.85c6.23,2.14 13.46,1.99 19.79,0" fill="#000000" fill-opacity="0" id="svg_13" stroke="#99ffff" stroke-dasharray="null" stroke-linecap="round" stroke-linejoin="null" stroke-opacity="null" stroke-width="0.2" transform="matrix(1, 0, 0, 1, 0, 0)"/>
  <path d="m2.21,16.2c6.52,1.39 14.08,1.29 20.71,0" fill="#000000" fill-opacity="0" id="svg_12" stroke="#99ffff" stroke-dasharray="null" stroke-linecap="null" stroke-linejoin="null" stroke-opacity="null" stroke-width="0.2" transform="matrix(1, 0, 0, 1, 0, 0)"/>
  <path d="m12,20.9c-0.02,-1.88 -0.49,-4.89 -2,-4.9c-1.51,-0.01 -2.13,0.92 -2.25,1.5" fill="#ffffff" id="svg_4" stroke="#72ffff" stroke-dasharray="null" stroke-linecap="null" stroke-linejoin="null" stroke-width="0.2" transform="matrix(1, 0, 0, 1, 0, 0)"/>
  <path d="m7,22c-0.1,-4.05 0.77,-4.98 2,-5c1.23,-0.02 1.96,1.1 2,5l-4,0z" fill="#ffffff" id="svg_2" stroke="#000000" stroke-dasharray="null" stroke-linecap="null" stroke-linejoin="null" stroke-opacity="null" stroke-width="0.2"/>
  <path d="m7.5,21.85l3,0c-0.1,-1.43 0.29,-4.31 -1.5,-4.35c-1.79,-0.04 -1.5,2.97 -1.5,4.35z" fill="#000b16" id="svg_3" stroke="#99ffff" stroke-dasharray="null" stroke-linecap="null" stroke-linejoin="null" stroke-width="0.2" transform="matrix(1, 0, 0, 1, 0, 0)"/>
  <path d="m8.52,16.9c1.64,-1.16 3.17,0.78 2.94,4.41" fill="#000000" fill-opacity="0" id="svg_5" stroke="#99ffff" stroke-dasharray="null" stroke-linecap="round" stroke-linejoin="null" stroke-width="0.2"/>
  <path d="m2.66,12c3.05,0.68 5.81,1.01 9.79,1c3.98,-0.01 6.77,-0.39 9.78,-1" fill="#000000" fill-opacity="0" id="svg_6" stroke="#99ffff" stroke-dasharray="null" stroke-linecap="null" stroke-linejoin="null" stroke-opacity="null" stroke-width="0.2" transform="matrix(1, 0, 0, 1, 0, 0)"/>
  <path d="m3.43,9.8c5.68,1.52 12.29,1.41 18.06,0" fill="#000000" fill-opacity="0" id="svg_7" stroke="#99ffff" stroke-dasharray="null" stroke-linecap="null" stroke-linejoin="null" stroke-opacity="null" stroke-width="0.2" transform="matrix(1, 0, 0, 1, 0, 0)"/>
  <path d="m2.26,13.95c6.42,1.45 13.88,1.35 20.41,0" fill="#000000" fill-opacity="0" id="svg_8" stroke="#99ffff" stroke-dasharray="null" stroke-linecap="null" stroke-linejoin="null" stroke-opacity="null" stroke-width="0.2" transform="matrix(1, 0, 0, 1, 0, 0)"/>
  <path d="m4.49,7.7c5.04,1.32 10.9,1.22 16.03,0" fill="#000000" fill-opacity="0" id="svg_9" stroke="#99ffff" stroke-dasharray="null" stroke-linecap="null" stroke-linejoin="null" stroke-opacity="null" stroke-width="0.2" transform="matrix(1, 0, 0, 1, 0, 0)"/>
  <path d="m5.88,5.65c4.17,1.25 9.02,1.16 13.26,0" fill="#000000" fill-opacity="0" id="svg_10" stroke="#99ffff" stroke-dasharray="null" stroke-linecap="null" stroke-linejoin="null" stroke-opacity="null" stroke-width="0.2" transform="matrix(1, 0, 0, 1, 0, 0)"/>
  <path d="m7.62,3.94c3.08,0.9 6.66,0.84 9.79,0" fill="#000000" fill-opacity="0" id="svg_11" stroke="#99ffff" stroke-dasharray="null" stroke-linecap="null" stroke-linejoin="null" stroke-opacity="null" stroke-width="0.2" transform="matrix(1, 0, 0, 1, 0, 0)"/>
  <path d="m9.71,2.75c1.8,0.42 3.88,0.39 5.71,0" fill="#000000" fill-opacity="0" id="svg_14" stroke="#99ffff" stroke-dasharray="null" stroke-linecap="null" stroke-linejoin="null" stroke-opacity="null" stroke-width="0.2"/>
  <line fill="none" fill-opacity="0" id="svg_15" stroke="#99ffff" stroke-dasharray="null" stroke-linecap="null" stroke-linejoin="null" stroke-opacity="null" stroke-width="0.2" transform="matrix(1, 0, 0, 1, 0, 0)" x1="11.49" x2="12.14" y1="2.9" y2="2.16"/>
  <line fill="none" fill-opacity="0" id="svg_16" stroke="#99ffff" stroke-dasharray="null" stroke-linecap="null" stroke-linejoin="null" stroke-opacity="null" stroke-width="0.2" x1="14.08" x2="13.43" y1="2.86" y2="2.26"/>
  <line fill="none" fill-opacity="0" id="svg_17" stroke="#99ffff" stroke-dasharray="null" stroke-linecap="null" stroke-linejoin="null" stroke-opacity="null" stroke-width="0.2" x1="10.25" x2="9.96" y1="2.95" y2="4.39"/>
  <line fill="none" fill-opacity="0" id="svg_18" stroke="#99ffff" stroke-dasharray="null" stroke-linecap="null" stroke-linejoin="null" stroke-opacity="null" stroke-width="0.2" transform="matrix(1, 0, 0, 1, 0, 0)" x1="12.88" x2="12.98" y1="3.11" y2="4.49"/>
  <line fill="none" fill-opacity="0" id="svg_19" stroke="#99ffff" stroke-dasharray="null" stroke-linecap="null" stroke-linejoin="null" stroke-opacity="null" stroke-width="0.2" x1="15.17" x2="15.47" y1="2.9" y2="4.29"/>
  <line fill="none" fill-opacity="0" id="svg_20" stroke="#99ffff" stroke-dasharray="null" stroke-linecap="null" stroke-linejoin="null" stroke-opacity="null" stroke-width="0.2" x1="8.93" x2="8.47" y1="4.37" y2="6.13"/>
  <line fill="none" fill-opacity="0" id="svg_23" stroke="#99ffff" stroke-dasharray="null" stroke-linecap="null" stroke-linejoin="null" stroke-opacity="null" stroke-width="0.2" transform="matrix(1, 0, 0, 1, 0, 0)" x1="11.4" x2="11.49" y1="6.48" y2="4.63"/>
  <line fill="none" fill-opacity="0" id="svg_24" stroke="#99ffff" stroke-dasharray="null" stroke-linecap="null" stroke-linejoin="null" stroke-opacity="null" stroke-width="0.2" transform="matrix(1, 0, 0, 1, 0, 0)" x1="13.88" x2="14.18" y1="4.63" y2="6.38"/>
  <line fill="none" fill-opacity="0" id="svg_25" stroke="#99ffff" stroke-dasharray="null" stroke-linecap="null" stroke-linejoin="null" stroke-opacity="null" stroke-width="0.2" transform="matrix(1, 0, 0, 1, 0, 0)" x1="16.41" x2="16.96" y1="4.26" y2="6.08"/>
  <line fill="none" fill-opacity="0" id="svg_26" stroke="#99ffff" stroke-dasharray="null" stroke-linecap="null" stroke-linejoin="null" stroke-opacity="null" stroke-width="0.2" transform="matrix(1, 0, 0, 1, 0, 0)" x1="6.84" x2="6.28" y1="6" y2="8.03"/>
  <line fill="none" fill-opacity="0" id="svg_27" stroke="#99ffff" stroke-dasharray="null" stroke-linecap="null" stroke-linejoin="null" stroke-opacity="null" stroke-width="0.2" transform="matrix(1, 0, 0, 1, 0, 0)" x1="9.93" x2="9.76" y1="6.54" y2="8.47"/>
  <line fill="none" fill-opacity="0" id="svg_28" stroke="#99ffff" stroke-dasharray="null" stroke-linecap="null" stroke-linejoin="null" stroke-opacity="null" stroke-width="0.2" transform="matrix(1, 0, 0, 1, 0, 0)" x1="12.59" x2="12.64" y1="6.63" y2="8.57"/>
  <line fill="none" fill-opacity="0" id="svg_29" stroke="#99ffff" stroke-dasharray="null" stroke-linecap="null" stroke-linejoin="null" stroke-opacity="null" stroke-width="0.2" transform="matrix(1, 0, 0, 1, 0, 0)" x1="15.71" x2="16.11" y1="6.43" y2="8.47"/>
  <line fill="none" fill-opacity="0" id="svg_30" stroke="#99ffff" stroke-dasharray="null" stroke-linecap="null" stroke-linejoin="null" stroke-opacity="null" stroke-width="0.2" transform="matrix(1, 0, 0, 1, 0, 0)" x1="18.2" x2="18.84" y1="5.95" y2="7.95"/>
  <line fill="none" fill-opacity="0" id="svg_31" stroke="#99ffff" stroke-dasharray="null" stroke-linecap="null" stroke-linejoin="null" stroke-opacity="null" stroke-width="0.2" transform="matrix(1, 0, 0, 1, 0, 0)" x1="5.2" x2="4.64" y1="7.92" y2="10.01"/>
  <line fill="none" fill-opacity="0" id="svg_32" stroke="#99ffff" stroke-dasharray="null" stroke-linecap="null" stroke-linejoin="null" stroke-opacity="null" stroke-width="0.2" transform="matrix(1, 0, 0, 1, 0, 0)" x1="7.82" x2="7.42" y1="8.42" y2="10.5"/>
  <line fill="none" fill-opacity="0" id="svg_33" stroke="#99ffff" stroke-dasharray="null" stroke-linecap="null" stroke-linejoin="null" stroke-opacity="null" stroke-width="0.2" transform="matrix(1, 0, 0, 1, 0, 0)" x1="11.05" x2="10.92" y1="8.71" y2="10.82"/>
  <line fill="none" fill-opacity="0" id="svg_34" stroke="#99ffff" stroke-dasharray="null" stroke-linecap="null" stroke-linejoin="null" stroke-opacity="null" stroke-width="0.2" x1="13.68" x2="13.89" y1="8.71" y2="10.81"/>
  <line fill="none" fill-opacity="0" id="svg_35" stroke="#99ffff" stroke-dasharray="null" stroke-linecap="null" stroke-linejoin="null" stroke-opacity="null" stroke-width="0.2" transform="matrix(1, 0, 0, 1, 0, 0)" x1="17.13" x2="17.6" y1="8.44" y2="10.45"/>
  <line fill="none" fill-opacity="0" id="svg_36" stroke="#99ffff" stroke-dasharray="null" stroke-linecap="null" stroke-linejoin="null" stroke-opacity="null" stroke-width="0.2" x1="19.79" x2="20.42" y1="7.87" y2="9.96"/>
  <line fill="none" fill-opacity="0" id="svg_37" stroke="#99ffff" stroke-dasharray="null" stroke-linecap="null" stroke-linejoin="null" stroke-opacity="null" stroke-width="0.2" transform="matrix(1, 0, 0, 1, 0, 0)" x1="3.63" x2="3.1" y1="9.95" y2="11.99"/>
  <line fill="none" fill-opacity="0" id="svg_38" stroke="#99ffff" stroke-dasharray="null" stroke-linecap="null" stroke-linejoin="null" stroke-opacity="null" stroke-width="0.2" x1="6.16" x2="5.77" y1="10.49" y2="12.53"/>
  <line fill="none" fill-opacity="0" id="svg_39" stroke="#99ffff" stroke-dasharray="null" stroke-linecap="null" stroke-linejoin="null" stroke-opacity="null" stroke-width="0.2" transform="matrix(1, 0, 0, 1, 0, 0)" x1="9.22" x2="8.99" y1="10.89" y2="12.79"/>
  <line fill="none" fill-opacity="0" id="svg_40" stroke="#99ffff" stroke-dasharray="null" stroke-linecap="null" stroke-linejoin="null" stroke-opacity="null" stroke-width="0.2" transform="matrix(1, 0, 0, 1, 0, 0)" x1="12.34" x2="12.34" y1="10.96" y2="12.96"/>
  <line fill="none" fill-opacity="0" id="svg_41" stroke="#99ffff" stroke-dasharray="null" stroke-linecap="null" stroke-linejoin="null" stroke-opacity="null" stroke-width="0.2" transform="matrix(1, 0, 0, 1, 0, 0)" x1="15.47" x2="15.79" y1="10.86" y2="12.86"/>
  <line fill="none" fill-opacity="0" id="svg_42" stroke="#99ffff" stroke-dasharray="null" stroke-linecap="null" stroke-linejoin="null" stroke-opacity="null" stroke-width="0.2" x1="18.55" x2="18.97" y1="10.5" y2="12.47"/>
  <line fill="none" fill-opacity="0" id="svg_43" stroke="#99ffff" stroke-dasharray="null" stroke-linecap="null" stroke-linejoin="null" stroke-opacity="null" stroke-width="0.2" transform="matrix(1, 0, 0, 1, 0, 0)" x1="20.96" x2="21.54" y1="9.93" y2="12.07"/>
  <line fill="none" fill-opacity="0" id="svg_45" stroke="#99ffff" stroke-dasharray="null" stroke-linecap="null" stroke-linejoin="null" stroke-opacity="null" stroke-width="0.2" x1="3.55" x2="3.9" y1="14.23" y2="12.19"/>
  <line fill="none" fill-opacity="0" id="svg_46" stroke="#99ffff" stroke-dasharray="null" stroke-linecap="null" stroke-linejoin="null" stroke-opacity="null" stroke-width="0.2" x1="6.28" x2="6.53" y1="14.57" y2="12.59"/>
  <line fill="none" fill-opacity="0" id="svg_47" stroke="#99ffff" stroke-dasharray="null" stroke-linecap="null" stroke-linejoin="null" stroke-opacity="null" stroke-width="0.2" transform="matrix(1, 0, 0, 1, 0, 0)" x1="9.66" x2="9.61" y1="12.87" y2="14.92"/>
  <line fill="none" fill-opacity="0" id="svg_49" stroke="#99ffff" stroke-dasharray="null" stroke-linecap="null" stroke-linejoin="null" stroke-opacity="null" stroke-width="0.2" transform="matrix(1, 0, 0, 1, 0, 0)" x1="12.73" x2="12.82" y1="12.95" y2="15.02"/>
  <line fill="none" fill-opacity="0" id="svg_50" stroke="#99ffff" stroke-dasharray="null" stroke-linecap="null" stroke-linejoin="null" stroke-opacity="null" stroke-width="0.2" x1="15.54" x2="15.73" y1="12.82" y2="14.78"/>
  <line fill="none" fill-opacity="0" id="svg_51" stroke="#99ffff" stroke-dasharray="null" stroke-linecap="null" stroke-linejoin="null" stroke-opacity="null" stroke-width="0.2" x1="18.21" x2="18.49" y1="12.62" y2="14.62"/>
  <line fill="none" fill-opacity="0" id="svg_52" stroke="#99ffff" stroke-dasharray="null" stroke-linecap="null" stroke-linejoin="null" stroke-opacity="null" stroke-width="0.2" x1="20.61" x2="20.97" y1="12.34" y2="14.22"/>
  <line fill="none" fill-opacity="0" id="svg_53" stroke="#99ffff" stroke-dasharray="null" stroke-linecap="null" stroke-linejoin="null" stroke-opacity="null" stroke-width="0.2" x1="2.84" x2="2.68" y1="14.06" y2="16.17"/>
  <line fill="none" fill-opacity="0" id="svg_54" stroke="#99ffff" stroke-dasharray="null" stroke-linecap="null" stroke-linejoin="null" stroke-opacity="null" stroke-width="0.2" x1="4.95" x2="4.75" y1="14.58" y2="16.61"/>
  <line fill="none" fill-opacity="0" id="svg_55" stroke="#99ffff" stroke-dasharray="null" stroke-linecap="null" stroke-linejoin="null" stroke-opacity="null" stroke-width="0.2" x1="7.75" x2="7.55" y1="14.86" y2="16.87"/>
  <line fill="none" fill-opacity="0" id="svg_56" stroke="#99ffff" stroke-dasharray="null" stroke-linecap="null" stroke-linejoin="null" stroke-opacity="null" stroke-width="0.2" x1="10.98" x2="10.94" y1="15.02" y2="16.37"/>
  <line fill="none" fill-opacity="0" id="svg_57" stroke="#99ffff" stroke-dasharray="null" stroke-linecap="null" stroke-linejoin="null" stroke-opacity="null" stroke-width="0.2" x1="14.26" x2="14.38" y1="15.14" y2="17.09"/>
  <line fill="none" fill-opacity="0" id="svg_58" stroke="#99ffff" stroke-dasharray="null" stroke-linecap="null" stroke-linejoin="null" stroke-opacity="null" stroke-width="0.2" x1="17.13" x2="17.37" y1="14.82" y2="16.85"/>
  <line fill="none" fill-opacity="0" id="svg_59" stroke="#99ffff" stroke-dasharray="null" stroke-linecap="null" stroke-linejoin="null" stroke-opacity="null" stroke-width="0.2" x1="19.57" x2="19.97" y1="14.58" y2="16.57"/>
  <line fill="none" fill-opacity="0" id="svg_60" stroke="#99ffff" stroke-dasharray="null" stroke-linecap="null" stroke-linejoin="null" stroke-opacity="null" stroke-width="0.2" x1="21.69" x2="22.08" y1="14.18" y2="16.23"/>
  <line fill="none" fill-opacity="0" id="svg_61" stroke="#99ffff" stroke-dasharray="null" stroke-linecap="null" stroke-linejoin="null" stroke-opacity="null" stroke-width="0.2" transform="matrix(1, 0, 0, 1, 0, 0)" x1="3.67" x2="3.51" y1="16.56" y2="18.09"/>
  <line fill="none" fill-opacity="0" id="svg_62" stroke="#99ffff" stroke-dasharray="null" stroke-linecap="null" stroke-linejoin="null" stroke-opacity="null" stroke-width="0.2" x1="5.99" x2="5.91" y1="16.89" y2="18.65"/>
  <line fill="none" fill-opacity="0" id="svg_63" stroke="#99ffff" stroke-dasharray="null" stroke-linecap="null" stroke-linejoin="null" stroke-opacity="null" stroke-width="0.2" x1="12.98" x2="13.1" y1="17.33" y2="19.29"/>
  <line fill="none" fill-opacity="0" id="svg_64" stroke="#99ffff" stroke-dasharray="null" stroke-linecap="null" stroke-linejoin="null" stroke-opacity="null" stroke-width="0.2" x1="15.62" x2="15.81" y1="17.17" y2="19.09"/>
  <line fill="none" fill-opacity="0" id="svg_65" stroke="#99ffff" stroke-dasharray="null" stroke-linecap="null" stroke-linejoin="null" stroke-opacity="null" stroke-width="0.2" transform="matrix(1, 0, 0, 1, 0, 0)" x1="18.43" x2="18.65" y1="16.95" y2="18.65"/>
  <line fill="none" fill-opacity="0" id="svg_66" stroke="#99ffff" stroke-dasharray="null" stroke-linecap="null" stroke-linejoin="null" stroke-opacity="null" stroke-width="0.2" x1="20.73" x2="21.01" y1="16.61" y2="18.17"/>
  <line fill="none" fill-opacity="0" id="svg_67" stroke="#99ffff" stroke-dasharray="null" stroke-linecap="null" stroke-linejoin="null" stroke-opacity="null" stroke-width="0.2" x1="4.31" x2="4.23" y1="18.49" y2="19.96"/>
  <line fill="none" fill-opacity="0" id="svg_68" stroke="#99ffff" stroke-dasharray="null" stroke-linecap="null" stroke-linejoin="null" stroke-opacity="null" stroke-width="0.2" transform="matrix(1, 0, 0, 1, 0, 0)" x1="6.55" x2="6.47" y1="18.99" y2="20.72"/>
  <line fill="none" fill-opacity="0" id="svg_69" stroke="#99ffff" stroke-dasharray="null" stroke-linecap="null" stroke-linejoin="null" stroke-opacity="null" stroke-width="0.2" transform="matrix(1, 0, 0, 1, 0, 0)" x1="13.94" x2="14.02" y1="19.45" y2="20.79"/>
  <line fill="none" fill-opacity="0" id="svg_70" stroke="#99ffff" stroke-dasharray="null" stroke-linecap="null" stroke-linejoin="null" stroke-opacity="null" stroke-width="0.2" transform="matrix(1, 0, 0, 1, 0, 0)" x1="17.13" x2="17.33" y1="19.17" y2="20.52"/>
  <line fill="none" fill-opacity="0" id="svg_71" stroke="#99ffff" stroke-dasharray="null" stroke-linecap="null" stroke-linejoin="null" stroke-opacity="null" stroke-width="0.2" x1="19.73" x2="19.89" y1="18.61" y2="19.87"/>
  <line fill="none" fill-opacity="0" id="svg_72" stroke="#99ffff" stroke-dasharray="null" stroke-linecap="round" stroke-linejoin="null" stroke-opacity="null" stroke-width="0.2" x1="21.77" x2="21.83" y1="18.18" y2="18.53"/>
  <line fill="none" fill-opacity="0" id="svg_73" stroke="#99ffff" stroke-dasharray="null" stroke-linecap="round" stroke-linejoin="null" stroke-opacity="null" stroke-width="0.2" x1="22.57" x2="22.65" y1="16.29" y2="17.22"/>
  <line fill="none" fill-opacity="0" id="svg_74" stroke="#99ffff" stroke-dasharray="null" stroke-linecap="null" stroke-linejoin="null" stroke-opacity="null" stroke-width="0.2" x1="10.17" x2="10.62" y1="16.75" y2="16.33"/>
  <line fill="none" fill-opacity="0" id="svg_76" stroke="#99ffff" stroke-dasharray="null" stroke-linecap="null" stroke-linejoin="null" stroke-opacity="null" stroke-width="0.2" transform="matrix(1, 0, 0, 1, 0, 0)" x1="9.41" x2="9.24" y1="16.61" y2="16.91"/>
  <line fill="none" fill-opacity="0" id="svg_77" stroke="#99ffff" stroke-dasharray="null" stroke-linecap="null" stroke-linejoin="null" stroke-opacity="null" stroke-width="0.2" x1="8.58" x2="8.6" y1="16.38" y2="16.78"/>
  <line fill="none" fill-opacity="0" id="svg_78" stroke="#99ffff" stroke-dasharray="null" stroke-linecap="null" stroke-linejoin="null" stroke-opacity="null" stroke-width="0.2" x1="11.3" x2="11.68" y1="18.97" y2="18.71"/>
  <line fill="none" fill-opacity="0" id="svg_79" stroke="#99ffff" stroke-dasharray="null" stroke-linecap="null" stroke-linejoin="null" stroke-opacity="null" stroke-width="0.2" transform="matrix(1, 0, 0, 1, 0, 0)" x1="10.55" x2="10.82" y1="17.97" y2="17.77"/>
  <line fill="none" fill-opacity="0" id="svg_80" stroke="#99ffff" stroke-dasharray="null" stroke-linecap="null" stroke-linejoin="null" stroke-opacity="null" stroke-width="0.2" transform="matrix(1, 0, 0, 1, 0, 0)" x1="11.07" x2="11.33" y1="20.36" y2="20.19"/>
  <line fill="none" fill-opacity="0" id="svg_81" stroke="#99ffff" stroke-dasharray="null" stroke-linecap="null" stroke-linejoin="null" stroke-opacity="null" stroke-width="0.2" x1="9.23" x2="9.23" y1="17.14" y2="17.41"/>
  <line fill="none" fill-opacity="0" id="svg_82" stroke="#99ffff" stroke-dasharray="null" stroke-linecap="null" stroke-linejoin="null" stroke-opacity="null" stroke-width="0.2" x1="10.37" x2="10.19" y1="18.05" y2="18.2"/>
  <line fill="none" fill-opacity="0" id="svg_83" stroke="#99ffff" stroke-dasharray="null" stroke-linecap="null" stroke-linejoin="null" stroke-opacity="null" stroke-width="0.2" x1="10.84" x2="10.54" y1="20.47" y2="20.47"/>
  <line fill="none" fill-opacity="0" id="svg_84" stroke="#99ffff" stroke-dasharray="null" stroke-linecap="null" stroke-linejoin="null" stroke-opacity="null" stroke-width="0.2" transform="matrix(1, 0, 0, 1, 0, 0)" x1="7.68" x2="7.83" y1="17.87" y2="18.08"/>
  <line fill="none" fill-opacity="0" id="svg_87" stroke="#99ffff" stroke-dasharray="null" stroke-linecap="null" stroke-linejoin="null" stroke-opacity="null" stroke-width="0.2" transform="matrix(1, 0, 0, 1, 0, 0)" x1="7.1" x2="7.45" y1="21.47" y2="21.5"/>
  <line fill="none" fill-opacity="0" id="svg_88" stroke="#99ffff" stroke-dasharray="null" stroke-linecap="null" stroke-linejoin="null" stroke-opacity="null" stroke-width="0.2" x1="7.48" x2="7.18" y1="19.63" y2="19.63"/>
  <line fill="none" fill-opacity="0" id="svg_89" stroke="#99ffff" stroke-dasharray="null" stroke-linecap="null" stroke-linejoin="null" stroke-opacity="null" stroke-width="0.2" x1="11.95" x2="11.51" y1="20.44" y2="20.74"/>
 </g>
</svg>