<?xml version="1.0"?>
<svg id="symbol" viewBox="0 0 25 25" xmlns="http://www.w3.org/2000/svg" xmlns:svg="http://www.w3.org/2000/svg">
 <!-- Created with SVG-edit - https://github.com/SVG-Edit/svgedit-->
 <!-- Created by Aleksy Slizewski -->
 <g class="layer">
  <title>igloo</title>
  <path d="m23.27,14.9c-0.31,-3.16 -3.84,-11.07 -10.85,-11.11c-7.01,-0.04 -10.27,7.87 -10.65,11.35c-0.38,3.48 -0.62,3.53 1.49,4.16c2.1,0.63 3.29,0.78 4.51,0.84l-1,1l4,0l1,-1c1.71,-0.04 6.37,-0.26 9.21,-0.93c2.83,-0.67 2.6,-1.16 2.29,-4.32l0,0.01z" fill="#ffffff" id="svg_1" stroke="#000000" stroke-opacity="0" stroke-width="0.3"/>
  <path d="m12.06,4.05c0.43,0.57 0.47,1.63 0.55,2.29" fill="none" id="svg_30" stroke="#72ffff" stroke-width="0.5"/>
  <path d="m12.11,4.16c-0.76,0.21 -1.17,1.07 -1.64,2.03" fill="none" id="svg_29" stroke="#72ffff" stroke-width="0.5"/>
  <path d="m1.83,16.09c4.69,1.82 16.37,2.11 21.5,-0.25" fill="none" id="svg_2" stroke="#72ffff" stroke-width="0.5"/>
  <path d="m2.28,13.16c6.87,1.7 13.78,1.72 20.51,-0.25" fill="none" id="svg_3" stroke="#72ffff" stroke-width="0.5"/>
  <path d="m3.37,10.33c5.41,1.62 13.46,1.8 18.18,-0.3" fill="none" id="svg_4" stroke="#72ffff" stroke-width="0.5"/>
  <path d="m5.06,7.6c3.49,1.65 12.15,1.87 14.8,0" fill="none" id="svg_5" stroke="#72ffff" stroke-width="0.5"/>
  <path d="m12.16,4.16c1.13,0.21 1.95,1.07 2.29,2.08" fill="none" id="svg_31" stroke="#72ffff" stroke-width="0.5"/>
  <path d="m7.39,5.41c0.48,1.11 8.91,1.38 10.08,0.15" fill="none" id="svg_6" stroke="#72ffff" stroke-width="0.5"/>
  <path d="m2.53,16.32c-0.37,0.71 -0.33,2.02 -0.35,2.48" fill="none" id="svg_7" stroke="#72ffff" stroke-linejoin="bevel" stroke-width="0.5"/>
  <path d="m4.86,16.87c-0.21,0.76 -0.33,1.92 -0.4,2.63" fill="none" id="svg_8" stroke="#72ffff" stroke-width="0.5"/>
  <path d="m15.49,17.4c0.29,0.81 0.32,1.82 0.3,2.44" fill="none" id="svg_9" stroke="#72ffff" stroke-width="0.5"/>
  <path d="m19.47,17.01c0.33,0.91 0.46,1.52 0.49,2.38" fill="none" id="svg_10" stroke="#72ffff" stroke-width="0.5"/>
  <path d="m22.4,16.11c0.23,0.86 0.31,1.62 0.34,2.48" fill="none" id="svg_11" stroke="#72ffff" stroke-width="0.5"/>
  <path d="m22.45,12.98c0.33,0.86 0.66,2.07 0.64,2.83" fill="none" id="svg_12" stroke="#72ffff" stroke-width="0.5"/>
  <path d="m2.83,13.29c-0.17,-0.73 0.26,-2.25 0.79,-2.98" fill="none" id="svg_13" stroke="#72ffff" stroke-width="0.5"/>
  <path d="m23.27,14.88c-0.31,-3.15 -3.84,-11.06 -10.85,-11.1c-7.01,-0.04 -10.27,7.88 -10.65,11.35c-0.37,3.48 -0.61,3.53 1.49,4.16c2.1,0.63 3.29,0.78 4.51,0.84l-1,1l4,0l1,-1c1.71,-0.04 6.38,-0.26 9.21,-0.93c2.83,-0.67 2.6,-1.16 2.29,-4.32z" fill="#000000" fill-opacity="0" id="svg_14" stroke="#000000" stroke-width="0.3" transform="matrix(1, 0, 0, 1, 0, 0)"/>
  <path d="m11.77,20.03c-0.02,-1.88 -0.49,-4.89 -2,-4.9c-1.51,-0.01 -2.13,0.92 -2.25,1.5" fill="#ffffff" id="svg_15" stroke="#72ffff" stroke-width="0.5"/>
  <path d="m10.87,17.23c0.37,0.59 0.15,2.17 0.27,3.2c0.13,-1.03 -0.64,-3.79 -0.27,-3.2z" fill="none" id="svg_16" stroke="#72ffff" stroke-linecap="round" stroke-linejoin="round" stroke-width="0.3"/>
  <polyline fill="none" id="svg_17" points="10.869,19.465 11.407,18.910 " stroke="#72ffff" stroke-linecap="round" stroke-linejoin="bevel" stroke-width="0.5"/>
  <polyline fill="none" id="svg_18" points="10.472,17.677 11.128,16.972 " stroke="#72ffff" stroke-linecap="round" stroke-width="0.5"/>
  <line fill="none" id="svg_19" stroke="#72ffff" stroke-width="0.5" x1="9.63" x2="8.98" y1="15.2" y2="16.09"/>
  <path d="m6.68,21.13c-0.1,-4.05 0.77,-4.98 2,-5c1.23,-0.02 1.96,1.1 2,5l-4,0z" fill="#ffffff" id="svg_20" stroke="#000000" stroke-linejoin="round" stroke-width="0.3"/>
  <line fill="none" fill-opacity="0" id="svg_21" stroke="#99ffff" stroke-width="0.2" x1="10.47" x2="10.31" y1="19.6" y2="19.6"/>
  <path d="m7.19,20.88l3,0c-0.1,-1.39 0.29,-4.21 -1.5,-4.25c-1.79,-0.04 -1.5,2.9 -1.5,4.25z" fill="#000b16" id="svg_22" stroke="#99ffff" stroke-width="0.2"/>
  <line fill="none" fill-opacity="0" id="svg_23" stroke="#99ffff" stroke-width="0.2" x1="8.76" x2="8.87" y1="16.3" y2="16.71"/>
  <line fill="none" fill-opacity="0" id="svg_24" stroke="#99ffff" stroke-width="0.2" x1="9.93" x2="9.96" y1="17.28" y2="17.33"/>
  <line fill="none" fill-opacity="0" id="svg_25" stroke="#99ffff" stroke-width="0.2" x1="7.45" x2="7.6" y1="17" y2="17.21"/>
  <line fill="none" fill-opacity="0" id="svg_26" stroke="#99ffff" stroke-width="0.2" x1="6.87" x2="7.22" y1="20.6" y2="20.63"/>
  <line fill="none" fill-opacity="0" id="svg_27" stroke="#99ffff" stroke-width="0.2" x1="7.25" x2="6.95" y1="18.76" y2="18.76"/>
  <path d="m9.38,15.74c0.76,0.19 1.14,0.68 1.41,1.32" fill="none" id="svg_28" stroke="#72ffff" stroke-linecap="round" stroke-width="0.3"/>
  <path d="m8.54,5.89c0.62,-0.53 1.75,-1.6 3.37,-1.69" fill="none" id="svg_32" stroke="#72ffff" stroke-width="0.5"/>
  <ellipse cx="12.39" cy="4.02" fill="#72ffff" id="svg_58" rx="0.84" ry="0.07" stroke="#000000" stroke-dasharray="null" stroke-linecap="null" stroke-linejoin="null" stroke-opacity="0" stroke-width="0.5"/>
  <path d="m12.16,4.2c1.82,0.12 3.69,0.58 4.17,1.69" fill="none" id="svg_33" stroke="#72ffff" stroke-width="0.5" transform="matrix(1, 0, 0, 1, 0, 0)"/>
  <path d="m7.74,5.64c-0.71,0.72 -1.17,1.43 -1.29,2.29" fill="none" id="svg_34" stroke="#72ffff" stroke-width="0.5"/>
  <path d="m9.43,6.09c-0.36,0.91 -0.63,1.52 -0.64,2.34" fill="none" id="svg_35" stroke="#72ffff" stroke-width="0.5"/>
  <path d="m11.66,6.34c-0.06,1.11 -0.13,1.77 -0.1,2.48" fill="none" id="svg_36" stroke="#72ffff" stroke-width="0.5"/>
  <path d="m13.65,6.34c0.23,0.71 0.46,1.57 0.5,2.43" fill="none" id="svg_37" stroke="#72ffff" stroke-width="0.5"/>
  <path d="m15.74,6.29c0.58,0.56 0.76,1.37 0.99,2.23" fill="none" id="svg_38" stroke="#72ffff" stroke-width="0.5"/>
  <path d="m17.32,5.79c0.73,0.67 1.36,1.58 1.59,2.19" fill="none" id="svg_39" stroke="#72ffff" stroke-width="0.5"/>
  <path d="m7.44,8.52c-0.21,0.77 -0.48,1.68 -0.44,2.49" fill="none" id="svg_40" stroke="#72ffff" stroke-width="0.5"/>
  <path d="m5.51,7.93c-0.42,0.71 -0.98,1.77 -1,2.63" fill="none" id="svg_41" stroke="#72ffff" stroke-width="0.5"/>
  <path d="m5.86,10.91c-0.47,1.11 -0.53,1.72 -0.65,2.73" fill="none" id="svg_42" stroke="#72ffff" stroke-width="0.5"/>
  <path d="m4.07,13.64c-0.27,0.91 -0.48,2.22 -0.45,3.03" fill="none" id="svg_43" stroke="#72ffff" stroke-width="0.5"/>
  <path d="m9.78,11.5c-0.07,-0.92 0.16,-1.7 0.29,-2.68" fill="none" id="svg_44" stroke="#72ffff" stroke-width="0.5"/>
  <path d="m8.34,11.4c-0.17,0.87 -0.28,1.82 -0.3,2.64" fill="none" id="svg_45" stroke="#72ffff" stroke-width="0.5"/>
  <path d="m6.5,13.99c-0.26,0.81 -0.43,1.82 -0.45,3.03" fill="none" id="svg_46" stroke="#72ffff" stroke-width="0.5"/>
  <path d="m13.06,9.01c0.13,0.66 0.17,1.77 0.1,2.48" fill="none" id="svg_47" stroke="#72ffff" stroke-width="0.5"/>
  <path d="m11.37,11.54c-0.06,1.11 -0.03,2.12 0,2.83" fill="none" id="svg_48" stroke="#72ffff" stroke-width="0.5"/>
  <path d="m9.73,14.28l-0.04,0.79" fill="none" id="svg_49" stroke="#72ffff" stroke-width="0.5"/>
  <path d="m15.69,8.86c0.38,0.86 0.52,1.48 0.65,2.39" fill="none" id="svg_50" stroke="#72ffff" stroke-width="0.5"/>
  <path d="m18.13,8.37c0.58,0.66 1.06,1.62 1.09,2.43" fill="none" id="svg_51" stroke="#72ffff" stroke-width="0.5"/>
  <path d="m14.75,11.45c0.28,0.85 0.36,1.76 0.4,2.73" fill="none" id="svg_52" stroke="#72ffff" stroke-width="0.5"/>
  <path d="m18.03,11.15c0.33,0.71 0.61,1.77 0.69,2.73" fill="none" id="svg_53" stroke="#72ffff" stroke-width="0.5"/>
  <path d="m20.41,10.45c0.53,0.66 1.01,2.02 1.04,2.73" fill="none" id="svg_54" stroke="#72ffff" stroke-width="0.5"/>
  <path d="m13.26,14.67c0.08,1.01 0.12,1.97 0.15,2.68" fill="none" id="svg_55" stroke="#72ffff" stroke-width="0.5"/>
  <path d="m17.08,14.22c0.33,1.06 0.52,2.17 0.4,2.89" fill="none" id="svg_56" stroke="#72ffff" stroke-width="0.5"/>
  <path d="m20.16,13.58c0.38,0.91 0.76,2.07 0.8,3.03" fill="none" id="svg_57" stroke="#72ffff" stroke-width="0.5"/>
 </g>
</svg>