<?xml version="1.0"?>
<svg id="symbol" viewBox="0 0 25 25" xmlns="http://www.w3.org/2000/svg" xmlns:svg="http://www.w3.org/2000/svg">
 <!-- Created with SVG-edit - https://github.com/SVG-Edit/svgedit-->
 <!-- Created by Aleksy Slizewski -->
 <g class="layer">
  <title>kite</title>
  <path d="m8.49,24.38l0.05,-2.27c-0.33,-0.21 -1.21,0.21 -1.09,0.53l2.14,1.46c0.26,0.24 -0.77,0.66 -1.09,0.28l-0.01,0z" fill="#ffff00" id="svg_6" stroke="#000000" stroke-dasharray="null" stroke-linecap="round" stroke-linejoin="round" stroke-opacity="null" stroke-width="0.2" transform="matrix(1, 0, 0, 1, 0, 0)"/>
  <path d="m10.71,23.96l-0.14,-2.6c-0.37,-0.18 -0.84,0.07 -0.94,0.43l2.04,1.5c-0.16,0.55 -0.64,0.66 -0.96,0.67z" fill="#ff0000" id="svg_5" stroke="#000000" stroke-dasharray="null" stroke-linecap="round" stroke-linejoin="round" stroke-opacity="null" stroke-width="0.2"/>
  <path d="m13.02,22.17l-0.99,-2.06c-0.24,-0.18 -1.05,0.53 -0.75,1.07l2.57,0.25c0.24,0.58 -0.46,0.94 -0.83,0.74z" fill="#ff00ff" id="svg_4" stroke="#000000" stroke-dasharray="null" stroke-linecap="round" stroke-linejoin="round" stroke-width="0.2"/>
  <path d="m14.12,19.94l-1.36,-1.56c-0.43,0.22 -0.64,0.68 -0.64,1.09l2.68,-0.6c0.03,0.54 -0.16,0.98 -0.67,1.07l-0.01,0z" fill="#ff7f00" id="svg_3" stroke="#000000" stroke-dasharray="null" stroke-linecap="round" stroke-linejoin="round" stroke-width="0.2" transform="matrix(1, 0, 0, 1, 0, 0)"/>
  <path d="m13.53,18.15c0.21,1.07 -0.48,2.53 -1.07,3.35c-0.59,0.82 -4.29,1.95 -5.41,2.33" fill="#000000" fill-opacity="0" id="svg_2" stroke="#7f3f00" stroke-dasharray="null" stroke-linecap="round" stroke-linejoin="round" stroke-width="0.2"/>
  <path d="m13.6,1.1l6.5,7l-6.5,10l-6.5,-10l6.5,-7z" fill="#00bf00" id="svg_1" stroke="#000000" stroke-dasharray="null" stroke-linecap="round" stroke-linejoin="round" stroke-width="0.2"/>
  <line fill="none" fill-opacity="0" id="svg_8" stroke="#cd853f" stroke-dasharray="null" stroke-linecap="round" stroke-linejoin="round" stroke-width="0.4" transform="matrix(1, 0, 0, 1, 0, 0)" x1="13.6" x2="13.6" y1="1.2" y2="18"/>
  <line fill="none" fill-opacity="0" id="svg_9" stroke="#cd853f" stroke-dasharray="null" stroke-linecap="round" stroke-linejoin="round" stroke-opacity="null" stroke-width="0.4" x1="7.35" x2="19.85" y1="8.15" y2="8.15"/>
  <path d="m13.6,1.1l6.5,7l-6.5,10l-6.5,-10l6.5,-7z" fill="none" id="svg_7" stroke="#000000" stroke-dasharray="null" stroke-linecap="round" stroke-linejoin="round" stroke-width="0.2"/>
 </g>
</svg>