<?xml version="1.0"?>
<svg id="symbol" viewBox="0 0 25 25" xmlns="http://www.w3.org/2000/svg" xmlns:svg="http://www.w3.org/2000/svg">
 <!-- Created with SVG-edit - https://github.com/SVG-Edit/svgedit-->
 <!-- Created by Aleksy Slizewski -->
 <g class="layer">
  <title>lantern</title>
  <path d="m12.5,10l0,0c0.8,0.74 1.68,2.45 0,3l0,0c-1.73,-0.06 -0.27,-1.57 0,-3z" fill="#ff0000" id="svg_11" stroke="#000000" stroke-dasharray="null" stroke-linecap="round" stroke-linejoin="null" stroke-opacity="null" stroke-width="0.2"/>
  <path d="m12.5,11l0,0c0.85,0.59 0.78,1.1 0,1.5l0,0c-0.98,-0.21 -0.07,-0.61 0,-1.5z" fill="#ffff00" id="svg_12" stroke="#000000" stroke-dasharray="null" stroke-linecap="round" stroke-linejoin="null" stroke-opacity="null" stroke-width="0.2" transform="matrix(1, 0, 0, 1, 0, 0)"/>
  <line fill="none" id="svg_10" stroke="#000000" stroke-dasharray="null" stroke-linecap="round" stroke-linejoin="null" stroke-opacity="null" stroke-width="0.2" x1="12.5" x2="12.5" y1="13" y2="14"/>
  <rect fill="#f0fff0" height="7" id="svg_9" stroke="#000000" stroke-dasharray="null" stroke-linecap="round" stroke-linejoin="null" stroke-opacity="null" stroke-width="0.2" width="3" x="11" y="14"/>
  <path d="m7,21c-0.87,0.02 -2.98,2.28 -3,3l17,0c0.03,-0.77 -1.94,-2.98 -3,-3l-11,0z" fill="#070707" id="svg_1" stroke="#000000" stroke-dasharray="null" stroke-linecap="round" stroke-linejoin="null" stroke-opacity="null" stroke-width="0.2"/>
  <path d="m12.5,0.5l0,1c-0.77,0.05 -1.48,0.6 -1.5,1c-0.02,0.4 0.59,1 1.5,1c0.91,0 1.47,-0.55 1.5,-1c0.03,-0.45 -0.83,-1 -1.5,-1l0,-1c1.04,-0.05 2.43,0.73 2.5,2c0.07,1.27 -0.96,2 -2,2l0,0.5c2.26,0.02 3.58,0.63 4,1c0.42,0.37 1.02,1.53 1,2l-11,0c-0.02,-0.42 0.43,-1.53 1,-2c0.57,-0.47 1.89,-0.98 4,-1l0,-0.5c-0.92,-0.02 -1.98,-0.73 -2,-2c-0.02,-1.27 1.51,-2 2.5,-2z" fill="#070707" id="svg_5" stroke="#000000" stroke-dasharray="null" stroke-linecap="round" stroke-linejoin="null" stroke-opacity="0" stroke-width="0.2"/>
  <path d="m7,8l11,0c2.14,3.99 2.53,8.62 0,13l-11,0c-1.94,-4.23 -2.23,-9.11 0,-13z" fill="#e5e5e5" fill-opacity="0.67" id="svg_6" stroke="#000000" stroke-dasharray="null" stroke-linecap="round" stroke-linejoin="null" stroke-opacity="null" stroke-width="0.2" transform="matrix(1, 0, 0, 1, 0, 0)"/>
  <path d="m18,8c-0.46,6.6 -5.62,13.15 -11,13" fill="#000000" fill-opacity="0" id="svg_7" stroke="#000000" stroke-dasharray="null" stroke-linecap="round" stroke-linejoin="null" stroke-opacity="null" stroke-width="0.2" transform="matrix(1, 0, 0, 1, 0, 0)"/>
  <path d="m7,8c0.33,6.9 5.85,13 11,13" fill="#000000" fill-opacity="0" id="svg_8" stroke="#000000" stroke-dasharray="null" stroke-linecap="round" stroke-linejoin="null" stroke-opacity="null" stroke-width="0.2"/>
  <path d="m5.5,14c3.92,2.14 9.68,1.94 14.25,0" fill="none" fill-opacity="null" id="svg_14" stroke="#000000" stroke-dasharray="null" stroke-linecap="round" stroke-linejoin="null" stroke-opacity="null" stroke-width="0.2"/>
  <path d="m12.5,1.5c-0.77,0.05 -1.48,0.6 -1.5,1c-0.02,0.4 0.59,1 1.5,1c0.91,0 1.47,-0.55 1.5,-1c0.03,-0.45 -0.83,-1 -1.5,-1l0,0z" fill="#000000" fill-opacity="0" id="svg_15" stroke="#000000" stroke-dasharray="null" stroke-linecap="round" stroke-linejoin="null" stroke-width="0.2"/>
  <path d="m12.5,0.5l0,0c1.04,-0.05 2.43,0.73 2.5,2c0.07,1.27 -0.96,2 -2,2l0,0.5c2.26,0.02 3.58,0.63 4,1c0.42,0.37 1.02,1.53 1,2l-11,0c-0.02,-0.42 0.43,-1.53 1,-2c0.57,-0.47 1.89,-0.98 4,-1l0,-0.5c-0.92,-0.02 -1.98,-0.73 -2,-2c-0.02,-1.27 1.51,-2 2.5,-2z" fill="#000000" fill-opacity="0" id="svg_16" stroke="#000000" stroke-dasharray="null" stroke-linecap="round" stroke-linejoin="null" stroke-width="0.2"/>
 </g>
</svg>