<?xml version="1.0"?>
<svg viewBox="0 0 25 25" xmlns="http://www.w3.org/2000/svg" xmlns:svg="http://www.w3.org/2000/svg">
 <!-- Created with SVG-edit - https://github.com/SVG-Edit/svgedit-->
 <!-- Created by Aleksy Slizewski --> <g class="layer">
  <title>leaf</title>
  <path d="m1.85,21.85l5.4,-5.6c-2.18,-5.23 0.61,-9.75 3.75,-10.25c3.14,-0.5 8.3,-1.21 10,-3l0,0c-1.89,1.69 -1.09,9.29 -3,12c-1.91,2.71 -6.1,4.16 -10.25,1.75l-5.1,5.9l-0.8,-0.8z" fill="#00a800" id="svg_4" stroke="#000000" stroke-dasharray="null" stroke-linecap="round" stroke-linejoin="null" stroke-opacity="null" stroke-width="0.2"/>
  <line fill="none" fill-opacity="null" id="svg_5" stroke="#00bf00" stroke-dasharray="null" stroke-linecap="round" stroke-linejoin="null" stroke-width="0.2" transform="matrix(1, 0, 0, 1, 0, 0)" x1="8" x2="19" y1="16" y2="5"/>
  <path d="m11.5,12.5c0.89,0.99 3.42,2.31 5,2" fill="none" fill-opacity="null" id="svg_6" stroke="#00bf00" stroke-dasharray="null" stroke-linecap="round" stroke-linejoin="null" stroke-width="0.2" transform="matrix(1, 0, 0, 1, 0, 0)"/>
  <path d="m8,10c-0.38,1.46 0.5,3.49 1.25,4.75" fill="none" fill-opacity="null" id="svg_8" stroke="#00bf00" stroke-dasharray="null" stroke-linecap="round" stroke-linejoin="null" stroke-width="0.2" transform="matrix(1, 0, 0, 1, 0, 0)"/>
  <path d="m13,8c0.15,1.05 0.45,1.17 1,2" fill="none" fill-opacity="null" id="svg_9" stroke="#00bf00" stroke-dasharray="null" stroke-linecap="round" stroke-linejoin="null" stroke-width="0.2" transform="matrix(1, 0, 0, 1, 0, 0)"/>
  <path d="m10.5,13.5c1.01,0.99 0.8,0.95 2.5,1.5" fill="none" fill-opacity="null" id="svg_10" stroke="#00bf00" stroke-dasharray="null" stroke-linecap="round" stroke-linejoin="null" stroke-width="0.2" transform="matrix(1, 0, 0, 1, 0, 0)"/>
  <path d="m10,8c-0.45,1.41 -0.19,3.84 1,5" fill="none" fill-opacity="null" id="svg_11" stroke="#00bf00" stroke-dasharray="null" stroke-linecap="round" stroke-linejoin="null" stroke-width="0.2" transform="matrix(1, 0, 0, 1, 0, 0)"/>
  <path d="m13.5,10.5c0.53,0.81 2.23,1.73 3.5,1.5" fill="none" fill-opacity="null" id="svg_12" stroke="#00bf00" stroke-dasharray="null" stroke-linecap="round" stroke-linejoin="null" stroke-width="0.2" transform="matrix(1, 0, 0, 1, 0, 0)"/>
  <path d="m11.5,7.5c0.25,1.76 0.98,3.19 1.5,3.5" fill="none" fill-opacity="null" id="svg_13" stroke="#00bf00" stroke-dasharray="null" stroke-linecap="round" stroke-linejoin="null" stroke-width="0.2" transform="matrix(1, 0, 0, 1, 0, 0)"/>
  <path d="m15,9c0.68,0.69 1.27,0.7 2,1" fill="none" fill-opacity="null" id="svg_14" stroke="#00bf00" stroke-dasharray="null" stroke-linecap="round" stroke-linejoin="null" stroke-width="0.2" transform="matrix(1, 0, 0, 1, 0, 0)"/>
  <path d="m15.5,6.5c-0.02,0.51 0.24,1.02 0.5,1.5" fill="none" fill-opacity="null" id="svg_16" stroke="#00bf00" stroke-dasharray="null" stroke-linecap="round" stroke-linejoin="null" stroke-width="0.2" transform="matrix(1, 0, 0, 1, 0, 0)"/>
  <path d="m16.5,7.5c0.5,0.37 0.95,0.38 1.5,0.5" fill="none" fill-opacity="null" id="svg_17" stroke="#00bf00" stroke-dasharray="null" stroke-linecap="round" stroke-linejoin="null" stroke-width="0.2" transform="matrix(1, 0, 0, 1, 0, 0)"/>
  <path d="m17.25,5.5c0.15,0.25 0.05,0.6 0.5,0.75" fill="none" fill-opacity="null" id="svg_18" stroke="#00bf00" stroke-dasharray="null" stroke-linecap="round" stroke-linejoin="null" stroke-width="0.2" transform="matrix(1, 0, 0, 1, 0, 0)"/>
  <path d="m19.25,5.75c-0.38,0.12 -0.92,0.43 -1.25,0.25" fill="none" fill-opacity="null" id="svg_19" stroke="#00bf00" stroke-dasharray="null" stroke-linecap="round" stroke-linejoin="null" stroke-width="0.2" transform="matrix(1, 0, 0, 1, 0, 0)"/>
  <path d="m11,10c-0.05,0.54 0.1,1.37 1,2" fill="none" fill-opacity="null" id="svg_20" stroke="#00bf00" stroke-dasharray="null" stroke-linecap="round" stroke-linejoin="null" stroke-width="0.2" transform="matrix(1, 0, 0, 1, 0, 0)"/>
  <path d="m12.5,11.5c1.25,1.02 2.11,1.3 3.5,1.5" fill="none" fill-opacity="null" id="svg_21" stroke="#00bf00" stroke-dasharray="null" stroke-linecap="round" stroke-linejoin="null" stroke-width="0.2" transform="matrix(1, 0, 0, 1, 0, 0)"/>
  <path d="m15.75,8.25c0.36,0.36 0.74,0.54 1.25,0.5" fill="none" fill-opacity="null" id="svg_23" stroke="#00bf00" stroke-dasharray="null" stroke-linecap="round" stroke-linejoin="null" stroke-width="0.2" transform="matrix(1, 0, 0, 1, 0, 0)"/>
  <path d="m14.25,9.75c0.4,0.63 0.92,0.87 1.56,0.95" fill="none" fill-opacity="null" id="svg_27" stroke="#00bf00" stroke-dasharray="null" stroke-linecap="round" stroke-linejoin="null" stroke-width="0.2" transform="matrix(1, 0, 0, 1, 0, 0)"/>
  <path d="m14.75,7.5c0.16,0.46 0.29,0.89 0.6,1.15" fill="none" fill-opacity="null" id="svg_28" stroke="#00bf00" stroke-dasharray="null" stroke-linecap="round" stroke-linejoin="null" stroke-width="0.2" transform="matrix(1, 0, 0, 1, 0, 0)"/>
  <path d="m13.75,7c0.09,0.58 0.31,1.82 0.9,2.35" fill="none" fill-opacity="null" id="svg_29" stroke="#00bf00" stroke-dasharray="null" stroke-linecap="round" stroke-linejoin="null" stroke-width="0.2" transform="matrix(1, 0, 0, 1, 0, 0)"/>
  <path d="m16.5,6c-0.11,0.26 0.12,0.83 0.5,1" fill="none" fill-opacity="null" id="svg_30" stroke="#00bf00" stroke-dasharray="null" stroke-linecap="round" stroke-linejoin="null" stroke-width="0.2" transform="matrix(1, 0, 0, 1, 0, 0)"/>
  <path d="m18.5,6.75c-0.37,0.15 -0.73,0.1 -1.1,-0.15" fill="none" fill-opacity="null" id="svg_31" stroke="#00bf00" stroke-dasharray="null" stroke-linecap="round" stroke-linejoin="null" stroke-width="0.2" transform="matrix(1, 0, 0, 1, 0, 0)"/>
  <path d="m8.81,15.17c0.61,0.73 1.38,1.05 2.19,1.33" fill="none" fill-opacity="null" id="svg_32" stroke="#00bf00" stroke-dasharray="null" stroke-linecap="round" stroke-linejoin="null" stroke-width="0.2" transform="matrix(1, 0, 0, 1, 0, 0)"/>
  <path d="m7.5,14c0.15,0.65 0.5,0.85 1,1.5" fill="none" fill-opacity="null" id="svg_33" stroke="#00bf00" stroke-dasharray="null" stroke-linecap="round" stroke-linejoin="null" stroke-width="0.2" transform="matrix(1, 0, 0, 1, 0, 0)"/>
  <path d="m9.06,11.99c0.15,0.81 0.39,1.15 0.94,1.86" fill="none" fill-opacity="null" id="svg_34" stroke="#00bf00" stroke-dasharray="null" stroke-linecap="round" stroke-linejoin="null" stroke-width="0.2" transform="matrix(1, 0, 0, 1, 0, 0)"/>
  <path d="m9.81,14.37c1.22,1.03 2.37,1.79 3.69,2.13" fill="none" fill-opacity="null" id="svg_35" stroke="#00bf00" stroke-dasharray="null" stroke-linecap="round" stroke-linejoin="null" stroke-width="0.2" transform="matrix(1, 0, 0, 1, 0, 0)"/>
 </g>
</svg>