<?xml version="1.0"?>
<svg viewBox="0 0 25 25" xmlns="http://www.w3.org/2000/svg" xmlns:svg="http://www.w3.org/2000/svg">
 <!-- Created with SVG-edit - https://github.com/SVG-Edit/svgedit-->
 <!-- Created by Aleksy Slizewski --> <g class="layer">
  <title>letter</title>
  <path d="m2,7l21,0l0,11l-21,0l0,-11z" fill="#000000" fill-opacity="0" id="svg_3" stroke="#000000" stroke-dasharray="null" stroke-linecap="null" stroke-linejoin="null" stroke-opacity="null" stroke-width="0.2" transform="matrix(1, 0, 0, 1, 0, 0)"/>
  <path d="m2.01,6.93c2.9,3.05 6.69,6.56 10.5,6.48c3.81,-0.08 7.46,-3.14 10.38,-6.36" fill="#000000" fill-opacity="0" id="svg_4" stroke="#000000" stroke-dasharray="null" stroke-linecap="null" stroke-linejoin="null" stroke-opacity="null" stroke-width="0.2"/>
  <line fill="none" fill-opacity="0" id="svg_5" stroke="#000000" stroke-dasharray="null" stroke-linecap="null" stroke-linejoin="null" stroke-opacity="null" stroke-width="0.2" transform="matrix(1, 0, 0, 1, 0, 0)" x1="2" x2="8.71" y1="18" y2="12.44"/>
  <line fill="none" fill-opacity="0" id="svg_6" stroke="#000000" stroke-dasharray="null" stroke-linecap="null" stroke-linejoin="null" stroke-opacity="null" stroke-width="0.2" x1="22.91" x2="16.21" y1="17.95" y2="12.44"/>
  <circle cx="12.5" cy="13.25" fill="#bf0000" id="svg_7" r="2.5" stroke="#000000" stroke-dasharray="null" stroke-linecap="null" stroke-linejoin="null" stroke-opacity="null" stroke-width="0.2"/>
  <circle cx="12.5" cy="13.25" fill="#bf0000" id="svg_8" r="2.25" stroke="#7f0000" stroke-dasharray="null" stroke-linecap="null" stroke-linejoin="null" stroke-width="0.2"/>
  <polyline fill="none" fill-opacity="null" id="svg_11" opacity="0.5" points="12.537240505218506,12.338630065321922 " stroke="#7f0000" stroke-dasharray="null" stroke-linecap="round" stroke-linejoin="null" stroke-opacity="null" stroke-width="0.2"/>
  <polyline fill="none" fill-opacity="0" id="svg_13" opacity="0.5" points="12.586892940104008,14.67229450494051 " stroke="#000000" stroke-dasharray="null" stroke-linecap="round" stroke-linejoin="null" stroke-opacity="null" stroke-width="0.2"/>
  <path d="m11.2,12.39c0.2,-0.79 0.89,-0.79 1.09,0.24l0.39,1.45c0.26,1.09 1.15,0.77 1,0.06" fill="none" fill-opacity="null" id="svg_14" stroke="#7f0000" stroke-dasharray="null" stroke-linecap="null" stroke-linejoin="null" stroke-width="0.2"/>
  <line fill="none" fill-opacity="null" id="svg_15" stroke="#7f0000" stroke-dasharray="null" stroke-linecap="null" stroke-linejoin="null" stroke-opacity="null" stroke-width="0.2" x1="11.79" x2="13.23" y1="13.63" y2="12.98"/>
 </g>
</svg>