<?xml version="1.0"?>
<svg viewBox="0 0 25 25" xmlns="http://www.w3.org/2000/svg" xmlns:svg="http://www.w3.org/2000/svg">
 <!-- Created with SVG-edit - https://github.com/SVG-Edit/svgedit-->
 <!-- Created by Aleksy Slizewski --> <g class="layer">
  <title>maple leaf</title>
  <path d="m12.5,1c-0.5,1.33 -1.15,3.91 -1.5,4c-0.35,0.09 -2,-1.33 -3,-2l2.25,6.5c0.13,0.32 -0.23,0.68 -0.5,0.5l-3.75,-3c0,0.67 0.3,1.83 0,2c-0.3,0.17 -2.33,-0.33 -3.5,-0.5c0.67,1.08 2.05,2.93 2,3.25c-0.05,0.32 -1,0.83 -1.5,1.25l6,3l-2,2c1.75,-0.33 4.99,-1.5 5.25,-1c0.26,0.5 -0.17,4.67 -0.25,7l1,0c-0.08,-2.33 -0.46,-6.55 -0.25,-7c0.21,-0.45 3.5,0.67 5.25,1l-2,-2l6,-3c-0.5,-0.42 -1.45,-1.03 -1.5,-1.25c-0.05,-0.22 1.33,-2.17 2,-3.25c-1.17,0.17 -3.33,0.73 -3.5,0.5c-0.17,-0.23 0,-1.33 0,-2l-3.75,3c-0.32,0.18 -0.68,-0.18 -0.5,-0.5l2.25,-6.5c-1,0.67 -2.65,2.13 -3,2c-0.35,-0.13 -1,-2.67 -1.5,-4z" fill="#ff0000" id="svg_3" stroke="#000000" stroke-dasharray="null" stroke-linecap="square" stroke-linejoin="null" stroke-opacity="null" stroke-width="0.2"/>
 </g>
</svg>