<?xml version="1.0"?>
<svg viewBox="0 0 25 25" xmlns="http://www.w3.org/2000/svg" xmlns:svg="http://www.w3.org/2000/svg">
 <!-- Created with SVG-edit - https://github.com/SVG-Edit/svgedit-->
 <!-- Created by Aleksy Slizewski --> <g class="layer">
  <title>mask</title>
  <path d="m8,14.22c-1.11,-0.02 -2.58,-1.18 -2.5,-1.75c0.08,-0.57 1.2,-1.37 2.5,-1.25c1.3,0.12 2.36,1.23 2.5,1.75c0.14,0.52 -1.4,1.23 -2.5,1.25l0,4c1.8,-0.07 3.25,-1.97 4.5,-2c1.25,-0.03 2.7,1.93 4.5,2l0,-4c-1.13,0 -2.61,-0.7 -2.5,-1.25c0.11,-0.55 1.37,-1.55 2.5,-1.75c1.13,-0.2 2.35,0.8 2.5,1.25c0.15,0.45 -1.35,1.75 -2.5,1.75l0,4c1.91,-0.13 5.08,-2.19 6,-5c0.92,-2.81 1.14,-7.07 0,-8c-1.14,-0.93 -8.09,3.94 -10.5,4c-2.41,0.06 -9.34,-4.82 -10.5,-4c-1.16,0.82 -1.03,4.81 0,8c1.03,3.19 4.09,4.92 6,5l0,-4z" fill="#00007f" id="svg_2" stroke="#000000" stroke-dasharray="null" stroke-linecap="null" stroke-linejoin="null" stroke-opacity="0" stroke-width="0.2"/>
  <path d="m8,18.22c1.8,-0.07 3.25,-1.97 4.5,-2c1.25,-0.03 2.7,1.93 4.5,2l0,0c1.91,-0.13 5.08,-2.19 6,-5c0.92,-2.81 1.14,-7.07 0,-8c-1.14,-0.93 -8.09,3.94 -10.5,4c-2.41,0.06 -9.34,-4.82 -10.5,-4c-1.16,0.82 -1.03,4.81 0,8c1.03,3.19 4.09,4.92 6,5l0,0z" fill="#000000" fill-opacity="0" id="svg_5" stroke="#000000" stroke-dasharray="null" stroke-linecap="null" stroke-linejoin="null" stroke-width="0.2"/>
  <path d="m17,14.22c-1.13,0 -2.61,-0.7 -2.5,-1.25c0.11,-0.55 1.37,-1.55 2.5,-1.75c1.13,-0.2 2.35,0.8 2.5,1.25c0.15,0.45 -1.35,1.75 -2.5,1.75l0,0z" fill="#000000" fill-opacity="0" id="svg_6" stroke="#000000" stroke-dasharray="null" stroke-linecap="null" stroke-linejoin="null" stroke-width="0.2"/>
  <path d="m8,14.22c-1.11,-0.02 -2.58,-1.18 -2.5,-1.75c0.08,-0.57 1.2,-1.37 2.5,-1.25c1.3,0.12 2.36,1.23 2.5,1.75c0.14,0.52 -1.4,1.23 -2.5,1.25l0,0z" fill="#000000" fill-opacity="0" id="svg_7" stroke="#000000" stroke-dasharray="null" stroke-linecap="null" stroke-linejoin="null" stroke-width="0.2"/>
 </g>
</svg>