<?xml version="1.0"?>
<svg viewBox="0 0 25 25" xmlns="http://www.w3.org/2000/svg" xmlns:svg="http://www.w3.org/2000/svg">
 <!-- Created with SVG-edit - https://github.com/SVG-Edit/svgedit-->
 <!-- Created by Aleksy Slizewski --> <g class="layer">
  <title>pawn</title>
  <path d="m3,23c0.06,-1.3 1.9,-2.99 3,-3l13,0c1.1,0.01 2.94,1.8 3,3l-19,0z" fill="#fffff0" id="svg_1" stroke="#000000" stroke-dasharray="null" stroke-linecap="null" stroke-linejoin="null" stroke-opacity="null" stroke-width="0.2"/>
  <path d="m6,20c0.11,-1.05 2.43,-2.51 3,-3c0.57,-0.49 2.33,-3.07 2.5,-4.5c0.17,-1.43 0.73,-2.56 -0.5,-4.5l3,0c-1.33,1.94 -0.76,3.11 -0.5,4.5c0.26,1.39 1.98,4.01 2.5,4.5c0.52,0.49 2.89,1.9 3,3l-13,0z" fill="#fffff0" id="svg_2" stroke="#000000" stroke-dasharray="null" stroke-linecap="null" stroke-linejoin="null" stroke-opacity="null" stroke-width="0.2"/>
  <path d="m11,6c0.2,0.87 0.45,1.38 0,2l3,0c-0.52,-0.68 -0.22,-1.22 0,-2l-3,0z" fill="#fffff0" fill-opacity="null" id="svg_8" stroke="#000000" stroke-dasharray="null" stroke-linecap="null" stroke-linejoin="null" stroke-opacity="null" stroke-width="0.2"/>
  <circle cx="12.5" cy="4" fill="#fffff0" fill-opacity="null" id="svg_3" r="3" stroke="#000000" stroke-dasharray="null" stroke-linecap="null" stroke-linejoin="null" stroke-opacity="null" stroke-width="0.2" transform="matrix(1, 0, 0, 1, 0, 0)"/>
  <circle cx="12.54" cy="4.1" fill="#fffff0" fill-opacity="null" id="svg_4" opacity="0.5" r="0" stroke="#000000" stroke-dasharray="null" stroke-linecap="null" stroke-linejoin="null" stroke-opacity="null" stroke-width="0.2"/>
  <ellipse cx="10.45" cy="8.12" fill="#fffff0" fill-opacity="null" id="svg_5" rx="0.05" ry="0" stroke="#000000" stroke-dasharray="null" stroke-linecap="null" stroke-linejoin="null" stroke-opacity="null" stroke-width="0.2" transform="matrix(1, 0, 0, 1, 0, 0)"/>
  <path d="m10.5,8c0,-0.52 0.9,-0.5 2,-0.5c1.1,0 2,-0.02 2,0.5c0,0.52 -0.9,0.5 -2,0.5c-1.1,0 -2,0.02 -2,-0.5z" fill="#fffff0" fill-opacity="null" id="svg_7" stroke="#000000" stroke-dasharray="null" stroke-linecap="null" stroke-linejoin="null" stroke-opacity="null" stroke-width="0.2"/>
 </g>
</svg>