<?xml version="1.0"?>
<svg viewBox="0 0 25 25" xmlns="http://www.w3.org/2000/svg" xmlns:svg="http://www.w3.org/2000/svg">
 <!-- Created with SVG-edit - https://github.com/SVG-Edit/svgedit-->
 <!-- Created by Aleksy Slizewski --> <g class="layer">
  <title>banana</title>
  <path d="m3,14l-1,1c1.6,2.55 2.23,6.25 10,6c7.77,-0.25 9.83,-6.82 10,-11l1,-2l-1,-1l-1,3c-2.65,2.4 -5.75,5.24 -9,6c-3.25,0.76 -5.9,-1.28 -9,-2z" fill="#ffff00" id="svg_1" stroke="#000000" stroke-dasharray="null" stroke-linecap="null" stroke-linejoin="null" stroke-opacity="null" stroke-width="0.2"/>
  <path d="m2.95,14.05l-0.9,0.95c0.35,0.33 0.84,0.09 0.95,0.1c0.11,0.01 0.34,-0.66 -0.05,-1.05z" fill="#000000" id="svg_2" stroke="#000000" stroke-dasharray="null" stroke-linecap="null" stroke-linejoin="null" stroke-opacity="null" stroke-width="0.2"/>
  <path d="m22,7c-0.13,0.36 0,0.75 0,1c0,0.25 0.9,0.3 1,0l-1,-1z" fill="#000000" fill-opacity="null" id="svg_3" stroke="#000000" stroke-dasharray="null" stroke-linecap="null" stroke-linejoin="null" stroke-opacity="null" stroke-width="0.2"/>
 </g>
</svg>