<?xml version="1.0"?>
<svg id="symbol" viewBox="0 0 25 25" xmlns="http://www.w3.org/2000/svg" xmlns:svg="http://www.w3.org/2000/svg">
 <!-- Created with SVG-edit - https://github.com/SVG-Edit/svgedit-->
 <!-- Created by Aleksy Slizewski -->
 <g class="layer">
  <title>pumpkin</title>
  <path d="m12,8l1,0c0.5,-1.68 1.3,-3.06 3,-4l-2,-1c-1.46,1.07 -2.03,3.28 -2,5z" fill="#00bf00" id="svg_2" stroke="#000000" stroke-dasharray="null" stroke-linecap="round" stroke-linejoin="null" stroke-opacity="null" stroke-width="0.2"/>
  <path d="m2.5,14.6c0.3,-4.1 1.5,-5.42 2.5,-6c1,-0.58 3.23,-0.82 4,0l0,0c1,-0.72 2.37,-1 3.5,-1c1.13,0 2.45,0.18 3.5,1l0,0c0.96,-0.67 3.05,-0.63 4,0c0.95,0.63 2.1,2 2.5,6c0.4,4 -1.4,5.32 -2.5,6c-1.1,0.68 -3.2,0.81 -4,0l0,0c-0.7,0.87 -2.22,1 -3.5,1c-1.28,0 -2.6,-0.08 -3.5,-1l0,0c-1.05,0.83 -2.9,0.48 -4,0c-1.1,-0.48 -2.8,-1.9 -2.5,-6z" fill="#ff4500" id="svg_1" stroke="#000000" stroke-dasharray="null" stroke-linecap="round" stroke-linejoin="null" stroke-opacity="null" stroke-width="0.2" transform="matrix(1, 0, 0, 1, 0, 0)"/>
  <path d="m9,9c-0.74,3.87 -0.55,7.43 0,11" fill="none" fill-opacity="null" id="svg_3" stroke="#e53d00" stroke-dasharray="null" stroke-linecap="round" stroke-linejoin="null" stroke-opacity="null" stroke-width="0.2"/>
  <path d="m16,9c0.65,3.62 0.79,7.18 0,11" fill="none" fill-opacity="null" id="svg_4" stroke="#e53d00" stroke-dasharray="null" stroke-linecap="round" stroke-linejoin="null" stroke-width="0.2"/>
 </g>
</svg>