<?xml version="1.0"?>
<svg viewBox="0 0 25 25" xmlns="http://www.w3.org/2000/svg" xmlns:svg="http://www.w3.org/2000/svg">
 <!-- Created with SVG-edit - https://github.com/SVG-Edit/svgedit-->
 <!-- Created by Aleksy Slizewski --> <g class="layer">
  <title>scissors</title>
  <path d="m11.5,12l-6.5,-8c-0.6,-0.67 -0.3,-1.68 0,-2l7.5,9l8.5,-9c0.4,0.42 0.6,1.43 0,2l-7.5,8l-2,0z" fill="#000000" fill-opacity="0" id="svg_9" stroke="#000000" stroke-dasharray="null" stroke-linecap="null" stroke-linejoin="null" stroke-width="0.35"/>
  <path d="m8,16c-1.16,-1.09 -7.45,3.48 -5,6l0,0c2.6,2.16 6.88,-3.98 6,-5l3.5,-4l3.5,4c-0.75,0.86 3.39,7.99 6,5l0,0c2.5,-3.4 -4.16,-6.87 -5,-6l-4.5,-5l-4.5,5z" fill="#000000" fill-opacity="0" id="svg_3" stroke="#000000" stroke-dasharray="null" stroke-linecap="null" stroke-linejoin="null" stroke-width="0.35"/>
  <path d="m8,16c-1.16,-1.09 -7.45,3.48 -5,6l1,-1c-1.18,-1.33 3.1,-3.79 3.5,-3.5c0.4,0.29 -2.37,4.45 -3.5,3.5l-1,1c2.6,2.16 6.88,-3.98 6,-5l3.5,-4l3.5,4c-0.75,0.86 3.39,7.99 6,5l-1,-1c-1.52,1.7 -3.9,-3.12 -3.5,-3.5c0.4,-0.38 4.92,1.74 3.5,3.5l1,1c2.5,-3.4 -4.16,-6.87 -5,-6l-4.5,-5l-4.5,5z" fill="#999999" id="svg_2" stroke="#000000" stroke-dasharray="null" stroke-linecap="null" stroke-linejoin="null" stroke-opacity="0" stroke-width="0.2"/>
  <path d="m16.65,15.56l-1.04,1.04l0.4,0.39c-0.75,0.86 3.39,7.99 6,5l-1,-1c-1.52,1.7 -3.9,-3.12 -3.5,-3.5c0.4,-0.38 4.92,1.74 3.5,3.5l1,1c2.5,-3.4 -4.16,-6.87 -5,-6l-0.35,-0.44z" fill="#3f007f" id="svg_7" stroke="#000000" stroke-dasharray="null" stroke-linecap="null" stroke-linejoin="null" stroke-opacity="0" stroke-width="0.2"/>
  <path d="m21,21c-1.52,1.7 -3.9,-3.12 -3.5,-3.5c0.4,-0.38 4.92,1.74 3.5,3.5l0,0z" fill="#000000" fill-opacity="0" id="svg_4" stroke="#000000" stroke-dasharray="null" stroke-linecap="null" stroke-linejoin="null" stroke-width="0.2" transform="matrix(1, 0, 0, 1, 0, 0)"/>
  <path d="m8,16c-1.16,-1.09 -7.45,3.48 -5,6l1,-1c-1.18,-1.33 3.1,-3.79 3.5,-3.5c0.4,0.29 -2.37,4.45 -3.5,3.5l-1,1c2.6,2.16 6.88,-3.98 6,-5l0.4,-0.44l-1.05,-0.94l-0.35,0.39z" fill="#3f007f" id="svg_6" stroke="#000000" stroke-dasharray="null" stroke-linecap="null" stroke-linejoin="null" stroke-opacity="0" stroke-width="0.2" transform="matrix(1, 0, 0, 1, 0, 0)"/>
  <path d="m4,21c-1.18,-1.33 3.1,-3.79 3.5,-3.5c0.4,0.29 -2.37,4.45 -3.5,3.5l0,0z" fill="#000000" fill-opacity="0" id="svg_5" stroke="#000000" stroke-dasharray="null" stroke-linecap="null" stroke-linejoin="null" stroke-width="0.2"/>
  <path d="m11.5,12l-6.5,-8c-0.6,-0.67 -0.3,-1.68 0,-2l7.5,9l8.5,-9c0.4,0.42 0.6,1.43 0,2l-7.5,8l-2,0z" fill="#999999" fill-opacity="null" id="svg_8" stroke="#000000" stroke-dasharray="null" stroke-linecap="null" stroke-linejoin="null" stroke-opacity="0" stroke-width="0.2" transform="matrix(1, 0, 0, 1, 0, 0)"/>
  <line fill="none" fill-opacity="0" id="svg_10" stroke="#000000" stroke-dasharray="null" stroke-linecap="null" stroke-linejoin="null" stroke-width="0.15" transform="matrix(1, 0, 0, 1, 0, 0)" x1="8.35" x2="9.4" y1="15.61" y2="16.56"/>
  <line fill="none" fill-opacity="0" id="svg_11" stroke="#000000" stroke-dasharray="null" stroke-linecap="null" stroke-linejoin="null" stroke-width="0.15" transform="matrix(1, 0, 0, 1, 0, 0)" x1="16.65" x2="15.6" y1="15.56" y2="16.61"/>
  <circle cx="12.5" cy="12" fill="#999999" fill-opacity="null" id="svg_12" r="0.33" stroke="#000000" stroke-dasharray="null" stroke-linecap="null" stroke-linejoin="null" stroke-width="0.2"/>
 </g>
</svg>