<?xml version="1.0"?>
<svg id="symbol" viewBox="0 0 25 25" xmlns="http://www.w3.org/2000/svg" xmlns:svg="http://www.w3.org/2000/svg">
 <!-- Created with SVG-edit - https://github.com/SVG-Edit/svgedit-->
 <!-- Created by Aleksy Slizewski -->
 <g class="layer">
  <title>shell</title>
  <g id="svg_14">
   <path d="m5,4.21c1.07,-1.57 3.38,-2.16 5,-1l0,0c1.32,-1.59 4.03,-1.64 5,0l0,0c1.67,-1.06 4.43,-0.48 5,1l0,0c2.29,0.04 3.34,1.52 3,4l0,0l0,0c-0.57,4.48 -3.85,11.18 -7,11.79c0,0.17 0,-0.17 0,0c1.48,0.09 1.96,0.53 3,1.21l0,0c0.23,1.1 -13.06,1.6 -13,0l0,0c1.13,-0.68 1.62,-1.12 3,-1.21l0,0c-3.18,-0.32 -6.65,-7.2 -7,-11.79l0,0c-0.24,-2.38 1.21,-3.86 3,-4l0,0z" fill="#ff816b" id="svg_1" stroke="#000000" stroke-dasharray="null" stroke-linecap="round" stroke-linejoin="null" stroke-opacity="null" stroke-width="0.2"/>
   <path d="m7.15,10.45c-0.13,-3.95 -1.09,-7.03 1.85,-7.24c2.95,-0.21 1.66,3.05 1.46,6.92c-0.2,3.87 -0.49,8.03 -1.57,7.94c-1.08,-0.1 -1.6,-3.66 -1.74,-7.62z" fill="#ff7259" id="svg_2" stroke="#ff7259" stroke-dasharray="null" stroke-linecap="round" stroke-linejoin="null" stroke-width="0.2" transform="rotate(-13.8036, 9, 10.2277)"/>
   <path d="m10.97,9.85c-0.45,-3.93 -1.28,-6.82 1.67,-7.03c2.95,-0.21 2.01,3.04 1.7,6.88c-0.3,3.84 -0.57,7.83 -1.51,7.81c-0.94,-0.01 -1.41,-3.74 -1.86,-7.67z" fill="#ff7259" id="svg_5" stroke="#ff7259" stroke-dasharray="null" stroke-linecap="round" stroke-linejoin="null" stroke-width="0.2" transform="rotate(-0.289465, 12.6212, 9.81517)"/>
   <path d="m4.4,14.27c-1.78,-3.53 -2.49,-8.71 -0.65,-8.89c1.85,-0.18 1.72,2.67 2.87,6.38c1.15,3.71 3.02,6.56 2.46,7c-0.55,0.44 -2.91,-0.97 -4.69,-4.49z" fill="#ff7259" id="svg_6" stroke="#ff7259" stroke-dasharray="null" stroke-linecap="round" stroke-linejoin="null" stroke-width="0.2"/>
   <path d="m18.11,12.13c-0.21,-2.8 -1.02,-6.44 0.81,-7.24c1.83,-0.8 2.54,3.12 2.24,6.96c-0.3,3.84 -1.83,7.87 -2.77,7.4c-0.94,-0.47 -0.08,-4.32 -0.29,-7.12z" fill="#ff7259" id="svg_7" stroke="#ff7259" stroke-dasharray="null" stroke-linecap="round" stroke-linejoin="null" stroke-width="0.2" transform="rotate(17.0313, 19.2712, 12.0852)"/>
   <path d="m14.89,10.23c-0.46,-3.97 -1.58,-6.69 1.2,-6.97c2.78,-0.28 1.61,3.13 1.64,6.85c0.03,3.72 -0.47,7.76 -1.36,7.78c-0.89,0.02 -1.02,-3.69 -1.48,-7.66z" fill="#ff7259" id="svg_8" stroke="#ff7259" stroke-dasharray="null" stroke-linecap="round" stroke-linejoin="null" stroke-width="0.2" transform="rotate(11.852, 16.3712, 10.2452)"/>
  </g>
 </g>
</svg>