<?xml version="1.0"?>
<svg viewBox="0 0 25 25" xmlns="http://www.w3.org/2000/svg" xmlns:svg="http://www.w3.org/2000/svg">
 <!-- Created with SVG-edit - https://github.com/SVG-Edit/svgedit-->
 <!-- Created by Aleksy Slizewski --> <g class="layer">
  <title>snowflake</title>
  <line fill="none" fill-opacity="0" id="svg_1" stroke="#56ffff" stroke-dasharray="null" stroke-linecap="round" stroke-linejoin="null" stroke-width="0.5" transform="matrix(1, 0, 0, 1, 0, 0)" x1="12.5" x2="12.5" y1="1" y2="24"/>
  <line fill="none" fill-opacity="0" id="svg_4" stroke="#56ffff" stroke-dasharray="null" stroke-linecap="round" stroke-linejoin="null" stroke-opacity="null" stroke-width="0.5" transform="matrix(1, 0, 0, 1, 0, 0)" x1="1" x2="24" y1="12.5" y2="12.5"/>
  <line fill="none" fill-opacity="0" id="svg_5" stroke="#56ffff" stroke-dasharray="null" stroke-linecap="round" stroke-linejoin="null" stroke-opacity="null" stroke-width="0.5" x1="21" x2="4" y1="4" y2="21"/>
  <line fill="none" fill-opacity="0" id="svg_6" stroke="#56ffff" stroke-dasharray="null" stroke-linecap="round" stroke-linejoin="null" stroke-opacity="null" stroke-width="0.5" x1="4" x2="21" y1="4" y2="21"/>
  <line fill="none" fill-opacity="0" id="svg_9" stroke="#56ffff" stroke-dasharray="null" stroke-linecap="round" stroke-linejoin="null" stroke-opacity="null" stroke-width="0.5" transform="matrix(1, 0, 0, 1, 0, 0)" x1="15" x2="12.5" y1="2" y2="4"/>
  <line fill="none" fill-opacity="0" id="svg_10" stroke="#56ffff" stroke-dasharray="null" stroke-linecap="round" stroke-linejoin="null" stroke-opacity="null" stroke-width="0.5" transform="matrix(1, 0, 0, 1, 0, 0)" x1="14" x2="12.5" y1="4.75" y2="6"/>
  <line fill="none" fill-opacity="0" id="svg_11" stroke="#56ffff" stroke-dasharray="null" stroke-linecap="round" stroke-linejoin="null" stroke-opacity="null" stroke-width="0.5" x1="15" x2="12.5" y1="6" y2="8"/>
  <line fill="none" fill-opacity="0" id="svg_12" stroke="#56ffff" stroke-dasharray="null" stroke-linecap="round" stroke-linejoin="null" stroke-opacity="null" stroke-width="0.5" transform="matrix(1, 0, 0, 1, 0, 0)" x1="11" x2="12.5" y1="4.75" y2="6"/>
  <line fill="none" fill-opacity="0" id="svg_13" stroke="#56ffff" stroke-dasharray="null" stroke-linecap="round" stroke-linejoin="null" stroke-opacity="null" stroke-width="0.5" transform="matrix(1, 0, 0, 1, 0, 0)" x1="10" x2="12.5" y1="2" y2="4"/>
  <line fill="none" fill-opacity="0" id="svg_14" stroke="#56ffff" stroke-dasharray="null" stroke-linecap="round" stroke-linejoin="null" stroke-opacity="null" stroke-width="0.5" transform="matrix(1, 0, 0, 1, 0, 0)" x1="10" x2="12.5" y1="6" y2="8"/>
  <line fill="none" fill-opacity="0" id="svg_15" stroke="#56ffff" stroke-dasharray="null" stroke-linecap="round" stroke-linejoin="null" stroke-opacity="null" stroke-width="0.5" transform="matrix(1, 0, 0, 1, 0, 0)" x1="14" x2="12.5" y1="8.75" y2="10"/>
  <line fill="none" fill-opacity="0" id="svg_16" stroke="#56ffff" stroke-dasharray="null" stroke-linecap="round" stroke-linejoin="null" stroke-opacity="null" stroke-width="0.5" transform="matrix(1, 0, 0, 1, 0, 0)" x1="11" x2="12.5" y1="8.75" y2="10"/>
  <line fill="none" fill-opacity="0" id="svg_17" stroke="#56ffff" stroke-dasharray="null" stroke-linecap="round" stroke-linejoin="null" stroke-opacity="null" stroke-width="0.5" transform="matrix(1, 0, 0, 1, 0, 0)" x1="14" x2="12.5" y1="16.25" y2="15"/>
  <line fill="none" fill-opacity="0" id="svg_18" stroke="#56ffff" stroke-dasharray="null" stroke-linecap="round" stroke-linejoin="null" stroke-opacity="null" stroke-width="0.5" x1="15" x2="12.5" y1="19" y2="17"/>
  <line fill="none" fill-opacity="0" id="svg_19" stroke="#56ffff" stroke-dasharray="null" stroke-linecap="round" stroke-linejoin="null" stroke-opacity="null" stroke-width="0.5" transform="matrix(1, 0, 0, 1, 0, 0)" x1="15" x2="12.5" y1="23" y2="21"/>
  <line fill="none" fill-opacity="0" id="svg_20" stroke="#56ffff" stroke-dasharray="null" stroke-linecap="round" stroke-linejoin="null" stroke-opacity="null" stroke-width="0.5" transform="matrix(1, 0, 0, 1, 0, 0)" x1="14" x2="12.5" y1="20.25" y2="19"/>
  <line fill="none" fill-opacity="0" id="svg_21" stroke="#56ffff" stroke-dasharray="null" stroke-linecap="round" stroke-linejoin="null" stroke-opacity="null" stroke-width="0.5" x1="11" x2="12.5" y1="16.25" y2="15"/>
  <line fill="none" fill-opacity="0" id="svg_22" stroke="#56ffff" stroke-dasharray="null" stroke-linecap="round" stroke-linejoin="null" stroke-opacity="null" stroke-width="0.5" x1="10" x2="12.5" y1="19" y2="17"/>
  <line fill="none" fill-opacity="0" id="svg_23" stroke="#56ffff" stroke-dasharray="null" stroke-linecap="round" stroke-linejoin="null" stroke-opacity="null" stroke-width="0.5" x1="11" x2="12.5" y1="20.25" y2="19"/>
  <line fill="none" fill-opacity="0" id="svg_24" stroke="#56ffff" stroke-dasharray="null" stroke-linecap="round" stroke-linejoin="null" stroke-opacity="null" stroke-width="0.5" x1="10" x2="12.5" y1="23" y2="21"/>
  <line fill="none" fill-opacity="0" id="svg_25" stroke="#56ffff" stroke-dasharray="null" stroke-linecap="round" stroke-linejoin="null" stroke-opacity="null" stroke-width="0.5" x1="23" x2="21" y1="10" y2="12.5"/>
  <line fill="none" fill-opacity="0" id="svg_26" stroke="#56ffff" stroke-dasharray="null" stroke-linecap="round" stroke-linejoin="null" stroke-opacity="null" stroke-width="0.5" x1="23" x2="21" y1="15" y2="12.5"/>
  <line fill="none" fill-opacity="0" id="svg_27" stroke="#56ffff" stroke-dasharray="null" stroke-linecap="round" stroke-linejoin="null" stroke-opacity="null" stroke-width="0.5" transform="matrix(1, 0, 0, 1, 0, 0)" x1="20.25" x2="19" y1="11" y2="12.5"/>
  <line fill="none" fill-opacity="0" id="svg_28" stroke="#56ffff" stroke-dasharray="null" stroke-linecap="round" stroke-linejoin="null" stroke-opacity="null" stroke-width="0.5" x1="19" x2="17" y1="10" y2="12.5"/>
  <line fill="none" fill-opacity="0" id="svg_29" stroke="#56ffff" stroke-dasharray="null" stroke-linecap="round" stroke-linejoin="null" stroke-opacity="null" stroke-width="0.5" transform="matrix(1, 0, 0, 1, 0, 0)" x1="16.25" x2="15" y1="11" y2="12.5"/>
  <line fill="none" fill-opacity="0" id="svg_30" stroke="#56ffff" stroke-dasharray="null" stroke-linecap="round" stroke-linejoin="null" stroke-opacity="null" stroke-width="0.5" x1="2" x2="4" y1="10" y2="12.5"/>
  <line fill="none" fill-opacity="0" id="svg_31" stroke="#56ffff" stroke-dasharray="null" stroke-linecap="round" stroke-linejoin="null" stroke-opacity="null" stroke-width="0.5" x1="6" x2="8" y1="10" y2="12.5"/>
  <line fill="none" fill-opacity="0" id="svg_32" stroke="#56ffff" stroke-dasharray="null" stroke-linecap="round" stroke-linejoin="null" stroke-opacity="null" stroke-width="0.5" transform="matrix(1, 0, 0, 1, 0, 0)" x1="8.75" x2="10" y1="11" y2="12.5"/>
  <line fill="none" fill-opacity="0" id="svg_33" stroke="#56ffff" stroke-dasharray="null" stroke-linecap="round" stroke-linejoin="null" stroke-opacity="null" stroke-width="0.5" transform="matrix(1, 0, 0, 1, 0, 0)" x1="4.75" x2="6" y1="11" y2="12.5"/>
  <line fill="none" fill-opacity="0" id="svg_34" stroke="#56ffff" stroke-dasharray="null" stroke-linecap="round" stroke-linejoin="null" stroke-opacity="null" stroke-width="0.5" x1="19" x2="17" y1="15" y2="12.5"/>
  <line fill="none" fill-opacity="0" id="svg_35" stroke="#56ffff" stroke-dasharray="null" stroke-linecap="round" stroke-linejoin="null" stroke-opacity="null" stroke-width="0.5" x1="6" x2="8" y1="15" y2="12.5"/>
  <line fill="none" fill-opacity="0" id="svg_36" stroke="#56ffff" stroke-dasharray="null" stroke-linecap="round" stroke-linejoin="null" stroke-opacity="null" stroke-width="0.5" x1="2" x2="4" y1="15" y2="12.5"/>
  <line fill="none" fill-opacity="0" id="svg_37" stroke="#56ffff" stroke-dasharray="null" stroke-linecap="round" stroke-linejoin="null" stroke-opacity="null" stroke-width="0.5" transform="matrix(1, 0, 0, 1, 0, 0)" x1="20.25" x2="19" y1="14" y2="12.5"/>
  <line fill="none" fill-opacity="0" id="svg_38" stroke="#56ffff" stroke-dasharray="null" stroke-linecap="round" stroke-linejoin="null" stroke-opacity="null" stroke-width="0.5" transform="matrix(1, 0, 0, 1, 0, 0)" x1="16.25" x2="15" y1="14" y2="12.5"/>
  <line fill="none" fill-opacity="0" id="svg_39" stroke="#56ffff" stroke-dasharray="null" stroke-linecap="round" stroke-linejoin="null" stroke-opacity="null" stroke-width="0.5" x1="8.75" x2="10" y1="14" y2="12.5"/>
  <line fill="none" fill-opacity="0" id="svg_40" stroke="#56ffff" stroke-dasharray="null" stroke-linecap="round" stroke-linejoin="null" stroke-opacity="null" stroke-width="0.5" x1="23" x2="21" y1="10" y2="12.5"/>
  <line fill="none" fill-opacity="0" id="svg_41" stroke="#56ffff" stroke-dasharray="null" stroke-linecap="round" stroke-linejoin="null" stroke-opacity="null" stroke-width="0.5" transform="matrix(1, 0, 0, 1, 0, 0)" x1="4.75" x2="6" y1="14" y2="12.5"/>
  <line fill="none" fill-opacity="0" id="svg_43" stroke="#56ffff" stroke-dasharray="null" stroke-linecap="round" stroke-linejoin="null" stroke-opacity="null" stroke-width="0.5" x1="16" x2="14.25" y1="11" y2="10.75"/>
  <line fill="none" fill-opacity="0" id="svg_44" stroke="#56ffff" stroke-dasharray="null" stroke-linecap="round" stroke-linejoin="null" stroke-opacity="null" stroke-width="0.5" transform="matrix(1, 0, 0, 1, 0, 0)" x1="15" x2="15.5" y1="6" y2="9.5"/>
  <line fill="none" fill-opacity="0" id="svg_45" stroke="#56ffff" stroke-dasharray="null" stroke-linecap="round" stroke-linejoin="null" stroke-opacity="null" stroke-width="0.5" x1="19" x2="15.5" y1="10" y2="9.5"/>
  <line fill="none" fill-opacity="0" id="svg_46" stroke="#56ffff" stroke-dasharray="null" stroke-linecap="round" stroke-linejoin="null" stroke-opacity="null" stroke-width="0.5" x1="18.5" x2="18.75" y1="3" y2="6.25"/>
  <line fill="none" fill-opacity="0" id="svg_47" stroke="#56ffff" stroke-dasharray="null" stroke-linecap="round" stroke-linejoin="null" stroke-opacity="null" stroke-width="0.5" transform="matrix(1, 0, 0, 1, 0, 0)" x1="22" x2="18.75" y1="6.5" y2="6.25"/>
  <line fill="none" fill-opacity="0" id="svg_48" stroke="#56ffff" stroke-dasharray="null" stroke-linecap="round" stroke-linejoin="null" stroke-opacity="null" stroke-width="0.5" transform="matrix(1, 0, 0, 1, 0, 0)" x1="17" x2="17.25" y1="6" y2="7.75"/>
  <line fill="none" fill-opacity="0" id="svg_49" stroke="#56ffff" stroke-dasharray="null" stroke-linecap="round" stroke-linejoin="null" stroke-opacity="null" stroke-width="0.5" x1="19" x2="17.25" y1="8" y2="7.75"/>
  <line fill="none" fill-opacity="0" id="svg_50" stroke="#56ffff" stroke-dasharray="null" stroke-linecap="round" stroke-linejoin="null" stroke-opacity="null" stroke-width="0.5" x1="10.75" x2="9" y1="14.25" y2="14"/>
  <line fill="none" fill-opacity="0" id="svg_51" stroke="#56ffff" stroke-dasharray="null" stroke-linecap="round" stroke-linejoin="null" stroke-opacity="null" stroke-width="0.5" transform="matrix(1, 0, 0, 1, 0, 0)" x1="11" x2="10.75" y1="16" y2="14.25"/>
  <line fill="none" fill-opacity="0" id="svg_52" stroke="#56ffff" stroke-dasharray="null" stroke-linecap="round" stroke-linejoin="null" stroke-opacity="null" stroke-width="0.5" transform="matrix(1, 0, 0, 1, 0, 0)" x1="14" x2="14.25" y1="16" y2="14.25"/>
  <line fill="none" fill-opacity="0" id="svg_53" stroke="#56ffff" stroke-dasharray="null" stroke-linecap="round" stroke-linejoin="null" stroke-opacity="null" stroke-width="0.5" transform="matrix(1, 0, 0, 1, 0, 0)" x1="16" x2="14.25" y1="14" y2="14.25"/>
  <line fill="none" fill-opacity="0" id="svg_54" stroke="#56ffff" stroke-dasharray="null" stroke-linecap="round" stroke-linejoin="null" stroke-opacity="null" stroke-width="0.5" transform="matrix(1, 0, 0, 1, 0, 0)" x1="11" x2="10.75" y1="9" y2="10.75"/>
  <line fill="none" fill-opacity="0" id="svg_55" stroke="#56ffff" stroke-dasharray="null" stroke-linecap="round" stroke-linejoin="null" stroke-opacity="null" stroke-width="0.5" x1="9" x2="10.75" y1="11" y2="10.75"/>
  <line fill="none" fill-opacity="0" id="svg_56" stroke="#56ffff" stroke-dasharray="null" stroke-linecap="round" stroke-linejoin="null" stroke-opacity="null" stroke-width="0.5" transform="matrix(1, 0, 0, 1, 0, 0)" x1="15.5" x2="15" y1="15.5" y2="19"/>
  <line fill="none" fill-opacity="0" id="svg_57" stroke="#56ffff" stroke-dasharray="null" stroke-linecap="round" stroke-linejoin="null" stroke-opacity="null" stroke-width="0.5" x1="15.5" x2="19" y1="15.5" y2="15"/>
  <line fill="none" fill-opacity="0" id="svg_58" stroke="#56ffff" stroke-dasharray="null" stroke-linecap="round" stroke-linejoin="null" stroke-opacity="null" stroke-width="0.5" transform="matrix(1, 0, 0, 1, 0, 0)" x1="6" x2="9.5" y1="10" y2="9.5"/>
  <line fill="none" fill-opacity="0" id="svg_59" stroke="#56ffff" stroke-dasharray="null" stroke-linecap="round" stroke-linejoin="null" stroke-opacity="null" stroke-width="0.5" transform="matrix(1, 0, 0, 1, 0, 0)" x1="9.5" x2="10" y1="9.5" y2="6"/>
  <line fill="none" fill-opacity="0" id="svg_60" stroke="#56ffff" stroke-dasharray="null" stroke-linecap="round" stroke-linejoin="null" stroke-opacity="null" stroke-width="0.5" x1="10" x2="9.5" y1="19" y2="15.5"/>
  <line fill="none" fill-opacity="0" id="svg_61" stroke="#56ffff" stroke-dasharray="null" stroke-linecap="round" stroke-linejoin="null" stroke-opacity="null" stroke-width="0.5" transform="matrix(1, 0, 0, 1, 0, 0)" x1="6" x2="9.5" y1="15" y2="15.5"/>
  <line fill="none" fill-opacity="0" id="svg_62" stroke="#56ffff" stroke-dasharray="null" stroke-linecap="round" stroke-linejoin="null" stroke-opacity="null" stroke-width="0.5" transform="matrix(1, 0, 0, 1, 0, 0)" x1="8" x2="7.75" y1="6" y2="7.75"/>
  <line fill="none" fill-opacity="0" id="svg_64" stroke="#56ffff" stroke-dasharray="null" stroke-linecap="round" stroke-linejoin="null" stroke-opacity="null" stroke-width="0.5" transform="matrix(1, 0, 0, 1, 0, 0)" x1="7.75" x2="6" y1="7.75" y2="8"/>
  <line fill="none" fill-opacity="0" id="svg_65" stroke="#56ffff" stroke-dasharray="null" stroke-linecap="round" stroke-linejoin="null" stroke-opacity="null" stroke-width="0.5" transform="matrix(1, 0, 0, 1, 0, 0)" x1="3" x2="6.25" y1="6.5" y2="6.25"/>
  <line fill="none" fill-opacity="0" id="svg_66" stroke="#56ffff" stroke-dasharray="null" stroke-linecap="round" stroke-linejoin="null" stroke-opacity="null" stroke-width="0.5" transform="matrix(1, 0, 0, 1, 0, 0)" x1="6.5" x2="6.25" y1="3" y2="6.25"/>
  <line fill="none" fill-opacity="0" id="svg_68" stroke="#56ffff" stroke-dasharray="null" stroke-linecap="round" stroke-linejoin="null" stroke-opacity="null" stroke-width="0.5" x1="19" x2="17.25" y1="17" y2="17.25"/>
  <line fill="none" fill-opacity="0" id="svg_69" stroke="#56ffff" stroke-dasharray="null" stroke-linecap="round" stroke-linejoin="null" stroke-opacity="null" stroke-width="0.5" x1="17" x2="17.25" y1="19" y2="17.25"/>
  <line fill="none" fill-opacity="0" id="svg_70" stroke="#56ffff" stroke-dasharray="null" stroke-linecap="round" stroke-linejoin="null" stroke-opacity="null" stroke-width="0.5" x1="22" x2="18.75" y1="18.5" y2="18.75"/>
  <line fill="none" fill-opacity="0" id="svg_71" stroke="#56ffff" stroke-dasharray="null" stroke-linecap="round" stroke-linejoin="null" stroke-opacity="null" stroke-width="0.5" transform="matrix(1, 0, 0, 1, 0, 0)" x1="14" x2="14.25" y1="9" y2="10.75"/>
  <line fill="none" fill-opacity="0" id="svg_72" stroke="#56ffff" stroke-dasharray="null" stroke-linecap="round" stroke-linejoin="null" stroke-opacity="null" stroke-width="0.5" transform="matrix(1, 0, 0, 1, 0, 0)" x1="18.5" x2="18.75" y1="22" y2="18.75"/>
  <line fill="none" fill-opacity="0" id="svg_74" stroke="#56ffff" stroke-dasharray="null" stroke-linecap="round" stroke-linejoin="null" stroke-opacity="null" stroke-width="0.5" transform="matrix(1, 0, 0, 1, 0, 0)" x1="8" x2="7.75" y1="19" y2="17.25"/>
  <line fill="none" fill-opacity="0" id="svg_75" stroke="#56ffff" stroke-dasharray="null" stroke-linecap="round" stroke-linejoin="null" stroke-opacity="null" stroke-width="0.5" transform="matrix(1, 0, 0, 1, 0, 0)" x1="6" x2="7.75" y1="17" y2="17.25"/>
  <line fill="none" fill-opacity="0" id="svg_76" stroke="#56ffff" stroke-dasharray="null" stroke-linecap="round" stroke-linejoin="null" stroke-opacity="null" stroke-width="0.5" x1="3" x2="6.25" y1="18.5" y2="18.75"/>
  <line fill="none" fill-opacity="0" id="svg_77" stroke="#56ffff" stroke-dasharray="null" stroke-linecap="round" stroke-linejoin="null" stroke-opacity="null" stroke-width="0.5" transform="matrix(1, 0, 0, 1, 0, 0)" x1="6.25" x2="6.5" y1="18.75" y2="22"/>
 </g>
</svg>