<?xml version="1.0"?>
<svg id="symbol" viewBox="0 0 25 25" xmlns="http://www.w3.org/2000/svg" xmlns:svg="http://www.w3.org/2000/svg">
 <!-- Created with SVG-edit - https://github.com/SVG-Edit/svgedit-->
 <!-- Created by Aleksy Slizewski -->
 <g class="layer">
  <title>snowman</title>
  <path d="m15.98,10.2l3.05,-0.22l2.58,-3.43c0.12,-0.13 -0.42,-2.88 -0.11,-2.45c0.31,0.43 0.16,1.9 0.88,1.92c0.72,0.03 1.55,-1.23 1.43,-0.61c-0.12,0.62 -1.53,1.25 -1.55,1.43l-2.63,3.82l-3.77,0.1l0.12,-0.57z" fill="#8b4513" fill-opacity="null" id="svg_17" stroke="#000000" stroke-dasharray="null" stroke-linecap="null" stroke-linejoin="null" stroke-opacity="null" stroke-width="0.2"/>
  <g id="snowman">
   <circle cx="12.5" cy="5.7" fill="#ffffff" fill-opacity="null" id="svg_3" r="2.7" stroke="#000000" stroke-dasharray="null" stroke-linecap="null" stroke-linejoin="null" stroke-opacity="null" stroke-width="0.2"/>
   <path d="m8.75,11c0,-1.11 0.45,-1.7 0.92,-2.33c0.47,-0.63 0.79,-0.65 1.27,-0.86l1.56,0l1.61,0c0.48,0.2 0.65,0.34 1.22,0.86c0.57,0.52 0.92,1.22 0.92,2.33c0,1.1 -0.4,2.25 -0.92,2.83c-0.52,0.58 -0.79,0.65 -1.27,0.86l-1.56,0l-1.56,0c-0.48,-0.2 -0.7,-0.29 -1.27,-0.86c-0.57,-0.57 -0.92,-1.72 -0.92,-2.83z" fill="#ffffff" fill-opacity="null" id="svg_2" stroke="#000000" stroke-dasharray="null" stroke-linecap="null" stroke-linejoin="null" stroke-opacity="null" stroke-width="0.2"/>
   <path d="m7.75,18.7c0.05,-1.63 0.46,-2.24 0.91,-2.74c0.45,-0.5 1.29,-1.12 1.89,-1.37l1.95,0l1.95,0c0.6,0.25 1.34,0.77 1.89,1.37c0.55,0.6 0.91,1.3 0.91,2.74c0,1.44 -0.46,2.94 -0.91,3.44c-0.45,0.5 -1.09,0.92 -1.69,1.17l-2.15,0l-2.25,0c-0.6,-0.25 -0.99,-0.57 -1.49,-1.17c-0.5,-0.6 -1.06,-1.81 -1.01,-3.44z" fill="#ffffff" id="svg_1" stroke="#000000" stroke-dasharray="null" stroke-linecap="null" stroke-linejoin="null" stroke-opacity="null" stroke-width="0.2"/>
   <circle cx="13.6" cy="13.25" fill="#000000" id="svg_4" r="0.4" stroke="#000000" stroke-dasharray="null" stroke-linecap="null" stroke-linejoin="null" stroke-opacity="null" stroke-width="0.2"/>
   <circle cx="13.6" cy="9.25" fill="#000000" id="svg_6" r="0.4" stroke="#000000" stroke-dasharray="null" stroke-linecap="null" stroke-linejoin="null" stroke-opacity="null" stroke-width="0.2" transform="matrix(1, 0, 0, 1, 0, 0)"/>
   <circle cx="13.85" cy="11.25" fill="#000000" id="svg_10" r="0.4" stroke="#000000" stroke-dasharray="null" stroke-linecap="null" stroke-linejoin="null" stroke-opacity="null" stroke-width="0.2"/>
   <circle cx="13.95" cy="5" fill="#000000" id="svg_11" r="0.38" stroke="#000000" stroke-dasharray="null" stroke-linecap="null" stroke-linejoin="null" stroke-opacity="null" stroke-width="0.2"/>
   <circle cx="12" cy="5" fill="#000000" id="svg_12" r="0.38" stroke="#000000" stroke-dasharray="null" stroke-linecap="null" stroke-linejoin="null" stroke-opacity="null" stroke-width="0.2"/>
   <path d="m13,5.75c-0.34,0.22 -0.26,0.78 0,1l3,-0.25l-3,-0.75z" fill="#ff4500" id="svg_13" stroke="#000000" stroke-dasharray="null" stroke-linecap="null" stroke-linejoin="null" stroke-opacity="null" stroke-width="0.2"/>
  </g>
  <g id="hat">
   <path d="m6.44,3.38l0.07,0c1.26,-0.31 2.37,1.27 2.99,2l3,-2.62c-1.45,-1.17 -4.56,-1 -6.06,0.62z" fill="#ff0000" id="svg_8" stroke="#000000" stroke-dasharray="null" stroke-linecap="null" stroke-linejoin="null" stroke-opacity="null" stroke-width="0.2"/>
   <path d="m9.22,5.47c0.01,0.38 0.28,0.73 0.6,0.62c0.32,-0.11 0.12,-0.43 0.35,-0.67c0.23,-0.24 0.56,-0.08 0.75,-0.32c0.19,-0.24 0.16,-0.58 0.33,-0.67c0.17,-0.09 0.54,0.07 0.81,-0.09c0.27,-0.16 0.26,-0.71 0.38,-0.78c0.13,-0.08 0.53,0.05 0.66,-0.2c0.13,-0.26 -0.05,-0.73 -0.31,-0.89c-0.26,-0.16 -0.42,-0.02 -0.66,0.15c-0.24,0.17 -0.14,0.59 -0.38,0.8c-0.24,0.21 -0.43,-0.12 -0.73,0.04c-0.3,0.16 -0.34,0.52 -0.5,0.79c-0.17,0.27 -0.51,0.02 -0.83,0.24c-0.32,0.21 -0.47,0.6 -0.46,0.98l-0.01,0z" fill="#ffffff" fill-opacity="null" id="svg_7" stroke="#000000" stroke-dasharray="null" stroke-linecap="null" stroke-linejoin="null" stroke-opacity="null" stroke-width="0.2"/>
   <circle cx="6.5" cy="3.38" fill="#ffffff" fill-opacity="null" id="svg_9" r="0.5" stroke="#000000" stroke-dasharray="null" stroke-linecap="null" stroke-linejoin="null" stroke-opacity="null" stroke-width="0.2"/>
  </g>
  <path d="m9.59,10.05l-4.14,1.28l1.63,3.59c-0.16,0.75 0.63,2.84 0.82,2.54c0.19,-0.29 -0.36,-1.77 0.03,-2.08c0.39,-0.31 0.99,0.76 1.6,1.12c1.22,0.72 -0.74,-2.23 -2,-1.91l-1.2,-2.97l3.2,-0.96l0.07,-0.62z" fill="#8b4513" fill-opacity="null" id="svg_16" stroke="#000000" stroke-dasharray="null" stroke-linecap="null" stroke-linejoin="null" stroke-opacity="null" stroke-width="0.2"/>
 </g>
</svg>