<?xml version="1.0"?>
<svg viewBox="0 0 25 25" xmlns="http://www.w3.org/2000/svg" xmlns:svg="http://www.w3.org/2000/svg">
 <!-- Created with SVG-edit - https://github.com/SVG-Edit/svgedit-->
 <!-- Created by Aleksy Slizewski --> <g class="layer">
  <title>spades</title>
  <path d="m2,8.55l0,0l0,0c-0.02,-2.66 2.09,-5.33 4.75,-5.35c2.66,-0.02 5.62,3.12 5.65,4.3l0.15,0l-0.04,0c0.02,-1.18 2.98,-4.27 5.74,-4.3c2.76,-0.03 4.63,2.49 4.75,5.35l0,0l0,0c0.06,6.5 -9.77,14.42 -10.45,14.45c-0.68,0.03 -10.46,-7.86 -10.55,-14.45z" fill="#000000" id="svg_3" stroke="#000000" stroke-dasharray="null" stroke-linecap="null" stroke-linejoin="null" stroke-opacity="null" stroke-width="0.15" transform="rotate(-180, 12.5, 12.5)"/>
  <path d="m12.64,17l-0.25,0c0.08,2.7 -0.03,5.76 -2.42,6.44l5.2,0c-2.41,-0.69 -2.45,-3.71 -2.53,-6.44z" fill="#000000" fill-opacity="null" id="svg_1" stroke="#000000" stroke-dasharray="null" stroke-linecap="null" stroke-linejoin="null" stroke-opacity="null" stroke-width="0.15"/>
 </g>
</svg>