<?xml version="1.0"?>
<svg id="symbol" viewBox="0 0 25 25" xmlns="http://www.w3.org/2000/svg" xmlns:svg="http://www.w3.org/2000/svg">
 <!-- Created with SVG-edit - https://github.com/SVG-Edit/svgedit-->
 <!-- Created by Aleksy Slizewski -->
 <g class="layer">
  <title>spirals</title>
  <path d="m10.37,8.08c-3.53,0.07 -7.86,4.08 -7.68,7.32c0.18,3.24 4.35,7.18 7.72,7.01c3.37,-0.16 7.22,-4.04 6.86,-7.01c-0.36,-2.98 -3.88,-5.02 -6.9,-5.01c-3.03,0.01 -5.5,2.27 -5.28,5.01c0.22,2.74 3.19,4.88 5.28,4.82c2.09,-0.06 4.87,-2.65 4.47,-4.82c-0.41,-2.17 -2.37,-3.09 -4.46,-3.09c-2.09,0 -2.99,1.49 -2.85,3.09c0.14,1.6 1.92,2.83 2.84,2.62c0.92,-0.21 2.16,-1.3 2.03,-2.62c-0.13,-1.32 -1.07,-1.93 -2.03,-1.93c-0.96,0.01 -1.34,1.02 -1.22,1.93c0.12,0.91 0.61,1.35 1.26,1.31c0.65,-0.04 1.09,-0.65 0.98,-1.31c-0.11,-0.66 -0.94,-0.88 -1.02,0" fill="#000000" fill-opacity="0" id="svg_1" stroke="#5f00bf" stroke-dasharray="null" stroke-linecap="null" stroke-linejoin="null" stroke-width="0.2" transform="matrix(1, 0, 0, 1, 0, 0) rotate(-34.0324, 9.99761, 15.2496)"/>
  <path d="m23.67,15.36c-0.72,-1.13 -2.89,-1.66 -3.91,-0.9c-1.02,0.76 -1.48,2.97 -0.76,4.02c0.72,1.06 2.75,1.47 3.65,0.7c0.9,-0.76 0.87,-2.35 0.27,-3.32c-0.6,-0.98 -1.83,-1.29 -2.68,-0.63c-0.85,0.66 -0.96,2.09 -0.53,2.76c0.44,0.67 1.83,1.01 2.46,0.4c0.63,-0.6 0.54,-1.44 0.13,-2.11c-0.42,-0.68 -1.08,-0.65 -1.57,-0.26c-0.5,0.39 -0.54,1.24 -0.29,1.49c0.25,0.25 0.85,0.42 1.26,0.09c0.41,-0.33 0.42,-0.77 0.23,-1.08c-0.19,-0.31 -0.6,-0.21 -0.87,0.02c-0.27,0.24 -0.32,0.49 -0.18,0.69c0.14,0.2 0.43,0.21 0.62,0.03c0.19,-0.18 0.1,-0.5 -0.2,-0.33" fill="#000000" fill-opacity="0" id="svg_2" stroke="#00bf00" stroke-dasharray="null" stroke-linecap="null" stroke-linejoin="null" stroke-width="0.2" transform="matrix(1, 0, 0, 1, 0, 0)"/>
  <path d="m5.82,2.02c-1.41,0.03 -3.13,1.66 -3.06,2.99c0.07,1.32 1.73,2.93 3.07,2.86c1.34,-0.07 2.88,-1.65 2.74,-2.86c-0.14,-1.21 -1.54,-2.05 -2.75,-2.04c-1.21,0.01 -2.19,0.92 -2.1,2.04c0.09,1.12 1.27,1.99 2.1,1.96c0.83,-0.03 1.94,-1.08 1.78,-1.96c-0.16,-0.88 -0.94,-1.26 -1.78,-1.26c-0.83,0 -1.19,0.61 -1.14,1.26c0.05,0.65 0.77,1.15 1.13,1.07c0.37,-0.09 0.86,-0.53 0.81,-1.07c-0.05,-0.54 -0.43,-0.79 -0.81,-0.79c-0.38,0 -0.53,0.41 -0.49,0.79c0.05,0.37 0.24,0.55 0.5,0.53c0.26,-0.01 0.43,-0.27 0.39,-0.53c-0.05,-0.27 -0.38,-0.36 -0.4,0" fill="#000000" fill-opacity="0" id="svg_4" stroke="#ff00ff" stroke-dasharray="null" stroke-linecap="null" stroke-linejoin="null" stroke-width="0.2" transform="matrix(1, 0, 0, 1, 0, 0) rotate(-146.164, 5.67337, 4.94486)"/>
  <path d="m14.1,5.95c0.13,1.33 1.82,2.84 3.07,2.67c1.26,-0.17 2.67,-1.86 2.51,-3.12c-0.16,-1.26 -1.78,-2.6 -2.93,-2.38c-1.15,0.23 -1.84,1.61 -1.75,2.75c0.09,1.14 1.04,2 2.1,1.84c1.06,-0.16 1.81,-1.35 1.72,-2.14c-0.09,-0.79 -1.17,-1.76 -2.01,-1.54c-0.83,0.22 -1.14,0.99 -1.07,1.77c0.06,0.79 0.67,1.08 1.29,0.98c0.62,-0.1 1.05,-0.81 0.94,-1.15c-0.11,-0.34 -0.57,-0.78 -1.08,-0.69c-0.51,0.09 -0.72,0.46 -0.69,0.82c0.03,0.36 0.43,0.47 0.79,0.4c0.35,-0.07 0.51,-0.27 0.47,-0.51c-0.03,-0.24 -0.29,-0.39 -0.54,-0.33c-0.25,0.06 -0.31,0.38 0.03,0.38" fill="#000000" fill-opacity="0" id="svg_5" stroke="#00bfbf" stroke-dasharray="null" stroke-linecap="null" stroke-linejoin="null" stroke-width="0.2"/>
 </g>
</svg>