<?xml version="1.0"?>
<svg viewBox="0 0 25 25" xmlns="http://www.w3.org/2000/svg" xmlns:svg="http://www.w3.org/2000/svg">
 <!-- Created with SVG-edit - https://github.com/SVG-Edit/svgedit-->
 <!-- Created by Aleksy Slizewski --> <g class="layer">
  <title>steering wheel</title>
  <rect fill="#b2b2b2" height="6.5" id="svg_6" stroke="#000000" stroke-dasharray="null" stroke-linecap="null" stroke-linejoin="null" stroke-opacity="null" stroke-width="0.2" width="10.53" x="7.03" y="9.26"/>
  <circle cx="12.5" cy="12.5" fill="#000000" fill-opacity="0" id="svg_1" r="10" stroke="#000000" stroke-dasharray="null" stroke-linecap="null" stroke-linejoin="null" stroke-opacity="null" stroke-width="2"/>
  <path d="m3,11c3.17,-1.67 5.84,-1.9 9.5,-2c3.66,-0.1 6.33,0.33 9.5,2" fill="none" fill-opacity="0" id="svg_2" stroke="#000000" stroke-dasharray="null" stroke-linecap="null" stroke-linejoin="null" stroke-opacity="null" stroke-width="2"/>
  <path d="m4,18c2.83,-1.33 4.52,-2.94 8.5,-3c3.98,-0.06 5.67,1.67 8.5,3" fill="none" fill-opacity="0" id="svg_3" stroke="#000000" stroke-dasharray="null" stroke-linecap="null" stroke-linejoin="null" stroke-opacity="null" stroke-width="2"/>
  <path d="m6,10c0.78,0.98 1.37,1.81 1.65,2.5c0.28,0.68 0.21,2.47 0.35,3.5" fill="none" fill-opacity="0" id="svg_4" stroke="#000000" stroke-dasharray="null" stroke-linecap="null" stroke-linejoin="null" stroke-opacity="null" stroke-width="2"/>
  <path d="m19,9c-0.33,1.17 -1.67,2.28 -2,3.5c-0.33,1.22 0.33,2.33 0,3.5" fill="none" fill-opacity="0" id="svg_5" stroke="#000000" stroke-dasharray="null" stroke-linecap="null" stroke-linejoin="null" stroke-opacity="null" stroke-width="2"/>
 </g>
</svg>