<?xml version="1.0"?>
<svg id="symbol" viewBox="0 0 25 25" xmlns="http://www.w3.org/2000/svg" xmlns:svg="http://www.w3.org/2000/svg">
 <!-- Created with SVG-edit - https://github.com/SVG-Edit/svgedit-->
 <!-- Created by Aleksy Slizewski -->
 <g class="layer">
  <title>stop sign</title>
  <path d="m8,2l-6,6l0,9l6,6l9,0l6,-6l0,-9l-6,-6l-9,0z" fill="#ffffff" fill-opacity="null" id="svg_4" stroke="#000000" stroke-dasharray="null" stroke-linecap="null" stroke-linejoin="null" stroke-opacity="null" stroke-width="0.2"/>
  <path d="m8.5,3l-5.5,5.5l0,8l5.5,5.5l8,0l5.5,-5.5l0,-8l-5.5,-5.5l-8,0z" fill="#ff0000" id="svg_5" stroke="#ffffff" stroke-dasharray="null" stroke-linecap="null" stroke-linejoin="null" stroke-width="0.2" transform="matrix(1, 0, 0, 1, 0, 0)"/>
  <path d="m7.6,10c-0.02,-0.82 -0.69,-2.03 -2,-2c-1.31,0.03 -1.98,0.64 -2,2c-0.02,1.36 2.99,3.16 3,4c0.01,0.84 -0.57,1.26 -1,1.25c-0.43,-0.01 -1.01,-0.72 -1,-1.25l-1,0c0.07,0.77 0.89,1.97 2,2c1.11,0.03 2.03,-0.69 2,-2c-0.03,-1.31 -2.99,-3.37 -3,-4c-0.01,-0.63 0.47,-1.24 1,-1.25c0.53,-0.01 1.01,0.77 1,1.25l1,0z" fill="#ffffff" id="svg_7" stroke="#000000" stroke-dasharray="null" stroke-linecap="null" stroke-linejoin="null" stroke-opacity="0" stroke-width="0.2"/>
  <path d="m8.1,8l0,1.5l1.6,0l0,6.5l1.3,0l0,-6.5l1.6,0l0,-1.5l-4.5,0z" fill="#ffffff" id="svg_8" stroke="#000000" stroke-dasharray="null" stroke-linecap="null" stroke-linejoin="null" stroke-opacity="0" stroke-width="0.2"/>
  <path d="m17.6,8l0,8l1,0l0,-3.5c1.05,-0.02 2.76,-0.34 2.75,-2.25c-0.01,-1.91 -1.55,-2.23 -2.75,-2.25l0,1c0.72,-0.06 1.87,0.22 1.9,1.25c0.03,1.03 -1.23,1.31 -1.9,1.25l0,-2.5l0,-1l-1,0z" fill="#ffffff" fill-opacity="null" id="svg_9" stroke="#000000" stroke-dasharray="null" stroke-linecap="null" stroke-linejoin="null" stroke-opacity="0" stroke-width="0.2"/>
  <ellipse cx="15" cy="12" fill="#000000" fill-opacity="0" id="svg_10" rx="1.75" ry="3.75" stroke="#ffffff" stroke-dasharray="null" stroke-linecap="null" stroke-linejoin="null" stroke-width="0.9" transform="matrix(1, 0, 0, 1, 0, 0)"/>
 </g>
</svg>