<?xml version="1.0"?>
<svg viewBox="0 0 25 25" xmlns="http://www.w3.org/2000/svg" xmlns:svg="http://www.w3.org/2000/svg">
 <!-- Created with SVG-edit - https://github.com/SVG-Edit/svgedit-->
 <!-- Created by Aleksy Slizewski --> <g class="layer">
  <title>sun</title>
  <circle cx="12.5" cy="12.5" fill="#ffd700" id="svg_1" r="8" stroke="#000000" stroke-width="0.2"/>
  <path d="m2.2,3.85c0.12,1.09 1.32,2.28 1.73,1.62c0.41,-0.67 1.63,0.63 1.37,1.95" fill="none" fill-opacity="null" id="svg_6" stroke="#ffd700" stroke-dasharray="null" stroke-linecap="null" stroke-linejoin="null" stroke-opacity="null" stroke-width="0.2" transform="rotate(-14.606, 3.76317, 5.63555)"/>
  <path d="m0.68,8.79c0.39,0.61 1.58,0.9 1.68,0.37c0.1,-0.53 1.33,-0.18 1.52,0.69" fill="none" fill-opacity="null" id="svg_7" stroke="#ffd700" stroke-dasharray="null" stroke-linecap="null" stroke-linejoin="null" stroke-opacity="null" stroke-width="0.2"/>
  <path d="m9.71,1.18c0.12,0.58 1.35,1.22 1.77,0.86c0.42,-0.36 1.67,0.34 1.4,1.04" fill="none" fill-opacity="null" id="svg_8" stroke="#ffd700" stroke-dasharray="null" stroke-linecap="null" stroke-linejoin="null" stroke-opacity="null" stroke-width="0.2" transform="matrix(1, 0, 0, 1, 0, 0) rotate(49.8117, 11.3103, 2.13505)"/>
  <path d="m1.45,11.6c0.06,0.88 0.69,1.83 0.91,1.3c0.22,-0.53 0.86,0.51 0.72,1.56" fill="none" fill-opacity="null" id="svg_9" stroke="#ffd700" stroke-dasharray="null" stroke-linecap="null" stroke-linejoin="null" stroke-opacity="null" stroke-width="0.2" transform="rotate(-66.3344, 2.2736, 13.0338)"/>
  <path d="m5.29,0.97c0.12,1.17 1.35,2.45 1.77,1.73c0.42,-0.71 1.67,0.68 1.4,2.09" fill="none" fill-opacity="null" id="svg_10" stroke="#ffd700" stroke-dasharray="null" stroke-linecap="null" stroke-linejoin="null" stroke-opacity="null" stroke-width="0.2"/>
  <path d="m1.11,19.09c1.16,-0.29 2.28,-1.39 1.51,-1.55c-0.77,-0.17 0.47,-1.3 1.92,-1.36" fill="none" fill-opacity="null" id="svg_11" stroke="#ffd700" stroke-dasharray="null" stroke-linecap="null" stroke-linejoin="null" stroke-opacity="null" stroke-width="0.2" transform="matrix(1, 0, 0, 1, 0, 0)"/>
  <path d="m3.92,22.57c-0.23,-0.52 0.68,-1.75 1.34,-1.74c0.66,0.01 1.56,-1.28 0.84,-1.64" fill="none" fill-opacity="null" id="svg_12" stroke="#ffd700" stroke-dasharray="null" stroke-linecap="null" stroke-linejoin="null" stroke-opacity="null" stroke-width="0.2" transform="matrix(1, 0, 0, 1, 0, 0)"/>
  <path d="m8.71,24.16c0.07,-0.87 0.78,-1.81 1.03,-1.28c0.25,0.53 0.97,-0.5 0.81,-1.55" fill="none" fill-opacity="null" id="svg_14" stroke="#ffd700" stroke-dasharray="null" stroke-linecap="null" stroke-linejoin="null" stroke-opacity="null" stroke-width="0.2" transform="rotate(-12.207, 9.64698, 22.7408)"/>
  <path d="m22.47,22.96c-0.14,-1.23 -1.55,-2.57 -2.04,-1.82c-0.49,0.75 -1.93,-0.71 -1.61,-2.2" fill="none" fill-opacity="null" id="svg_15" stroke="#ffd700" stroke-dasharray="null" stroke-linecap="null" stroke-linejoin="null" stroke-opacity="null" stroke-width="0.2"/>
  <path d="m16.99,24.21c-0.1,-0.9 -1.13,-1.88 -1.48,-1.33c-0.35,0.55 -1.4,-0.52 -1.17,-1.61" fill="none" fill-opacity="null" id="svg_16" stroke="#ffd700" stroke-dasharray="null" stroke-linecap="null" stroke-linejoin="null" stroke-opacity="null" stroke-width="0.2" transform="rotate(10.6106, 15.6549, 22.7408)"/>
  <path d="m24.21,17.8c-0.12,-0.89 -1.33,-1.86 -1.75,-1.32c-0.42,0.54 -2.18,0.36 -1.91,-0.72" fill="none" fill-opacity="null" id="svg_17" stroke="#ffd700" stroke-dasharray="null" stroke-linecap="null" stroke-linejoin="null" stroke-opacity="null" stroke-width="0.2" transform="rotate(-12.6526, 22.3629, 16.7825)"/>
  <path d="m24.35,9.46c-0.12,0.81 -1.39,1.68 -1.82,1.19c-0.43,-0.49 -1.72,0.47 -1.44,1.44" fill="none" fill-opacity="null" id="svg_18" stroke="#ffd700" stroke-dasharray="null" stroke-linecap="null" stroke-linejoin="null" stroke-opacity="null" stroke-width="0.2" transform="rotate(12.1308, 22.7056, 10.7746)"/>
  <path d="m21.62,1.56c-0.12,1.39 -1.41,2.89 -1.85,2.05c-0.44,-0.84 -1.75,0.8 -1.46,2.47" fill="none" fill-opacity="null" id="svg_19" stroke="#ffd700" stroke-dasharray="null" stroke-linecap="null" stroke-linejoin="null" stroke-opacity="null" stroke-width="0.2"/>
  <path d="m23.96,5.09c-0.13,0.99 -1.51,2.07 -1.98,1.46c-0.47,-0.6 -1.88,0.57 -1.57,1.76" fill="none" fill-opacity="null" id="svg_20" stroke="#ffd700" stroke-dasharray="null" stroke-linecap="null" stroke-linejoin="null" stroke-opacity="null" stroke-width="0.2"/>
  <path d="m17.35,0.52c-0.07,1.16 -0.84,2.42 -1.11,1.71c-0.26,-0.7 -1.05,0.67 -0.88,2.06" fill="none" fill-opacity="null" id="svg_21" stroke="#ffd700" stroke-dasharray="null" stroke-linecap="null" stroke-linejoin="null" stroke-opacity="null" stroke-width="0.2" transform="matrix(1, 0, 0, 1, 0, 0)"/>
 </g>
</svg>