<?xml version="1.0"?>
<svg id="symbol" viewBox="0 0 25 25" xmlns="http://www.w3.org/2000/svg" xmlns:svg="http://www.w3.org/2000/svg">
 <!-- Created with SVG-edit - https://github.com/SVG-Edit/svgedit-->
 <!-- Created by Aleksy Slizewski -->
 <g class="layer">
  <title>tennis racket</title>
  <g id="svg_21">
   <line fill="none" fill-opacity="0" id="svg_9" stroke="#bf5f00" stroke-dasharray="null" stroke-linecap="round" stroke-linejoin="null" stroke-width="0.2" x1="23" x2="14" y1="3" y2="12"/>
   <line fill="none" fill-opacity="0" id="svg_10" stroke="#bf5f00" stroke-dasharray="null" stroke-linecap="round" stroke-linejoin="null" stroke-width="0.2" x1="22" x2="13" y1="2" y2="11"/>
   <line fill="none" fill-opacity="0" id="svg_11" stroke="#bf5f00" stroke-dasharray="null" stroke-linecap="round" stroke-linejoin="null" stroke-width="0.2" x1="21" x2="12" y1="2" y2="11"/>
   <line fill="none" fill-opacity="0" id="svg_12" stroke="#bf5f00" stroke-dasharray="null" stroke-linecap="round" stroke-linejoin="null" stroke-width="0.2" x1="20" x2="12" y1="2" y2="10"/>
   <line fill="none" fill-opacity="0" id="svg_13" stroke="#bf5f00" stroke-dasharray="null" stroke-linecap="round" stroke-linejoin="null" stroke-width="0.2" x1="19" x2="12" y1="2" y2="9"/>
   <line fill="none" fill-opacity="0" id="svg_14" stroke="#bf5f00" stroke-dasharray="null" stroke-linecap="round" stroke-linejoin="null" stroke-width="0.2" x1="18" x2="12" y1="2" y2="8"/>
   <line fill="none" fill-opacity="0" id="svg_15" stroke="#bf5f00" stroke-dasharray="null" stroke-linecap="round" stroke-linejoin="null" stroke-width="0.2" x1="23" x2="14" y1="4" y2="13"/>
   <line fill="none" fill-opacity="0" id="svg_16" stroke="#bf5f00" stroke-dasharray="null" stroke-linecap="round" stroke-linejoin="null" stroke-width="0.2" x1="22" x2="13" y1="3" y2="12"/>
   <line fill="none" fill-opacity="0" id="svg_17" stroke="#bf5f00" stroke-dasharray="null" stroke-linecap="round" stroke-linejoin="null" stroke-width="0.2" x1="24" x2="15" y1="4" y2="13"/>
   <line fill="none" fill-opacity="0" id="svg_18" stroke="#bf5f00" stroke-dasharray="null" stroke-linecap="round" stroke-linejoin="null" stroke-width="0.2" x1="24" x2="16" y1="5" y2="13"/>
   <line fill="none" fill-opacity="0" id="svg_19" stroke="#bf5f00" stroke-dasharray="null" stroke-linecap="round" stroke-linejoin="null" stroke-width="0.2" x1="24" x2="17" y1="6" y2="13"/>
   <line fill="none" fill-opacity="0" id="svg_20" stroke="#bf5f00" stroke-dasharray="null" stroke-linecap="round" stroke-linejoin="null" stroke-width="0.2" x1="24" x2="18" y1="7" y2="13"/>
   <line fill="none" fill-opacity="0" id="svg_8" stroke="#bf5f00" stroke-dasharray="null" stroke-linecap="round" stroke-linejoin="null" stroke-width="0.2" x1="22" x2="13" y1="3" y2="12"/>
   <line fill="none" fill-opacity="0" id="svg_1" stroke="#bf5f00" stroke-dasharray="null" stroke-linecap="round" stroke-linejoin="null" stroke-opacity="null" stroke-width="0.2" x1="12" x2="16" y1="9" y2="13"/>
   <line fill="none" fill-opacity="0" id="svg_2" stroke="#bf5f00" stroke-dasharray="null" stroke-linecap="round" stroke-linejoin="null" stroke-opacity="null" stroke-width="0.2" x1="12" x2="17" y1="8" y2="13"/>
   <line fill="none" fill-opacity="0" id="svg_3" stroke="#bf5f00" stroke-dasharray="null" stroke-linecap="round" stroke-linejoin="null" stroke-opacity="null" stroke-width="0.2" x1="12" x2="18" y1="7" y2="13"/>
   <line fill="none" fill-opacity="0" id="svg_5" stroke="#bf5f00" stroke-dasharray="null" stroke-linecap="round" stroke-linejoin="null" stroke-opacity="null" stroke-width="0.2" x1="12" x2="19" y1="6" y2="13"/>
   <line fill="none" fill-opacity="0" id="svg_22" stroke="#bf5f00" stroke-dasharray="null" stroke-linecap="round" stroke-linejoin="null" stroke-opacity="null" stroke-width="0.2" x1="13" x2="20" y1="6" y2="13"/>
   <line fill="none" fill-opacity="0" id="svg_23" stroke="#bf5f00" stroke-dasharray="null" stroke-linecap="round" stroke-linejoin="null" stroke-opacity="null" stroke-width="0.2" x1="13" x2="20" y1="5" y2="12"/>
   <line fill="none" fill-opacity="0" id="svg_24" stroke="#bf5f00" stroke-dasharray="null" stroke-linecap="round" stroke-linejoin="null" stroke-opacity="null" stroke-width="0.2" x1="13" x2="21" y1="4" y2="12"/>
   <line fill="none" fill-opacity="0" id="svg_25" stroke="#bf5f00" stroke-dasharray="null" stroke-linecap="round" stroke-linejoin="null" stroke-opacity="null" stroke-width="0.2" x1="14" x2="21" y1="4" y2="11"/>
   <line fill="none" fill-opacity="0" id="svg_26" stroke="#bf5f00" stroke-dasharray="null" stroke-linecap="round" stroke-linejoin="null" stroke-opacity="null" stroke-width="0.2" x1="15" x2="22" y1="4" y2="11"/>
   <line fill="none" fill-opacity="0" id="svg_27" stroke="#bf5f00" stroke-dasharray="null" stroke-linecap="round" stroke-linejoin="null" stroke-opacity="null" stroke-width="0.2" x1="15" x2="22" y1="3" y2="10"/>
   <line fill="none" fill-opacity="0" id="svg_28" stroke="#bf5f00" stroke-dasharray="null" stroke-linecap="round" stroke-linejoin="null" stroke-opacity="null" stroke-width="0.2" x1="16" x2="23" y1="3" y2="10"/>
   <line fill="none" fill-opacity="0" id="svg_29" stroke="#bf5f00" stroke-dasharray="null" stroke-linecap="round" stroke-linejoin="null" stroke-opacity="null" stroke-width="0.2" x1="16" x2="23" y1="2" y2="9"/>
   <line fill="none" fill-opacity="0" id="svg_30" stroke="#bf5f00" stroke-dasharray="null" stroke-linecap="round" stroke-linejoin="null" stroke-opacity="null" stroke-width="0.2" x1="17" x2="23" y1="2" y2="8"/>
   <line fill="none" fill-opacity="0" id="svg_31" stroke="#bf5f00" stroke-dasharray="null" stroke-linecap="round" stroke-linejoin="null" stroke-opacity="null" stroke-width="0.2" x1="18" x2="24" y1="2" y2="8"/>
   <line fill="none" fill-opacity="0" id="svg_32" stroke="#bf5f00" stroke-dasharray="null" stroke-linecap="round" stroke-linejoin="null" stroke-opacity="null" stroke-width="0.2" x1="19" x2="24" y1="2" y2="7"/>
   <line fill="none" fill-opacity="0" id="svg_33" stroke="#bf5f00" stroke-dasharray="null" stroke-linecap="round" stroke-linejoin="null" stroke-opacity="null" stroke-width="0.2" x1="12" x2="16" y1="9" y2="13"/>
   <line fill="none" fill-opacity="0" id="svg_34" stroke="#bf5f00" stroke-dasharray="null" stroke-linecap="round" stroke-linejoin="null" stroke-opacity="null" stroke-width="0.2" x1="20" x2="24" y1="2" y2="6"/>
  </g>
  <path d="m23,2l-1,1c-2.45,-1.71 -4.81,-0.93 -7,1c-2.19,1.93 -3.74,5.11 -1.5,7.5c2.24,2.39 6.55,0.85 8.5,-1.5c1.95,-2.35 1.97,-5.34 0,-7l1,-1c1.87,2.25 2.19,5.44 0.09,8.68c-2.11,3.24 -7.92,4.43 -10.09,2.32l-10,10l-1,-1l10,-10c-1.37,-1.91 -1.77,-6.24 2,-9c3.77,-2.76 7.17,-2.91 9,-1z" fill="#00bf00" id="svg_4" stroke="#000000" stroke-dasharray="null" stroke-linecap="round" stroke-linejoin="null" stroke-opacity="0" stroke-width="0.2"/>
  <path d="m22,3c-2.45,-1.71 -4.81,-0.93 -7,1c-2.19,1.93 -3.74,5.11 -1.5,7.5c2.24,2.39 6.55,0.85 8.5,-1.5c1.95,-2.35 1.97,-5.34 0,-7l0,0z" fill="#000000" fill-opacity="0" id="svg_6" stroke="#000000" stroke-dasharray="null" stroke-linecap="round" stroke-linejoin="null" stroke-width="0.2"/>
  <path d="m23,2l0,0c1.87,2.25 2.19,5.44 0.09,8.68c-2.11,3.24 -7.92,4.43 -10.09,2.32l-10,10l-1,-1l10,-10c-1.37,-1.91 -1.77,-6.24 2,-9c3.77,-2.76 7.17,-2.91 9,-1z" fill="#000000" fill-opacity="0" id="svg_7" stroke="#000000" stroke-dasharray="null" stroke-linecap="round" stroke-linejoin="null" stroke-width="0.2" transform="matrix(1, 0, 0, 1, 0, 0)"/>
 </g>
</svg>