<?xml version="1.0"?>
<svg viewBox="0 0 25 25" xmlns="http://www.w3.org/2000/svg" xmlns:svg="http://www.w3.org/2000/svg">
 <!-- Created with SVG-edit - https://github.com/SVG-Edit/svgedit-->
 <!-- Created by Aleksy Slizewski --> <g class="layer">
  <title>tire</title>
  <circle cx="12.5" cy="12.5" fill="#000000" fill-opacity="0" id="svg_1" r="8" stroke="#000000" stroke-dasharray="null" stroke-linecap="round" stroke-linejoin="round" stroke-width="3" transform="matrix(1, 0, 0, 1, 0, 0)"/>
  <path d="m7.43,10.36c0.28,-0.66 0.65,-1.22 1.09,-1.78c0.44,-0.56 0.86,-0.83 1.31,-1.09c0.46,-0.27 1.2,-0.58 1.29,-0.43c0.09,0.15 0.12,1.46 0.21,1.88c0.09,0.42 0.67,1.88 0.88,1.8c0.21,-0.07 0.07,-1.73 -0.01,-2.12c-0.08,-0.39 -0.71,-1.52 -0.62,-1.73c0.09,-0.21 1.21,-0.12 1.86,0.02c0.65,0.14 1.56,0.41 2.16,0.81c0.6,0.39 1.42,1.14 1.37,1.47c-0.05,0.33 -1.03,0.63 -1.32,0.8c-0.29,0.16 -1.58,1.52 -1.51,1.7c0.07,0.18 1.81,-0.8 2.07,-0.97c0.26,-0.16 0.91,-1.05 1.19,-1.14c0.28,-0.09 0.61,2.16 0.61,2.92c0,0.76 -0.15,1.48 -0.43,2.14c-0.14,0.33 -0.8,1.37 -1.03,1.46c-0.23,0.09 -0.73,-1.13 -0.9,-1.4c-0.17,-0.27 -1.5,-1.21 -1.66,-1.09c-0.15,0.12 0.73,1.6 0.97,1.83c0.24,0.23 1.17,0.65 1.14,0.95c-0.03,0.3 -1.13,1.03 -1.46,1.17c-0.66,0.28 -1.38,0.43 -2.14,0.43c-0.09,0 -0.19,0 -0.28,-0.01c-0.09,0 -0.19,-0.01 -0.28,-0.02c-0.09,-0.01 -0.56,0.04 -0.51,-0.15c0.05,-0.19 0.63,-1.07 0.68,-1.41c0.06,-0.34 0.05,-2.18 -0.12,-2.2c-0.17,-0.02 -0.84,1.78 -0.96,2.01c-0.12,0.23 0.06,1.28 -0.02,1.48c-0.08,0.2 -0.57,-0.09 -0.66,-0.13c-0.66,-0.28 -1.28,-0.68 -1.78,-1.12c-0.5,-0.44 -0.85,-0.97 -1,-1.26c-0.15,-0.28 -0.33,-0.72 -0.42,-0.97c-0.09,-0.26 -0.15,-0.57 0.09,-0.72c0.23,-0.14 1.37,-0.17 1.69,-0.26c0.32,-0.09 2.07,-0.7 2.02,-0.93c-0.05,-0.23 -1.86,-0.06 -2.22,0.08c-0.36,0.14 -1.27,0.66 -1.51,0.71c-0.24,0.05 -0.25,-0.59 -0.25,-0.89c0,-0.3 0.18,-1.19 0.45,-1.85z" fill="#999999" fill-opacity="null" id="svg_4" stroke="#000000" stroke-dasharray="null" stroke-linecap="round" stroke-linejoin="round" stroke-opacity="null" stroke-width="0.2"/>
 </g>
</svg>