<?xml version="1.0"?>
<svg viewBox="0 0 25 25" xmlns="http://www.w3.org/2000/svg" xmlns:svg="http://www.w3.org/2000/svg">
 <!-- Created with SVG-edit - https://github.com/SVG-Edit/svgedit-->
 <!-- Created by Aleksy Slizewski --> <g class="layer">
  <title>umbrella</title>
  <path d="m8.85,20l-0.75,0c0.07,1.66 0.8,3.03 2.5,3c1.7,-0.03 2.38,-1.23 2.25,-3l0,-13l-0.75,0l0,13c0,0.96 -0.56,1.98 -1.5,2c-0.94,0.02 -1.61,-0.95 -1.75,-2z" fill="#111111" id="svg_2" stroke="#000000" stroke-dasharray="null" stroke-linecap="null" stroke-linejoin="null" stroke-opacity="null" stroke-width="0.2"/>
  <g id="svg_7">
   <path d="m12.1,2l0,1c-10.47,0.26 -10.05,8.05 -10.1,9c-0.05,0.95 1.23,-0.97 2,-1c0.77,-0.03 1.33,1.02 2,1c0.67,-0.02 1.13,-0.98 2,-1c0.87,-0.02 1.33,0.98 2,1c0.67,0.02 1.82,-0.98 2.5,-1c0.68,-0.02 1.82,0.98 2.5,1c0.68,0.02 1.18,-0.98 2,-1c0.82,-0.02 1.28,1.03 2,1c0.72,-0.03 1.23,-1.03 2,-1c0.77,0.03 2.02,1.92 2,1c-0.02,-0.92 -0.74,-8.98 -10.7,-9l0,-1l-0.2,0z" fill="#663399" id="svg_1" stroke="#000000" stroke-width="0.2"/>
   <path d="m6,12c0,-4.35 1.13,-8.67 6.2,-9" fill="none" id="svg_3" stroke="#000000" stroke-dasharray="null" stroke-linecap="null" stroke-linejoin="null" stroke-opacity="null" stroke-width="0.2"/>
   <path d="m10,12c-0.15,-2.05 0.21,-8.93 2.2,-9" fill="none" fill-opacity="null" id="svg_4" stroke="#000000" stroke-dasharray="null" stroke-linecap="null" stroke-linejoin="null" stroke-opacity="null" stroke-width="0.2"/>
   <path d="m15,12c-0.03,-2.04 -1.03,-8.9 -2.8,-9" fill="none" id="svg_5" stroke="#000000" stroke-dasharray="null" stroke-linecap="null" stroke-linejoin="null" stroke-opacity="null" stroke-width="0.2"/>
   <path d="m19,12c-0.03,-3 -1.41,-8.83 -6.8,-9" fill="none" fill-opacity="null" id="svg_6" stroke="#000000" stroke-dasharray="null" stroke-linecap="null" stroke-linejoin="null" stroke-opacity="null" stroke-width="0.2"/>
  </g>
 </g>
</svg>