<?xml version="1.0"?>
<svg id="symbol" viewBox="0 0 25 25" xmlns="http://www.w3.org/2000/svg" xmlns:svg="http://www.w3.org/2000/svg">
 <!-- Created with SVG-edit - https://github.com/SVG-Edit/svgedit-->
 <!-- Created by Aleksy Slizewski -->
 <g class="layer">
  <title>bat</title>
  <path d="m1,9.64c0.08,-1.84 2.99,-4.09 5,-4l0,0c2.26,-0.09 3.68,0.5 5,2c0,-0.67 0.5,-2.28 0,-3l0,0c0.4,-0.3 0.85,1 1.5,1c0.65,0 0.95,-1.3 1.5,-1l0,0c-0.4,0.67 0,2.33 0,3c1.02,-1.15 3.33,-1.99 5,-2l0,0c2.81,0.06 5.02,1.96 5,4c-1.33,1 -3.55,-0.13 -4,1c-0.45,1.13 0,2.67 0,4c-1,-0.33 -1.94,-1.59 -3,-1c-1.06,0.59 -0.33,2.67 -1,4c-0.67,-0.33 -1.38,-1.71 -2,-1c-0.62,0.71 -1.33,2.67 -1.5,4c-0.17,-1.33 -0.99,-3.36 -1.5,-4c-0.51,-0.64 -1.33,0.67 -2,1c-0.67,-1.33 0.06,-3.41 -1,-4c-1.06,-0.59 -2,0.67 -3,1c0,-1.33 0.65,-2.72 0,-4c-0.65,-1.28 -2.67,0 -4,-1z" fill="#191919" id="svg_1" stroke="#000000" stroke-dasharray="null" stroke-linecap="round" stroke-linejoin="null" stroke-width="0.2"/>
 </g>
</svg>